<svg width="30" height="31" viewBox="0 0 30 31" fill="none" xmlns="http://www.w3.org/2000/svg">
<rect x="1" y="1.03882" width="28" height="28" rx="4" stroke="#111111" stroke-width="2"/>
<path d="M21.0384 9.9201C20.7234 9.9201 20.4259 10.0426 20.1984 10.2526L13.3034 17.3051L9.76844 13.6826C9.50594 13.4551 9.24344 13.3501 8.94594 13.3501C8.29844 13.3501 7.77344 13.8926 7.77344 14.5401C7.77344 14.8551 7.89594 15.1526 8.10594 15.3626L12.4809 19.8251C12.7434 20.0526 13.0059 20.1576 13.3034 20.1576C13.6184 20.1576 13.9159 20.0351 14.1434 19.8251L21.8609 11.9501C22.0534 11.7576 22.1934 11.4601 22.2284 11.1276C22.2109 10.4451 21.6859 9.9201 21.0384 9.9201Z" fill="#111111"/>
</svg>
