<svg width="30" height="30" viewBox="0 0 30 30" fill="none" xmlns="http://www.w3.org/2000/svg">
<rect x="1" y="1" width="28" height="28" rx="4" stroke="#F2F2F2" stroke-width="2"/>
<path d="M21.0384 9.88135C20.7234 9.88135 20.4259 10.0038 20.1984 10.2138L13.3034 17.2663L9.76844 13.6438C9.50594 13.4163 9.24344 13.3113 8.94594 13.3113C8.29844 13.3113 7.77344 13.8538 7.77344 14.5013C7.77344 14.8163 7.89594 15.1138 8.10594 15.3238L12.4809 19.7863C12.7434 20.0138 13.0059 20.1188 13.3034 20.1188C13.6184 20.1188 13.9159 19.9963 14.1434 19.7863L21.8609 11.9113C22.0534 11.7188 22.1934 11.4213 22.2284 11.0888C22.2109 10.4063 21.6859 9.88135 21.0384 9.88135Z" fill="#F2F2F2"/>
</svg>
