<svg width="57" height="50" viewBox="0 0 57 50" fill="none" xmlns="http://www.w3.org/2000/svg">
<g clip-path="url(#clip0_13827:5039)">
<path d="M49.1766 17.8257H22.8492C22.391 17.8257 22.0195 18.1971 22.0195 18.6553C22.0195 19.1135 22.391 19.485 22.8492 19.485H49.1766C49.6348 19.485 50.0063 19.1135 50.0063 18.6553C50.0063 18.1971 49.6348 17.8257 49.1766 17.8257Z" fill="#F2F2F2"/>
<path d="M49.1766 24.168H22.8492C22.391 24.168 22.0195 24.5394 22.0195 24.9976C22.0195 25.4558 22.391 25.8273 22.8492 25.8273H49.1766C49.6348 25.8273 50.0063 25.4558 50.0063 24.9976C50.0063 24.5394 49.6348 24.168 49.1766 24.168Z" fill="#F2F2F2"/>
<path d="M49.1766 30.51H22.8492C22.391 30.51 22.0195 30.8815 22.0195 31.3397C22.0195 31.7978 22.391 32.1693 22.8492 32.1693H49.1766C49.6348 32.1693 50.0063 31.7978 50.0063 31.3397C50.0063 30.8815 49.6348 30.51 49.1766 30.51Z" fill="#F2F2F2"/>
<path d="M51.8121 10.5698H20.2141C17.5534 10.5698 15.3887 12.7344 15.3887 15.3953V35.2644C15.3887 37.9251 17.5533 40.0898 20.2141 40.0898H42.3613C42.5982 40.0898 42.8182 40.1964 42.9651 40.3823L50.1172 49.4369C50.3991 49.7937 50.8103 49.9882 51.241 49.9882C51.4011 49.9882 51.5639 49.9613 51.7236 49.9058C52.3129 49.7011 52.6936 49.1658 52.6936 48.5421V40.0074C54.9309 39.5895 56.6376 37.6115 56.6376 35.2644V15.3952C56.6376 12.7344 54.473 10.5698 51.8121 10.5698ZM54.9783 35.2644C54.9783 36.9875 53.5764 38.4073 51.8533 38.4292C51.3993 38.4351 51.0342 38.8048 51.0342 39.2589V47.9209L44.2672 39.3538C43.8038 38.7669 43.1091 38.4304 42.3613 38.4304H20.2141C18.4683 38.4304 17.048 37.0101 17.048 35.2643V15.3952C17.048 13.6494 18.4682 12.229 20.2141 12.229H51.8121C53.5579 12.229 54.9783 13.6494 54.9783 15.3952V35.2644Z" fill="#F2F2F2"/>
<path d="M12.2228 24.2873C11.6553 24.3678 11.1471 24.66 10.7918 25.1097L5.09259 32.325V25.0937C5.09259 24.6396 4.72754 24.2699 4.27356 24.264C2.83208 24.2457 1.65929 23.058 1.65929 21.6164V4.3198C1.65929 2.85929 2.84757 1.67101 4.30807 1.67101H31.815C33.2756 1.67101 34.4638 2.85929 34.4638 4.3198V7.52024C34.4638 7.97842 34.8353 8.34988 35.2935 8.34988C35.7517 8.34988 36.1231 7.97842 36.1231 7.52024V4.3198C36.1231 1.94435 34.1905 0.0117188 31.815 0.0117188H4.30807C1.93263 0.0117188 0 1.94435 0 4.3198V21.6164C0 23.6813 1.47909 25.4259 3.43341 25.8336V33.175C3.43341 33.7644 3.79314 34.2702 4.35 34.4636C4.501 34.516 4.65476 34.5415 4.80608 34.5415C5.21283 34.5415 5.60166 34.3576 5.86792 34.0206L12.094 26.1383C12.1838 26.0244 12.3125 25.9505 12.4561 25.9301C12.9097 25.8657 13.2253 25.4457 13.1608 24.992C13.0965 24.5384 12.6771 24.2226 12.2228 24.2873Z" fill="#F2F2F2"/>
</g>
<defs>
<clipPath id="clip0_13827:5039">
<rect width="56.6372" height="50" fill="white"/>
</clipPath>
</defs>
</svg>
