<svg width="50" height="51" viewBox="0 0 50 51" fill="none" xmlns="http://www.w3.org/2000/svg">
<g clip-path="url(#clip0_13827:5048)">
<path d="M43.8297 3.36208H40.6982V2.23723C40.6982 1.0036 39.6991 0 38.471 0H38.1347C36.9066 0 35.9075 1.0036 35.9075 2.23723V3.36208H14.0911V2.23723C14.0911 1.0036 13.092 0 11.8639 0H11.5275C10.2994 0 9.30029 1.0036 9.30029 2.23723V3.36208H6.16895C4.14697 3.36208 2.50195 5.01448 2.50195 7.04552V46.5457C2.50195 48.5741 4.14473 50.2242 6.16406 50.2242H43.8348C45.8541 50.2242 47.4969 48.5741 47.4969 46.5457V7.04552C47.4968 5.01448 45.8518 3.36208 43.8297 3.36208ZM37.3724 2.23723C37.3724 1.81494 37.7144 1.47141 38.1348 1.47141H38.4711C38.8915 1.47141 39.2335 1.81494 39.2335 2.23723V3.36208H37.3724V2.23723ZM10.7652 2.23723C10.7652 1.81494 11.1072 1.47141 11.5276 1.47141H11.864C12.2844 1.47141 12.6264 1.81494 12.6264 2.23723V3.36208H10.7653L10.7652 2.23723ZM46.0319 46.5457C46.0319 47.7627 45.0463 48.7528 43.8347 48.7528H6.16397C4.95234 48.7528 3.9667 47.7627 3.9667 46.5457V46.5411C4.58037 47.0056 5.34316 47.2814 6.16895 47.2814H35.8646C36.844 47.2814 37.7649 46.8982 38.4575 46.2025L46.0319 38.5941V46.5457ZM37.7102 44.8723C37.7676 44.6342 37.7988 44.3859 37.7988 44.1304V39.2194C37.7988 38.2934 38.5489 37.54 39.4709 37.54H44.3599C44.6143 37.54 44.8614 37.5086 45.0984 37.4509L37.7102 44.8723ZM46.0319 13.8758H14.8235C14.419 13.8758 14.0911 14.2052 14.0911 14.6115C14.0911 15.0178 14.419 15.3472 14.8235 15.3472H46.0319V34.3891C46.0319 35.3152 45.2818 36.0686 44.3599 36.0686H39.4709C37.7412 36.0686 36.334 37.4822 36.334 39.2195V44.1305C36.334 45.0566 35.5839 45.8101 34.662 45.8101H6.16895C4.95469 45.8101 3.9668 44.8178 3.9668 43.598V15.3472H11.8938C12.2983 15.3472 12.6263 15.0178 12.6263 14.6115C12.6263 14.2052 12.2983 13.8758 11.8938 13.8758H3.9667V7.04552C3.9667 5.82581 4.95459 4.83349 6.16885 4.83349H9.30029V6.99666C9.30029 8.2303 10.2994 9.2339 11.5275 9.2339C11.932 9.2339 12.26 8.9045 12.26 8.49819C12.26 8.09189 11.932 7.76249 11.5275 7.76249C11.1071 7.76249 10.7651 7.41896 10.7651 6.99666V4.83349H35.9075V6.99666C35.9075 8.2303 36.9066 9.2339 38.1348 9.2339C38.5393 9.2339 38.8672 8.9045 38.8672 8.49819C38.8672 8.09189 38.5393 7.76249 38.1348 7.76249C37.7144 7.76249 37.3724 7.41896 37.3724 6.99666V4.83349H43.8298C45.044 4.83349 46.0319 5.82581 46.0319 7.04552V13.8758Z" fill="#F2F2F2"/>
</g>
<defs>
<clipPath id="clip0_13827:5048">
<rect width="50" height="50.2242" fill="white"/>
</clipPath>
</defs>
</svg>
