<svg width="40" height="50" viewBox="0 0 40 50" fill="none" xmlns="http://www.w3.org/2000/svg">
<path d="M38.958 20.5298C39.9478 19.0119 39.765 17.037 38.5135 15.727C37.9619 15.1497 37.7314 14.3386 37.8966 13.5571C38.2719 11.7838 37.3887 10.0083 35.749 9.23945C35.0263 8.90059 34.5186 8.22754 34.3907 7.43906C34.1007 5.6498 32.6364 4.31357 30.83 4.18955C30.0338 4.13486 29.3175 3.69092 28.9137 3.00186C27.9975 1.43848 26.1504 0.721973 24.4207 1.25947C23.6586 1.49639 22.8306 1.34131 22.2054 0.844922C20.7868 -0.281641 18.8056 -0.281641 17.3872 0.844922C16.762 1.3415 15.9338 1.49639 15.1718 1.25947C13.4425 0.721875 11.595 1.43838 10.6788 3.00186C10.275 3.69092 9.5588 4.13486 8.76266 4.18955C6.95614 4.31357 5.49195 5.6499 5.20182 7.43906C5.07402 8.22754 4.56625 8.90059 3.84367 9.23945C2.20397 10.0084 1.32081 11.7839 1.69591 13.5571C1.86126 14.3386 1.63064 15.1498 1.07917 15.7271C-0.172261 17.0371 -0.355176 19.0121 0.634612 20.53C1.07078 21.1988 1.14853 22.0387 0.8425 22.7765C0.148205 24.4505 0.69051 26.3582 2.16105 27.4156C2.8092 27.8817 3.18469 28.6367 3.16557 29.4353C3.12235 31.2473 4.31642 32.8301 6.06927 33.2844C6.5867 33.4185 7.03623 33.7182 7.35836 34.1269L3.32702 43.8694C2.76208 45.2348 4.04073 46.6407 5.45068 46.2074L9.86424 44.8516C9.99321 44.8122 10.1323 44.8699 10.1954 44.989L12.3585 49.0718C13.0505 50.3778 14.9474 50.2856 15.5117 48.9219L19.7134 38.7675C19.7686 38.7656 19.8237 38.7656 19.8788 38.7675L24.0806 48.9219C24.6459 50.2878 26.5427 50.376 27.2338 49.0719L29.3969 44.989C29.4599 44.8698 29.5991 44.8121 29.7281 44.8517L34.1415 46.2075C35.5523 46.641 36.83 45.2341 36.2653 43.8695L32.2339 34.127C32.556 33.7183 33.0055 33.4186 33.523 33.2845C35.2758 32.8303 36.4698 31.2475 36.4267 29.4353C36.4075 28.6368 36.7831 27.8818 37.4313 27.4158C38.9019 26.3583 39.444 24.4506 38.7497 22.7766C38.4442 22.0385 38.5219 21.1986 38.958 20.5298ZM14.1601 48.3611C14.0683 48.583 13.7633 48.5966 13.6514 48.3853L11.4883 44.3025C11.097 43.564 10.2336 43.2061 9.43529 43.4513L5.02173 44.8071C4.79277 44.8772 4.58742 44.6515 4.67912 44.4299L8.25566 35.786C9.06264 36.8926 10.4116 37.5093 11.8317 37.3433C12.6243 37.2508 13.4099 37.5553 13.9332 38.1582C14.6925 39.0332 15.7624 39.4977 16.8539 39.4976C17.1992 39.4976 17.5465 39.4492 17.8869 39.3546L14.1601 48.3611ZM34.5711 44.807L30.1576 43.4512C29.3593 43.2061 28.4957 43.564 28.1045 44.3024L25.9414 48.3853C25.8297 48.5963 25.5244 48.5826 25.4327 48.361L21.7066 39.3562C23.123 39.7498 24.6603 39.3094 25.6596 38.158C26.1829 37.555 26.9682 37.2503 27.7611 37.3431C29.1826 37.5094 30.5307 36.8925 31.3371 35.7859L34.9139 44.4295C35.0058 44.652 34.7993 44.8769 34.5711 44.807ZM37.7328 19.7292C37.0322 20.8037 36.9073 22.1527 37.3988 23.3379C37.831 24.38 37.4935 25.5675 36.578 26.2259C35.5369 26.9745 34.9336 28.1873 34.9642 29.47C34.9911 30.5981 34.2478 31.5835 33.1565 31.8662C32.1358 32.1308 31.2787 32.7958 30.7647 33.6951C30.7633 33.6978 30.7619 33.7003 30.7605 33.7028C30.6515 33.8945 30.5571 34.0963 30.4811 34.3077C30.0992 35.3693 29.0512 36.0199 27.9309 35.8885C26.6579 35.7394 25.3957 36.229 24.5551 37.1977C23.8159 38.0494 22.6034 38.2763 21.6066 37.7494C21.2676 37.5701 20.9086 37.4457 20.542 37.3737C20.5389 37.373 20.5359 37.3724 20.5329 37.3718C20.0459 37.2773 19.5454 37.2774 19.0585 37.3722C19.0567 37.3726 19.055 37.3729 19.0533 37.3732C18.6858 37.4452 18.3261 37.5698 17.9863 37.7494C16.9895 38.2764 15.7771 38.0494 15.0379 37.1977C14.2967 36.3436 13.2282 35.8622 12.1131 35.8622C11.9634 35.8622 11.8127 35.8709 11.662 35.8886C10.5428 36.0197 9.49363 35.3695 9.11171 34.3078C9.03571 34.0966 8.94147 33.8951 8.8326 33.7035C8.83094 33.7004 8.82929 33.6975 8.82763 33.6943C8.31351 32.7954 7.45669 32.1307 6.43627 31.8662C5.34503 31.5834 4.60176 30.5981 4.62869 29.4701C4.65932 28.1873 4.05604 26.9746 3.01494 26.2259C2.09949 25.5676 1.76185 24.38 2.19412 23.3378C2.6856 22.1526 2.56073 20.8036 1.86009 19.7291C1.24403 18.7843 1.35778 17.5548 2.13695 16.7394C3.02284 15.812 3.39326 14.5089 3.12771 13.2536C2.89417 12.1497 3.44399 11.0444 4.4647 10.5657C5.6255 10.0214 6.44105 8.94023 6.6465 7.67363C6.82708 6.55977 7.73863 5.72793 8.86314 5.65078C10.142 5.56299 11.2927 4.8498 11.9413 3.74287C12.5117 2.76963 13.662 2.32373 14.7382 2.6583C15.9624 3.03887 17.2927 2.78994 18.2969 1.99238C19.1798 1.29102 20.4133 1.29102 21.2965 1.99238C22.3006 2.78984 23.6307 3.03896 24.8551 2.6583C25.9317 2.32363 27.0818 2.76973 27.652 3.74287C28.3006 4.84971 29.4513 5.56289 30.7302 5.65078C31.8547 5.72803 32.7662 6.55986 32.9468 7.67363C33.1522 8.94023 33.9679 10.0214 35.1286 10.5658C36.1494 11.0444 36.6991 12.1497 36.4656 13.2536C36.2 14.5089 36.5704 15.812 37.4564 16.7394C38.2351 17.5548 38.3489 18.7843 37.7328 19.7292Z" fill="#F2F2F2"/>
<path d="M30.1272 16.7266C29.9412 16.1537 29.4326 15.7696 28.8312 15.748L23.0949 15.542L21.1265 10.1443C20.9202 9.57852 20.3981 9.21289 19.7964 9.21289C19.1947 9.21289 18.6726 9.57852 18.4662 10.1443L16.4979 15.542L10.7616 15.748C10.1603 15.7696 9.65157 16.1537 9.46563 16.7266C9.27969 17.2994 9.46563 17.9096 9.93945 18.2809L14.4592 21.8228L12.8824 27.3478C12.717 27.927 12.9248 28.53 13.4117 28.8841C13.898 29.2379 14.5351 29.25 15.0347 28.9132L19.7963 25.7045L24.558 28.9131C25.057 29.2494 25.6941 29.2381 26.181 28.8839C26.6679 28.5299 26.8756 27.9269 26.7102 27.3476L25.1334 21.8227L29.6532 18.2808C30.1271 17.9095 30.3131 17.2994 30.1272 16.7266ZM24.2066 20.6889C23.7506 21.0463 23.5587 21.6374 23.7179 22.1947L25.268 27.6258L20.5872 24.4718C20.3469 24.3099 20.0716 24.229 19.7963 24.229C19.521 24.229 19.2457 24.3099 19.0055 24.4717L14.3246 27.6257L15.8747 22.1947C16.0338 21.6372 15.842 21.0463 15.3861 20.6889L10.9429 17.2071L16.582 17.0045C17.1607 16.9837 17.6629 16.6184 17.8614 16.0739L19.7964 10.7679L21.7314 16.0739C21.93 16.6184 22.4321 16.9837 23.0108 17.0044L28.6497 17.207L24.2066 20.6889Z" fill="#F2F2F2"/>
</svg>
