<svg width="52" height="40" viewBox="0 0 52 40" fill="none" xmlns="http://www.w3.org/2000/svg">
<path d="M51.3634 8.9565C51.3634 8.78255 50.8437 4.95653 49.198 3.13044C47.2058 0.956557 45.0405 0.695687 43.9145 0.608662H43.5681C36.5522 0.0869226 26.0716 0 25.8984 0C25.8118 0 15.2446 0.0869226 8.31525 0.782609H8.0554C6.84264 0.869532 4.67727 1.1304 2.77175 3.30428C1.03939 5.13037 0.519697 9.04342 0.519697 9.21736C0.519697 9.21736 0 13.6522 0 18.0869V22.1739C0 26.5218 0.519697 30.9566 0.519697 31.0435C0.519697 31.2175 1.03939 35.0435 2.68507 36.8696C4.50401 38.9565 6.66938 39.2174 8.0553 39.3913C8.31515 39.3913 8.48842 39.3913 8.74827 39.4783C12.7326 39.8261 25.3786 40 25.8983 40C25.9848 40 36.552 40 43.568 39.2174H43.8278C45.0405 39.1305 47.2058 38.8696 49.1114 36.6956C50.8437 34.8695 51.3634 30.9565 51.3634 30.7825C51.3634 30.7825 51.8831 26.3477 51.8831 21.913V17.8261C51.8831 13.4782 51.3634 9.04342 51.3634 8.9565ZM50.1508 22.0869C50.1508 26.4348 49.6311 30.7825 49.6311 30.7825C49.4578 31.7391 48.9381 34.5216 47.8121 35.7391C46.3396 37.4782 44.6074 37.6521 43.6545 37.7391H43.3947C36.4654 38.2608 25.9848 38.2608 25.8983 38.2608C25.8117 38.2608 12.8193 38.0869 9.00811 37.6522C8.74827 37.6522 8.48842 37.5652 8.22857 37.5652C7.01591 37.4783 5.28365 37.2175 3.89773 35.6522C2.85833 34.5218 2.25205 31.7392 2.16537 30.7826C2.16537 30.6957 1.64567 26.3478 1.64567 22.087V18C1.64567 13.6522 2.16537 9.30439 2.16537 9.30439C2.25195 8.34783 2.85833 5.56529 3.89773 4.34786C5.45682 2.6087 7.10249 2.43475 8.14188 2.34783H8.40173C15.3311 1.82609 25.8116 1.73917 25.8982 1.73917C25.9847 1.73917 36.4654 1.82609 43.3946 2.34783H43.741C44.6938 2.43475 46.4261 2.6087 47.8986 4.34786C48.938 5.56529 49.4577 8.34783 49.631 9.30439C49.7175 9.47834 50.1507 13.8261 50.1507 18V22.0869H50.1508Z" fill="#F2F2F2"/>
<path d="M36.7249 20.0873L20.268 10.4351C20.0081 10.2612 19.6617 10.2612 19.4019 10.4351C19.142 10.6091 18.9688 10.87 18.9688 11.2178V30.0873C18.9688 30.4351 19.142 30.696 19.4019 30.8699C19.5751 30.9569 19.6617 30.9569 19.835 30.9569C20.0082 30.9569 20.0948 30.9569 20.2681 30.8699L36.725 21.6526C36.9849 21.4786 37.1582 21.2177 37.1582 20.8699C37.1582 20.5222 36.9848 20.2612 36.7249 20.0873ZM20.7011 28.609V12.696L34.5596 20.8698L20.7011 28.609Z" fill="#F2F2F2"/>
</svg>
