<svg width="48" height="50" viewBox="0 0 48 50" fill="none" xmlns="http://www.w3.org/2000/svg">
<g clip-path="url(#clip0_13827:4949)">
<path fill-rule="evenodd" clip-rule="evenodd" d="M46.3764 3.32566V40.8985H0.921875V3.32566C0.921875 2.23351 1.76982 1.34814 2.81581 1.34814H44.4825C45.5285 1.34814 46.3764 2.23351 46.3764 3.32566ZM0.921875 46.8311V40.8985H8.49763V48.8086H2.81581C1.76982 48.8086 0.921875 47.9232 0.921875 46.8311ZM8.49763 48.8086V40.8985H23.6491V48.8086H8.49763ZM23.6491 48.8086V40.8985H38.8006V48.8086H23.6491ZM38.8006 48.8086V40.8985H46.3764V46.8311C46.3764 47.9232 45.5285 48.8086 44.4825 48.8086H38.8006Z" stroke="#F2F2F2" stroke-width="1.6875"/>
<path fill-rule="evenodd" clip-rule="evenodd" d="M30.2796 21.1227L18.916 14.2705V27.9748L30.2796 21.1227Z" stroke="#F2F2F2" stroke-width="1.6875"/>
</g>
<defs>
<clipPath id="clip0_13827:4949">
<rect width="47.2727" height="50" fill="white"/>
</clipPath>
</defs>
</svg>
