<svg width="49" height="50" viewBox="0 0 49 50" fill="none" xmlns="http://www.w3.org/2000/svg">
<g clip-path="url(#clip0_13827:6839)">
<path d="M34.7852 0.587891V2.48801H45.8618V14.0534H47.6816V0.587891H34.7852Z" fill="#F2F2F2"/>
<path d="M45.8618 47.9394H34.7852V49.8396H47.6816V36.374H45.8618V47.9394Z" fill="#F2F2F2"/>
<path d="M2.33348 2.48801H13.41V0.587891H0.513672V14.0534H2.33348V2.48801Z" fill="#F2F2F2"/>
<path d="M2.33348 36.374H0.513672V49.8396H13.41V47.9394H2.33348V36.374Z" fill="#F2F2F2"/>
<path fill-rule="evenodd" clip-rule="evenodd" d="M35.9253 20.2219L36.447 21.913L30.296 27.2841L32.2493 35.4229L30.8845 36.4616L24.0966 32.028L17.3086 36.4616L15.9438 35.4229L17.897 27.265L11.7461 21.9004L12.2678 20.2219L20.2628 19.6709L23.2534 11.9058H24.9398L27.9302 19.6582L35.9253 20.2219ZM23.6095 30.0586H24.5801L29.9303 33.5676L28.4138 27.1894L28.6868 26.2077L33.5396 21.9768L27.2309 21.5334L26.4485 20.938L24.0948 14.8133L21.7412 20.938L20.9586 21.5524L14.65 21.9958L19.5028 26.2267L19.8001 27.1894L18.2593 33.5676L23.6095 30.0586Z" fill="#F2F2F2"/>
</g>
<defs>
<clipPath id="clip0_13827:6839">
<rect width="48.1132" height="50" fill="white" transform="translate(0.5)"/>
</clipPath>
</defs>
</svg>
