<svg width="35" height="31" viewBox="0 0 35 31" fill="none" xmlns="http://www.w3.org/2000/svg">
<g clip-path="url(#clip0_13827:5359)">
<path d="M30.0228 11.2344H14.2263C13.9514 11.2344 13.7285 11.4573 13.7285 11.7322C13.7285 12.0071 13.9514 12.2299 14.2263 12.2299H30.0228C30.2977 12.2299 30.5205 12.0071 30.5205 11.7322C30.5205 11.4573 30.2977 11.2344 30.0228 11.2344Z" fill="#F2F2F2"/>
<path d="M30.0228 15.0398H14.2263C13.9514 15.0398 13.7285 15.2627 13.7285 15.5376C13.7285 15.8125 13.9514 16.0354 14.2263 16.0354H30.0228C30.2977 16.0354 30.5205 15.8125 30.5205 15.5376C30.5205 15.2627 30.2977 15.0398 30.0228 15.0398Z" fill="#F2F2F2"/>
<path d="M30.0228 18.845H14.2263C13.9514 18.845 13.7285 19.0678 13.7285 19.3428C13.7285 19.6177 13.9514 19.8405 14.2263 19.8405H30.0228C30.2977 19.8405 30.5205 19.6177 30.5205 19.3428C30.5205 19.0678 30.2977 18.845 30.0228 18.845Z" fill="#F2F2F2"/>
<path d="M31.6041 6.88086H12.6453C11.0488 6.88086 9.75 8.17962 9.75 9.77612V21.6976C9.75 23.294 11.0488 24.5929 12.6453 24.5929H25.9336C26.0757 24.5929 26.2077 24.6568 26.2959 24.7684L30.5871 30.2011C30.7562 30.4152 31.003 30.5319 31.2614 30.5319C31.3574 30.5319 31.4551 30.5157 31.551 30.4824C31.9045 30.3596 32.133 30.0385 32.133 29.6642V24.5434C33.4754 24.2927 34.4993 23.1059 34.4993 21.6976V9.77606C34.4993 8.17962 33.2006 6.88086 31.6041 6.88086ZM33.5038 21.6976C33.5038 22.7315 32.6626 23.5834 31.6288 23.5965C31.3564 23.6 31.1373 23.8218 31.1373 24.0943V29.2915L27.0771 24.1512C26.7991 23.7991 26.3823 23.5972 25.9336 23.5972H12.6453C11.5978 23.5972 10.7456 22.745 10.7456 21.6975V9.77606C10.7456 8.72858 11.5977 7.87637 12.6453 7.87637H31.6041C32.6515 7.87637 33.5038 8.72858 33.5038 9.77606V21.6976Z" fill="#F2F2F2"/>
<path d="M7.8493 15.1115C7.50881 15.1598 7.2039 15.3351 6.99071 15.6049L3.57118 19.9341V15.5953C3.57118 15.3229 3.35215 15.1011 3.07976 15.0975C2.21487 15.0865 1.5112 14.3739 1.5112 13.5089V3.13099C1.5112 2.25468 2.22416 1.54172 3.10047 1.54172H19.6047C20.481 1.54172 21.1939 2.25468 21.1939 3.13099V5.05125C21.1939 5.32617 21.4168 5.54904 21.6917 5.54904C21.9666 5.54904 22.1895 5.32617 22.1895 5.05125V3.13099C22.1895 1.70572 21.0299 0.546143 19.6047 0.546143H3.10047C1.6752 0.546143 0.515625 1.70572 0.515625 3.13099V13.5089C0.515625 14.7479 1.40308 15.7946 2.57567 16.0393V20.4441C2.57567 20.7977 2.79151 21.1013 3.12562 21.2173C3.21622 21.2487 3.30848 21.264 3.39928 21.264C3.64332 21.264 3.87662 21.1537 4.03638 20.9515L7.77204 16.2221C7.82593 16.1538 7.90312 16.1094 7.98927 16.0972C8.26147 16.0585 8.45082 15.8065 8.41213 15.5343C8.3735 15.2621 8.12189 15.0726 7.8493 15.1115Z" fill="#F2F2F2"/>
</g>
<defs>
<clipPath id="clip0_13827:5359">
<rect width="33.9823" height="30" fill="white" transform="translate(0.515625 0.539062)"/>
</clipPath>
</defs>
</svg>
