<svg width="30" height="31" viewBox="0 0 30 31" fill="none" xmlns="http://www.w3.org/2000/svg">
<path d="M21.3906 0.539062V1.69645H28.1375V8.74109H29.246V0.539062H21.3906Z" fill="#F2F2F2"/>
<path d="M28.1375 29.3816H21.3906V30.5389H29.246V22.3369H28.1375V29.3816Z" fill="#F2F2F2"/>
<path d="M1.6241 1.69645H8.37099V0.539062H0.515625V8.74109H1.6241V1.69645Z" fill="#F2F2F2"/>
<path d="M1.6241 22.3369H0.515625V30.5389H8.37099V29.3816H1.6241V22.3369Z" fill="#F2F2F2"/>
<path fill-rule="evenodd" clip-rule="evenodd" d="M22.0794 12.4986L22.3972 13.5287L18.6506 16.8002L19.8403 21.7577L19.009 22.3904L14.8744 19.6899L10.7398 22.3904L9.90844 21.7577L11.0982 16.7887L7.35156 13.521L7.66932 12.4986L12.5392 12.163L14.3608 7.43311H15.388L17.2096 12.1553L22.0794 12.4986ZM14.5785 18.4903H15.1697L18.4286 20.6276L17.5048 16.7426L17.6711 16.1446L20.627 13.5675L16.7843 13.2974L16.3077 12.9348L14.8741 9.20415L13.4404 12.9348L12.9638 13.309L9.12109 13.5791L12.077 16.1562L12.2581 16.7426L11.3196 20.6276L14.5785 18.4903Z" fill="#F2F2F2"/>
</svg>
