<svg width="32" height="31" viewBox="0 0 32 31" fill="none" xmlns="http://www.w3.org/2000/svg">
<path d="M31.1438 15.9949C31.0844 16.2233 31.0315 16.453 30.9635 16.6785C30.7588 17.352 30.4138 17.9547 29.8877 18.4164C28.9128 19.271 28.6451 20.3017 28.8584 21.5615C29.2521 23.8927 27.7955 25.8761 25.475 26.2748C25.1829 26.3249 24.8859 26.3629 24.6024 26.4452C23.8666 26.6592 23.3398 27.1302 22.9934 27.8108C22.6412 28.5023 22.2561 29.1701 21.612 29.6446C20.3501 30.5744 18.9922 30.7469 17.5414 30.1586C17.278 30.0519 17.0253 29.9174 16.7698 29.7921C15.9688 29.3991 15.1786 29.4213 14.3684 29.7907C13.8323 30.0347 13.2826 30.2953 12.7114 30.4084C11.0265 30.7412 9.40095 29.9624 8.52843 28.4822C8.44969 28.3491 8.36595 28.2181 8.30511 28.0764C7.82841 26.9577 6.94944 26.438 5.77344 26.2705C3.37919 25.9284 1.90328 23.9385 2.2948 21.5436C2.49808 20.2996 2.26116 19.2589 1.2777 18.4321C1.2598 18.4171 1.24406 18.3985 1.22759 18.3813C-0.419388 16.6585 -0.410083 14.2771 1.26124 12.5714C1.74008 12.0826 2.23969 11.5951 2.31485 10.8829C2.36638 10.3941 2.34205 9.88515 2.26689 9.39843C1.91831 7.12658 3.40425 5.07519 5.67395 4.71158C6.10412 4.64287 6.53931 4.54409 6.94229 4.38447C7.5829 4.13038 7.96941 3.59784 8.2593 2.99302C8.89705 1.66527 9.90199 0.805633 11.3765 0.540799C11.3972 0.53722 11.4151 0.514315 11.4337 0.500716C11.8381 0.500716 12.2433 0.500716 12.6477 0.500716C13.3319 0.77915 14.0119 1.07047 14.7026 1.33315C15.3125 1.56506 15.9273 1.54431 16.5372 1.29737C17.2136 1.02394 17.8957 0.764834 18.5749 0.5C18.9557 0.5 19.3365 0.5 19.7173 0.5C20.3021 0.745508 20.9191 0.934471 21.4631 1.25012C22.2075 1.68173 22.6162 2.42899 22.9941 3.1784C23.3255 3.83476 23.8222 4.30789 24.5352 4.51832C24.8408 4.60851 25.1579 4.66362 25.4728 4.71659C27.784 5.10525 29.2764 7.14161 28.8655 9.42778C28.6458 10.6525 28.9078 11.6552 29.8232 12.5349C30.2477 12.9429 30.5469 13.4969 30.8425 14.018C31.0064 14.3079 31.0472 14.6679 31.1438 14.9957C31.1438 15.3286 31.1438 15.6621 31.1438 15.9949ZM27.4626 8.74994C27.4684 8.20524 27.3095 7.71494 27.0074 7.27045C26.5329 6.57329 25.84 6.24261 25.0283 6.14168C23.4243 5.94199 22.2733 5.12171 21.5726 3.66513C21.4903 3.49406 21.3979 3.32657 21.2934 3.16838C20.786 2.39893 20.0773 1.99596 19.1461 1.97949C18.6021 1.97019 18.1254 2.1613 17.6588 2.40752C16.8185 2.8513 15.9273 3.11971 14.9832 2.90928C14.4006 2.77972 13.8366 2.53851 13.2883 2.29371C12.6928 2.02816 12.0944 1.89933 11.4545 2.03819C10.5419 2.23645 9.96927 2.83555 9.58347 3.6501C8.8856 5.12529 7.71889 5.92695 6.10412 6.14956C4.36695 6.38934 3.46294 7.6584 3.76571 9.36837C3.9425 10.3676 3.91459 11.3503 3.38921 12.2379C3.09647 12.7325 2.70351 13.1763 2.30912 13.6C1.21901 14.7724 1.20183 16.1989 2.29337 17.3592C2.45657 17.5324 2.62692 17.6992 2.78582 17.876C3.64474 18.8365 3.98545 19.9489 3.8151 21.2337C3.7471 21.7476 3.67695 22.288 3.76356 22.789C3.96684 23.9593 4.83864 24.6643 6.17641 24.8511C7.68454 25.0623 8.80829 25.8131 9.50259 27.1824C9.60494 27.3835 9.70587 27.5868 9.82683 27.7765C10.3293 28.5646 11.0408 28.9804 11.9863 29.009C12.6384 29.0291 13.1802 28.7392 13.7328 28.4658C14.7628 27.9554 15.8243 27.8631 16.9086 28.2561C17.3195 28.4049 17.706 28.6211 18.1097 28.7943C19.3172 29.3125 20.6593 28.8824 21.3335 27.7586C21.5046 27.4737 21.6449 27.1709 21.8124 26.8839C22.3506 25.9592 23.133 25.3336 24.1587 25.0301C24.5101 24.9263 24.8773 24.8776 25.2373 24.8032C26.8499 24.4704 27.6845 23.2543 27.3861 21.6381C27.094 20.0576 27.4705 18.6963 28.6494 17.5775C28.7782 17.4551 28.8999 17.3227 29.0159 17.1874C29.8827 16.1753 29.8819 14.8068 29.0101 13.8033C28.784 13.5427 28.5291 13.308 28.3044 13.0467C27.4913 12.1026 27.157 11.0146 27.3374 9.77421C27.3875 9.43422 27.4218 9.09208 27.4626 8.74994Z" fill="#111111"/>
<path d="M21.6102 10.3398C21.535 10.45 21.427 10.6762 21.2595 10.8444C19.8709 12.2481 18.4716 13.6402 17.0758 15.0367C15.0237 17.0888 12.9709 19.1395 10.9202 21.193C10.6926 21.4213 10.4542 21.5989 10.1049 21.5072C9.58243 21.3705 9.36913 20.7836 9.69122 20.3513C9.75493 20.2661 9.83509 20.1931 9.91025 20.1172C13.3409 16.6858 16.773 13.2551 20.2023 9.82232C20.4492 9.57538 20.7026 9.38069 21.0791 9.49307C21.399 9.58826 21.6238 9.88745 21.6102 10.3398Z" fill="#111111"/>
<path d="M9.50012 10.4219C9.51587 8.67616 10.898 7.33552 12.6638 7.3527C14.3752 7.36916 15.7309 8.76921 15.7166 10.5049C15.7023 12.2242 14.2857 13.5827 12.5271 13.5649C10.8493 13.5477 9.48509 12.1312 9.50012 10.4219ZM14.2292 10.4591C14.2314 9.54081 13.5249 8.8279 12.6109 8.82575C11.6975 8.82361 10.9803 9.53508 10.9768 10.447C10.9732 11.3617 11.6839 12.0753 12.5987 12.0768C13.517 12.0789 14.2271 11.3746 14.2292 10.4591Z" fill="#111111"/>
<path d="M21.654 20.5612C21.6426 22.2905 20.2669 23.649 18.5333 23.6419C16.7968 23.6354 15.4261 22.2404 15.4376 20.4925C15.449 18.7732 16.8641 17.409 18.6206 17.4254C20.3012 17.4405 21.6648 18.8498 21.654 20.5612ZM18.564 18.9128C17.6436 18.9078 16.9292 19.6085 16.9249 20.5204C16.9206 21.4445 17.6149 22.1531 18.5333 22.161C19.4509 22.1688 20.1681 21.4667 20.1767 20.5526C20.1853 19.6372 19.4767 18.9171 18.564 18.9128Z" fill="#111111"/>
</svg>
