<svg width="21" height="19" viewBox="0 0 21 19" fill="none" xmlns="http://www.w3.org/2000/svg">
<path d="M20.329 0.818967C20.0768 0.50115 19.6991 0.326172 19.2652 0.326172C19.0294 0.326172 18.7796 0.377302 18.5228 0.478425L1.04478 7.35304C0.117235 7.71777 -0.00768658 8.2651 0.000347468 8.5589C0.00838152 8.85269 0.163234 9.39191 1.10936 9.7021C1.11503 9.70388 1.1207 9.70567 1.12638 9.70729L4.75178 10.7763L6.71241 16.5532C6.97974 17.3407 7.57977 17.83 8.27858 17.83C8.71919 17.83 9.15256 17.6397 9.53189 17.28L11.7743 15.1525L15.0269 17.8511C15.0272 17.8514 15.0277 17.8516 15.028 17.8519L15.0589 17.8775C15.0617 17.8798 15.0647 17.8822 15.0675 17.8845C15.429 18.1734 15.8237 18.326 16.2091 18.3262H16.2093C16.9625 18.3262 17.5622 17.7517 17.7369 16.8629L20.6006 2.29264C20.7156 1.70782 20.6192 1.18451 20.329 0.818967V0.818967ZM5.96461 10.5733L12.9591 6.89141L8.60388 11.6598C8.53252 11.7379 8.48195 11.8335 8.45706 11.9375L7.61727 15.4426L5.96461 10.5733ZM8.71226 16.3629C8.68328 16.3904 8.65413 16.4149 8.62499 16.4374L9.40414 13.1859L10.8214 14.3619L8.71226 16.3629ZM19.4149 2.04511L16.5511 16.6155C16.5236 16.7549 16.4355 17.0794 16.2091 17.0794C16.0973 17.0794 15.9568 17.0166 15.813 16.9025L12.1274 13.8448C12.1269 13.8443 12.1263 13.8438 12.1256 13.8435L9.93265 12.0239L16.2309 5.12816C16.4325 4.90741 16.4508 4.56931 16.2742 4.3268C16.0975 4.0843 15.7772 4.00801 15.5152 4.14598L5.15632 9.59886L1.48161 8.51556L18.9543 1.64305C19.1019 1.58494 19.2049 1.57277 19.2652 1.57277C19.3023 1.57277 19.3681 1.57731 19.3925 1.60832C19.4247 1.64873 19.4656 1.78654 19.4149 2.04511V2.04511Z" fill="#F2F2F2"/>
</svg>
