<svg width="140" height="42" viewBox="0 0 140 42" fill="none" xmlns="http://www.w3.org/2000/svg">
<path d="M139.372 8.65759C138.88 9.00669 138.436 9.51031 137.89 9.66769C136.839 9.97101 135.907 9.66197 135.386 8.5975C134.899 7.59884 135.171 6.72322 135.998 6.07366C136.902 5.36401 137.849 5.447 138.708 6.21388C138.951 6.43135 139.151 6.70319 139.369 6.94928C139.372 7.52158 139.372 8.08815 139.372 8.65759Z" fill="#F2F2F2"/>
<path d="M0.000259109 19.2422C0.277823 12.8124 3.72592 6.56577 10.8253 2.70562C17.9074 -1.14308 25.044 -0.733888 31.9946 3.34087C32.976 3.91603 33.2479 4.47116 32.833 5.60717C27.9341 19.0218 18.7287 28.0555 5.23964 32.8085C4.32397 33.1318 3.8089 32.9945 3.27666 32.136C1.12196 28.6622 -0.0197713 24.9194 0.000259109 19.2422Z" fill="#F2F2F2"/>
<path d="M4.89844 34.2455C8.33222 33.3727 11.4455 32.5916 14.5531 31.7875C19.3232 30.5485 24.2049 29.6185 28.8262 27.9645C35.5278 25.5637 39.3221 19.8522 39.1476 13.4339C39.1276 12.6813 38.9902 11.9345 38.9044 11.1418C41.5856 14.6872 42.7645 22.3102 40.1405 28.4825C36.7983 36.343 30.7663 40.8155 22.2648 41.5251C15.4831 42.0946 9.76297 39.5621 4.89844 34.2455Z" fill="#F2F2F2"/>
<path d="M53.7223 27.9351C53.7223 30.6135 53.7252 32.9685 53.7195 35.3263C53.7166 36.8515 52.303 37.7128 51.0125 36.9345C50.7721 36.7886 50.6233 36.305 50.6291 35.9788C50.6863 30.5362 50.6148 25.0879 50.9009 19.6568C51.1355 15.2129 54.9413 11.6017 59.1964 11.2956C64.2555 10.9322 68.4876 13.8537 69.5921 18.475C70.5908 22.6585 69.1057 26.7905 65.8007 29.011C62.4585 31.2573 58.2921 31.0599 54.6294 28.4817C54.4406 28.35 54.2374 28.2442 53.7223 27.9351ZM60.1893 27.5688C63.8148 27.6432 66.5361 24.962 66.6048 21.2507C66.6734 17.4335 63.9607 14.3946 60.3953 14.3001C56.9358 14.2086 53.9484 17.2045 53.8797 20.8329C53.8082 24.7245 56.3978 27.4916 60.1893 27.5688Z" fill="#F2F2F2"/>
<path d="M97.9166 27.8752C97.9166 30.6537 97.8536 33.0602 97.9423 35.461C97.9881 36.6914 97.6476 37.1092 96.357 37.0834C95.1638 37.0605 94.8233 36.7057 94.8405 35.5382C94.9063 30.708 94.8261 25.875 94.9034 21.0448C94.9807 16.0944 97.948 12.446 102.581 11.4159C106.664 10.5088 111.054 12.6005 112.999 16.3777C115.088 20.4324 114.201 25.4543 110.891 28.3273C107.706 31.0915 102.976 31.3261 99.3988 28.8939C99.0154 28.6306 98.6348 28.3702 97.9166 27.8752ZM104.449 27.569C108.098 27.6262 110.83 24.8477 110.853 21.0591C110.876 17.4021 108.043 14.3661 104.552 14.3031C101.047 14.2402 98.1397 17.2648 98.0854 21.0276C98.0339 24.7676 100.701 27.5118 104.449 27.569Z" fill="#F2F2F2"/>
<path d="M76.3482 23.2015C77.5214 27.199 82.6864 28.8272 86.1001 26.4006C87.9944 25.0529 88.2176 25.0615 90.3151 26.6896C89.986 27.1103 89.7028 27.5824 89.3165 27.9487C86.392 30.7215 81.516 31.3567 77.8877 29.4653C74.3566 27.6225 72.365 23.6422 72.9258 19.5416C73.4924 15.3868 76.5886 12.1561 80.7577 11.3664C86.1688 10.3448 91.5684 14.6399 91.8975 20.1769C91.9547 21.1555 91.4368 21.5132 90.6928 21.8366C87.8857 23.0556 84.967 23.0441 82.0054 22.6893C80.1168 22.4604 78.2253 22.2515 76.3482 23.2015ZM76.0134 19.9737C80.2999 19.8879 84.4805 19.8049 88.7098 19.7219C88.1776 16.3597 84.884 13.9789 81.7078 14.308C78.6345 14.6199 75.8846 17.4613 76.0134 19.9737Z" fill="#F2F2F2"/>
<path d="M116.52 27.1781C117.02 26.7575 117.478 26.4227 117.87 26.0278C118.54 25.3553 119.101 25.4126 119.833 26.0106C121.33 27.2325 123.095 27.7475 125.027 27.5129C125.671 27.4356 126.449 27.3355 126.887 26.9406C127.496 26.3912 128.237 25.527 128.189 24.846C128.14 24.1564 127.327 23.2378 126.629 22.9402C125.387 22.4109 123.962 22.325 122.637 21.9588C121.685 21.6955 120.717 21.3865 119.853 20.9172C116.877 19.309 116.339 16.0469 118.531 13.4859C121.307 10.241 127.545 10.799 130.389 13.3228C130.575 13.4887 130.647 14.0382 130.515 14.2614C129.788 15.5032 128.712 15.7436 127.508 15.0254C126.014 14.1326 124.417 13.8264 122.723 14.2957C121.55 14.6219 120.583 15.26 120.5 16.5734C120.42 17.8182 121.355 18.4706 122.371 18.7968C123.765 19.2461 125.21 19.5437 126.649 19.8327C130.026 20.5108 131.774 22.4195 131.617 25.3668C131.508 27.4328 130.312 28.772 128.549 29.6504C124.735 31.5562 119.558 30.526 116.52 27.1781Z" fill="#F2F2F2"/>
<path d="M135.805 11.9165C136.824 11.9165 137.668 11.9165 138.664 11.9165C138.707 12.4058 138.778 12.8579 138.778 13.31C138.787 18.4235 138.75 23.5399 138.807 28.6533C138.821 29.8638 138.386 30.1814 137.239 30.1814C136.086 30.1814 135.674 29.858 135.688 28.6476C135.751 23.5341 135.714 18.4178 135.716 13.3043C135.719 12.8923 135.768 12.4745 135.805 11.9165Z" fill="#F2F2F2"/>
</svg>
