<svg width="176" height="27" viewBox="0 0 176 27" fill="none" xmlns="http://www.w3.org/2000/svg">
<path d="M62.2741 20.0996C63.3099 13.6947 64.3448 7.28979 65.3877 0.839347C65.5558 0.839347 65.6985 0.839347 65.8403 0.839347C68.9189 0.839347 71.9975 0.846348 75.076 0.830588C75.4595 0.828837 75.5681 0.933908 75.5751 1.31829C75.646 5.22691 75.7354 9.13466 75.8238 13.0424C75.9157 17.1104 76.0138 21.1792 76.1084 25.2472C76.1127 25.4188 76.1092 25.5904 76.1092 25.7971C75.9297 25.8067 75.7888 25.8216 75.6469 25.8216C73.8817 25.8233 72.1157 25.8102 70.3505 25.8321C69.9556 25.8365 69.8672 25.7139 69.8663 25.3365C69.861 22.4628 69.8321 19.5892 69.812 16.7146C69.7805 12.3095 69.7507 7.90358 69.7183 3.4985C69.7174 3.37417 69.6991 3.24896 69.5966 3.11937C69.4399 3.95118 69.2823 4.78211 69.1273 5.6148C67.8953 12.2342 66.6634 18.8537 65.4376 25.474C65.3894 25.7358 65.2843 25.8312 65.0085 25.8295C63.1409 25.8181 61.2733 25.819 59.4057 25.8286C59.136 25.8303 59.0318 25.7472 58.981 25.4714C58.059 20.4691 57.1248 15.4695 56.1949 10.469C55.7501 8.07607 55.3097 5.68309 54.8649 3.29011C54.8535 3.22795 54.8141 3.17016 54.7055 3.12463C54.6512 10.6687 54.5961 18.2127 54.5418 25.7901C52.4544 25.7901 50.4213 25.7901 48.3558 25.7901C48.3558 25.1982 48.3452 24.6212 48.3575 24.045C48.4346 20.2826 48.5151 16.5202 48.5965 12.7578C48.6797 8.90788 48.7664 5.0588 48.8461 1.20884C48.8513 0.965429 48.8942 0.835842 49.1823 0.836718C52.4211 0.846349 55.6608 0.844597 58.8996 0.847224C58.9276 0.847224 58.9556 0.860361 59.0484 0.883126C60.0799 7.26703 61.1157 13.6754 62.1506 20.0847C62.1909 20.0891 62.2329 20.0944 62.2741 20.0996Z" fill="#F2F2F2"/>
<path d="M145.347 0.860808C147.436 0.860808 149.445 0.860808 151.481 0.860808C151.481 9.08782 151.481 17.2938 151.481 25.541C151.338 25.548 151.196 25.562 151.055 25.562C148.385 25.5629 145.715 25.5567 143.045 25.5707C142.704 25.5725 142.578 25.4569 142.48 25.1365C140.493 18.5836 138.492 12.0342 136.492 5.48478C136.453 5.35432 136.402 5.22736 136.304 5.11528C136.304 6.21765 136.29 7.32001 136.307 8.4215C136.357 11.7172 136.418 15.0129 136.478 18.3086C136.519 20.5685 136.556 22.8293 136.617 25.0883C136.628 25.4832 136.506 25.576 136.125 25.5716C134.419 25.5515 132.711 25.5629 131.005 25.5629C130.862 25.5629 130.719 25.5629 130.539 25.5629C130.539 17.3166 130.539 9.11234 130.539 0.839795C130.696 0.839795 130.851 0.839795 131.005 0.839795C133.777 0.839795 136.549 0.845047 139.321 0.832789C139.65 0.831038 139.791 0.919473 139.889 1.25482C141.735 7.60633 143.599 13.9535 145.46 20.3006C145.496 20.4223 145.539 20.5422 145.681 20.6526C145.571 14.069 145.459 7.48462 145.347 0.860808Z" fill="#F2F2F2"/>
<path d="M117.234 0.86499C119.334 0.86499 121.387 0.86499 123.478 0.86499C123.494 0.969185 123.528 1.07863 123.528 1.18721C123.529 7.33032 123.571 13.4743 123.509 19.6174C123.472 23.3168 121.72 25.4287 118.116 26.2281C115.589 26.7885 113.037 26.7631 110.544 26.0022C107.699 25.1345 106.06 23.0112 106.037 20.0316C105.99 13.7282 106.015 7.42401 106.012 1.12067C106.012 1.04974 106.026 0.977945 106.038 0.874626C108.109 0.874626 110.171 0.874626 112.292 0.874626C112.292 1.04974 112.292 1.21873 112.292 1.38772C112.292 7.38549 112.289 13.3824 112.298 19.3801C112.299 19.7698 112.324 20.1761 112.437 20.5447C112.784 21.6794 113.873 22.2696 115.196 22.0892C116.359 21.9307 117.158 21.0779 117.224 19.9186C117.235 19.7295 117.232 19.5395 117.232 19.3495C117.232 13.3815 117.232 7.41263 117.232 1.44463C117.234 1.26951 117.234 1.09439 117.234 0.86499Z" fill="#F2F2F2"/>
<path d="M175.792 8.78312C175.049 8.78312 174.365 8.78312 173.681 8.78312C172.456 8.78312 171.23 8.76911 170.004 8.791C169.632 8.79801 169.525 8.67542 169.538 8.31731C169.556 7.80772 169.542 7.2955 169.509 6.78678C169.442 5.74046 168.82 4.93667 167.785 4.74929C167.189 4.64072 166.525 4.65561 165.938 4.80095C165.032 5.02423 164.559 5.73345 164.409 6.63968C164.352 6.98291 164.327 7.33578 164.327 7.68514C164.322 11.4642 164.32 15.2441 164.329 19.0231C164.33 19.4285 164.352 19.8479 164.46 20.2349C164.774 21.3697 165.916 21.9782 167.377 21.8372C168.604 21.719 169.516 20.9293 169.568 19.7831C169.632 18.3585 169.584 16.9278 169.584 15.4411C168.746 15.4411 167.924 15.4411 167.078 15.4411C167.078 14.2223 167.078 13.0621 167.078 11.8617C169.996 11.8617 172.902 11.8617 175.84 11.8617C175.848 12 175.863 12.1279 175.863 12.2548C175.865 14.414 175.89 16.575 175.852 18.7333C175.837 19.5887 175.762 20.4608 175.569 21.2909C175.09 23.3546 173.756 24.7468 171.807 25.4674C168.597 26.6539 165.335 26.6652 162.138 25.4455C159.705 24.5174 158.401 22.6489 158.206 20.0405C158.149 19.2709 158.12 18.4969 158.118 17.7246C158.108 14.5287 158.092 11.3328 158.127 8.13781C158.138 7.19568 158.224 6.23604 158.43 5.3193C158.926 3.10932 160.321 1.61469 162.446 0.894961C165.496 -0.137356 168.592 -0.144362 171.634 0.915098C174.25 1.82571 175.701 3.93149 175.787 6.70885C175.809 7.3778 175.792 8.04675 175.792 8.78312Z" fill="#F2F2F2"/>
<path d="M18.2379 8.05214C16.154 8.05214 14.1314 8.05214 12.065 8.05214C12.051 7.90067 12.03 7.76232 12.0282 7.6231C12.0221 7.24397 12.0378 6.86397 12.0212 6.48484C11.9599 5.04362 10.9994 4.18467 9.55555 4.25735C8.62742 4.30375 7.85078 4.61546 7.50492 5.54183C7.13805 6.52599 7.18271 7.5084 8.00401 8.24827C8.63706 8.81828 9.35416 9.31561 10.0905 9.74815C11.4722 10.5607 12.9125 11.2743 14.2951 12.0851C15.0464 12.5255 15.76 13.0456 16.4377 13.5946C17.9156 14.7915 18.8201 16.3177 18.7965 18.2676C18.7825 19.4006 18.7746 20.5538 18.5618 21.6588C18.1442 23.8293 16.7476 25.267 14.7049 25.9973C11.5361 27.1303 8.31134 27.1373 5.13734 26.0446C2.33108 25.0788 0.940649 22.98 0.789172 20.0468C0.748895 19.2763 0.783042 18.5014 0.783042 17.6827C0.917883 17.6705 1.04134 17.6503 1.16567 17.6503C3.12086 17.6486 5.07604 17.6565 7.03123 17.6416C7.37796 17.6389 7.49004 17.7379 7.47428 18.0855C7.44801 18.6678 7.48128 19.2526 7.46465 19.8358C7.40861 21.7236 8.77365 22.4389 10.2254 22.3277C12.2926 22.1701 13.3162 19.9128 12.0737 18.23C11.692 17.7125 11.185 17.2511 10.6483 16.8929C9.65624 16.2301 8.5889 15.682 7.57322 15.0525C6.17491 14.1856 4.71093 13.3958 3.42644 12.381C0.758526 10.2753 0.116721 6.34562 1.832 3.40365C2.62878 2.03686 3.84322 1.17616 5.31946 0.711221C8.25005 -0.210772 11.2165 -0.242291 14.1489 0.658688C16.8641 1.49312 18.2265 3.44831 18.2379 6.29396C18.2396 6.86397 18.2379 7.43135 18.2379 8.05214Z" fill="#F2F2F2"/>
<path d="M43.2659 25.821C43.0925 25.821 42.9524 25.821 42.8114 25.821C40.9 25.821 38.9886 25.8096 37.0781 25.8307C36.7007 25.835 36.586 25.716 36.5344 25.357C36.0983 22.3126 35.643 19.2716 35.1938 16.229C34.6194 12.3361 34.0468 8.44238 33.4733 4.54953C33.3945 4.01717 33.3166 3.48481 33.1572 2.93144C33.1266 3.05315 33.0854 3.17398 33.0662 3.29744C32.3709 7.89427 31.6766 12.492 30.984 17.0888C30.5646 19.8705 30.1452 22.6514 29.7337 25.434C29.6969 25.6827 29.6461 25.8272 29.344 25.8254C27.3013 25.814 25.2594 25.8193 23.2167 25.8175C23.1466 25.8175 23.0775 25.7965 22.9531 25.7764C24.4942 17.4662 26.0317 9.17525 27.578 0.836165C27.7373 0.836165 27.8783 0.836165 28.0201 0.836165C31.4192 0.836165 34.8191 0.842296 38.2181 0.827411C38.5937 0.82566 38.7032 0.947366 38.768 1.30285C40.2328 9.28645 41.7117 17.2683 43.1871 25.2501C43.2186 25.4191 43.2343 25.5907 43.2659 25.821Z" fill="#F2F2F2"/>
<path d="M82.2894 17.6411C84.5055 17.6411 86.6594 17.6411 88.8493 17.6411C88.8606 17.7777 88.8799 17.9038 88.8808 18.0299C88.8843 18.599 88.8808 19.1682 88.8825 19.7373C88.8878 21.3624 89.7774 22.2642 91.4016 22.252C92.2947 22.2459 93.1554 22.0602 93.5879 21.1671C94.0485 20.218 94.1685 19.1979 93.5231 18.2961C93.1248 17.7392 92.6012 17.2209 92.0259 16.854C90.6512 15.9758 89.1969 15.2254 87.8073 14.3708C86.7662 13.7308 85.733 13.0636 84.7734 12.3115C83.1124 11.0095 82.3393 9.24602 82.44 7.13936C82.4785 6.34433 82.5687 5.53178 82.7841 4.76915C83.3427 2.78682 84.727 1.5356 86.6331 0.902552C89.5961 -0.0824827 92.6082 -0.109625 95.5808 0.826377C98.1716 1.64242 99.4622 3.48466 99.5218 6.1911C99.5358 6.81714 99.5235 7.44319 99.5235 8.10338C97.4887 8.10338 95.4836 8.10338 93.4014 8.10338C93.4014 7.61392 93.4102 7.12535 93.3997 6.63765C93.3743 5.48187 92.8095 4.70522 91.8166 4.44255C90.3106 4.04328 89.0331 4.73937 88.7827 6.1228C88.6155 7.04567 88.8247 7.88799 89.5865 8.48426C90.2266 8.98597 90.9025 9.45266 91.6056 9.86068C93.0171 10.6802 94.4872 11.4026 95.8758 12.258C96.7506 12.7965 97.5684 13.4523 98.3301 14.1458C99.3677 15.0906 100.011 16.2971 100.049 17.7191C100.081 18.9519 100.099 20.2075 99.9053 21.4184C99.5533 23.6214 98.1795 25.1038 96.1149 25.8506C92.8752 27.0222 89.5813 27.0344 86.3521 25.834C83.7061 24.8499 82.419 22.8001 82.2937 20.0087C82.2596 19.2373 82.2894 18.4651 82.2894 17.6411Z" fill="#F2F2F2"/>
</svg>
