<svg width="91" height="70" viewBox="0 0 91 70" fill="none" xmlns="http://www.w3.org/2000/svg">
<path d="M90.2997 68.5191C89.6304 68.5137 88.9602 68.4933 88.2909 68.5084C87.9856 68.5146 87.7743 68.4196 87.5826 68.18C86.3549 66.6505 85.1149 65.1318 83.8801 63.6076C83.8056 63.5162 83.7505 63.4079 83.6689 63.3236C83.5987 63.2517 83.5064 63.162 83.4185 63.1549C83.2863 63.1452 83.178 63.2473 83.138 63.3786C83.1043 63.4896 83.0839 63.6094 83.0839 63.7248C83.0821 65.0652 83.0848 66.4055 83.0857 67.7459C83.0857 67.864 83.091 67.9829 83.0786 68.1001C83.0519 68.3398 82.9463 68.4836 82.7102 68.4898C82.3187 68.5004 81.9246 68.472 81.534 68.4347C81.3663 68.4188 81.2544 68.2874 81.2278 68.1152C81.203 67.9607 81.1843 67.8027 81.1843 67.6465C81.1808 66.3754 81.1834 65.1042 81.1816 63.8322C81.179 61.5554 81.1745 59.2794 81.1719 57.0026C81.1719 56.865 81.171 56.7256 81.1887 56.5898C81.2189 56.3537 81.3334 56.2179 81.5678 56.2108C81.9308 56.1992 82.2957 56.2152 82.6578 56.2454C82.8753 56.2632 83.0156 56.4043 83.0413 56.6315C83.059 56.7878 83.0768 56.9449 83.0777 57.102C83.0812 58.2746 83.0812 59.4472 83.0821 60.6207C83.0821 60.7272 83.0821 60.8346 83.0821 60.9873C83.1665 60.926 83.2224 60.895 83.265 60.8515C84.6568 59.4285 86.0531 58.0092 87.4352 56.5765C87.6864 56.3155 87.9465 56.185 88.3158 56.201C88.9052 56.2268 89.4963 56.2081 90.0973 56.2081C90.1568 56.3794 90.0671 56.4824 89.9704 56.5792C89.0321 57.5227 88.0947 58.4654 87.1538 59.4064C86.5271 60.0339 85.8951 60.6562 85.2658 61.2811C85.2516 61.2953 85.2374 61.3086 85.224 61.3228C84.8663 61.6859 84.8539 61.8696 85.1797 62.2611C86.1579 63.4346 87.1396 64.6045 88.1178 65.7771C88.7241 66.5032 89.3277 67.232 89.9286 67.9625C90.06 68.1214 90.1754 68.2936 90.2979 68.4605C90.2997 68.4791 90.2997 68.4986 90.2997 68.5191Z" fill="#F2F2F2"/>
<path d="M21.3273 0.00275188C23.8412 0.00275188 26.3559 -0.000798757 28.8698 0.00719018C29.1831 0.00807784 29.5018 0.0400336 29.808 0.104833C31.096 0.377344 31.894 1.20731 32.1257 2.51572C32.1905 2.88321 32.2189 3.25869 32.2384 3.63239C32.6725 11.94 34.5747 19.8925 37.9922 27.4802C39.1631 30.0802 40.4981 32.5932 41.976 35.0307C42.1234 35.2739 42.2592 35.5286 42.3711 35.7896C42.7634 36.7039 42.7004 37.596 42.1944 38.4526C42.0693 38.6639 41.9308 38.8698 41.779 39.0633C40.1111 41.1928 38.3145 43.2078 36.3882 45.1056C36.1033 45.3861 35.7757 45.64 35.4296 45.8379C34.5011 46.3696 33.5513 46.3545 32.6104 45.8477C32.234 45.6444 31.9073 45.3763 31.6046 45.0763C27.0296 40.5279 23.1754 35.439 20.1396 29.7411C17.6205 25.0126 15.7635 20.0319 14.5092 14.8249C13.9873 12.659 13.5701 10.4727 13.2789 8.2642C12.9549 5.80893 12.7836 3.34213 12.7934 0.864669C12.7943 0.736846 12.7934 0.607248 12.8102 0.4812C12.8519 0.160755 12.9638 0.0489102 13.2834 0.0196174C13.4795 0.00186422 13.6775 0.00186422 13.8745 0.00186422C15.9747 0.000976562 18.0749 0.000976562 20.1743 0.000976562C20.5586 0.000976562 20.943 0.000976562 21.3282 0.000976562C21.3273 0.000976563 21.3273 0.00186422 21.3273 0.00275188Z" fill="#F2F2F2"/>
<path d="M45.6789 0.01087C47.8582 0.01087 50.0365 0.00909468 52.2157 0.0117577C52.6222 0.0126453 53.0208 0.083658 53.4042 0.220358C54.4446 0.593174 55.0313 1.35922 55.2612 2.41554C55.3243 2.70314 55.3571 2.99962 55.3713 3.29432C55.4716 5.44246 55.6811 7.57994 55.9891 9.70766C56.9469 16.3163 58.8536 22.64 61.7083 28.6769C62.7495 30.8792 63.9159 33.014 65.1808 35.0965C65.3584 35.3894 65.5146 35.7019 65.6344 36.0223C65.9016 36.7404 65.8581 37.4585 65.5252 38.1465C65.393 38.4199 65.2314 38.6844 65.0459 38.9241C63.2928 41.2009 61.3816 43.3384 59.3081 45.3276C58.0476 46.5375 56.259 46.5278 55.0082 45.3046C50.1847 40.5875 46.1849 35.2554 43.0728 29.2646C40.6033 24.5111 38.7508 19.5287 37.5453 14.3084C37.1086 12.4168 36.7642 10.5074 36.505 8.58299C36.2706 6.84318 36.0976 5.09804 36.0132 3.34492C35.9662 2.36849 36.2209 1.48616 36.9683 0.80355C37.5728 0.250538 38.3114 0.0286232 39.1129 0.0188589C40.345 0.00376872 41.578 0.00909467 42.81 0.00820702C43.766 0.00731936 44.7229 0.00820702 45.6789 0.00820702C45.6789 0.00909467 45.6789 0.00998234 45.6789 0.01087Z" fill="#F2F2F2"/>
<path d="M70.0105 0.00488281C72.5936 0.00488281 75.1758 0.00488281 77.7589 0.00488281C78.3217 0.00488281 78.4344 0.121166 78.4308 0.678616C78.4175 2.47346 78.3261 4.26476 78.1557 6.05073C77.8743 8.99687 77.3914 11.9093 76.7052 14.7888C75.6045 19.4082 73.989 23.8394 71.887 28.0949C71.7042 28.4659 71.5071 28.8307 71.2932 29.184C70.212 30.9682 67.8073 30.8368 66.7537 29.8302C66.4794 29.5684 66.2557 29.2728 66.0826 28.9364C63.5972 24.1013 61.7553 19.0354 60.5907 13.7228C60.1096 11.5267 59.7367 9.31288 59.4953 7.07953C59.3577 5.80662 59.2725 4.52751 59.1979 3.24928C59.1491 2.41488 59.3719 1.6435 59.9409 1.00616C60.5498 0.32444 61.3416 0.0395015 62.2346 0.0190854C62.9838 0.00221984 63.733 0.0128717 64.4822 0.0128717C66.3258 0.0119841 68.1686 0.0128717 70.0123 0.0128717C70.0105 0.0110964 70.0105 0.00754579 70.0105 0.00488281Z" fill="#F2F2F2"/>
<path d="M31.9443 68.5114C29.8148 68.5114 27.6862 68.5114 25.5567 68.5114C25.5177 68.5114 25.4777 68.5132 25.4387 68.5114C25.0845 68.499 24.9771 68.3996 24.9744 68.049C24.97 67.3788 24.9753 66.7086 24.9753 66.0384C24.9744 62.9733 24.9735 59.9074 24.9727 56.8423C24.9727 56.26 25.0304 56.2014 25.6189 56.2032C25.855 56.2041 26.0929 56.2023 26.3281 56.2236C26.6681 56.2546 26.7986 56.3825 26.8492 56.7189C26.8705 56.8645 26.8722 57.0136 26.8722 57.1609C26.8722 60.0787 26.8705 62.9964 26.8696 65.9141C26.8696 66.0624 26.8634 66.2106 26.8758 66.3571C26.898 66.6216 27.0072 66.7246 27.2673 66.7441C27.3356 66.7494 27.4048 66.7459 27.4741 66.7459C28.4399 66.7468 29.4056 66.7486 30.3714 66.7494C30.4504 66.7494 30.5294 66.753 30.6075 66.7441C30.8516 66.7175 30.9786 66.595 31.0096 66.3491C31.0229 66.2417 31.0212 66.1325 31.0212 66.0242C31.0167 63.008 31.0123 59.9917 31.0078 56.9754C31.0078 56.8574 31.0052 56.7375 31.0203 56.6212C31.054 56.3567 31.1756 56.2191 31.4384 56.2103C31.7721 56.1978 32.1094 56.2049 32.4414 56.2387C32.7539 56.2706 32.8693 56.4091 32.8977 56.7224C32.9137 56.8991 32.9119 57.0766 32.9119 57.2541C32.911 60.1524 32.9092 63.0497 32.9074 65.9479C32.9074 66.0855 32.9012 66.2248 32.9145 66.3615C32.9394 66.6234 33.0512 66.7281 33.3104 66.7459C33.3788 66.7503 33.448 66.7468 33.5173 66.7468C34.5026 66.7468 35.4888 66.745 36.4741 66.7468C37.0075 66.7485 37.1087 66.6527 37.1078 66.1094C37.1034 63.1127 37.0981 60.1168 37.0928 57.1201C37.0928 56.9523 37.0883 56.7846 37.1016 56.6177C37.1238 56.3425 37.2374 56.2174 37.5091 56.2094C37.8331 56.1996 38.1606 56.2041 38.4828 56.2369C38.7979 56.268 38.9089 56.4029 38.9364 56.7198C38.9515 56.8964 38.9515 57.074 38.9515 57.2515C38.9542 60.218 38.9542 63.1855 38.9568 66.152C38.9577 66.674 38.9648 67.1968 38.9684 67.7188C38.9693 67.7782 38.9693 67.8368 38.9684 67.8963C38.9604 68.404 38.8477 68.5141 38.331 68.5141C36.2024 68.5141 34.0729 68.5141 31.9443 68.5141C31.9443 68.5141 31.9443 68.5123 31.9443 68.5114Z" fill="#F2F2F2"/>
<path d="M56.9718 64.2505C58.0601 61.3887 59.1483 58.5278 60.2357 55.666C60.2552 55.6633 60.2748 55.6606 60.2943 55.658C61.3364 58.4931 62.359 61.3363 63.402 64.1795C63.5547 64.1626 63.5991 64.0508 63.6426 63.9443C64.5986 61.6221 65.5555 59.2991 66.5079 56.9752C66.7973 56.2704 66.9207 56.1817 67.6752 56.2039C67.9015 56.2101 68.1306 56.2092 68.3534 56.2429C68.649 56.2873 68.7182 56.4036 68.6436 56.6974C68.6055 56.8492 68.5504 56.9983 68.4892 57.143C66.8816 60.9759 65.2723 64.8088 63.6612 68.6409C63.5849 68.8219 63.4961 68.9968 63.4055 69.1894C63.2848 69.1238 63.2786 69.0092 63.2449 68.9169C62.4407 66.7155 61.6382 64.5132 60.8358 62.311C60.6875 61.9035 60.5411 61.4961 60.3911 61.0887C60.3582 60.999 60.3174 60.9111 60.2845 60.8312C60.0964 60.8179 60.1052 60.9626 60.0715 61.0505C59.7493 61.8867 59.4342 62.7255 59.1164 63.5643C58.4391 65.3512 57.7618 67.1381 57.0845 68.924C57.0464 69.0234 57.0038 69.1211 56.9398 69.2764C56.8777 69.1344 56.8333 69.0412 56.7952 68.9453C55.24 65.0485 53.6848 61.1517 52.1296 57.254C52.0346 57.0161 51.9326 56.7809 51.8509 56.5385C51.771 56.3024 51.8243 56.2243 52.0701 56.2181C52.435 56.2101 52.7998 56.2119 53.1637 56.2234C53.5197 56.2349 53.7887 56.4 53.928 56.7347C54.181 57.3436 54.4313 57.9543 54.6728 58.5686C55.382 60.375 56.0859 62.1823 56.7934 63.9895C56.828 64.0783 56.8715 64.1644 56.9105 64.2514C56.9319 64.2505 56.9523 64.2505 56.9718 64.2505Z" fill="#F2F2F2"/>
<path d="M42.1386 64.6115C45.0465 61.573 47.9545 58.5346 50.8625 55.4961C51.0187 55.5875 51.0169 55.7153 51.0169 55.8441C51.0143 57.9238 51.0107 60.0036 51.0107 62.0834C51.0107 64.0052 51.0143 65.9279 51.0152 67.8497C51.0152 68.4266 50.9202 68.5252 50.3468 68.5127C50.0911 68.5074 49.8355 68.487 49.5807 68.4612C49.3348 68.4364 49.1813 68.2908 49.1511 68.0458C49.1253 67.8417 49.1165 67.6339 49.1165 67.4271C49.1138 65.081 49.1147 62.735 49.1147 60.3889C49.1147 60.2806 49.1147 60.1723 49.1147 60.0533C48.9824 60.04 48.9372 60.143 48.8759 60.2069C48.0273 61.0866 47.1823 61.9698 46.3363 62.8512C44.5281 64.7357 42.7218 66.622 40.9101 68.5039C40.6855 68.7373 40.436 68.9459 40.1884 69.1749C40.136 69.1128 40.1671 69.0018 40.1671 68.9024C40.1662 67.8674 40.1724 66.8324 40.1697 65.7974C40.1635 62.8406 40.1538 59.8838 40.1484 56.9261C40.1484 56.7894 40.1609 56.6509 40.1831 56.5151C40.2115 56.3403 40.3242 56.2169 40.4999 56.216C40.8825 56.2133 41.2669 56.2231 41.6486 56.2533C41.8865 56.2719 42.0099 56.4406 42.0276 56.6749C42.0463 56.9199 42.0658 57.1667 42.0658 57.4126C42.0684 59.6992 42.0676 61.9858 42.0676 64.2733C42.0676 64.378 42.0676 64.4836 42.0676 64.5884C42.0915 64.5964 42.1146 64.6044 42.1386 64.6115Z" fill="#F2F2F2"/>
<path d="M73.914 69.0155C70.4104 68.9844 67.6498 66.1706 67.672 62.6705C67.6933 59.4048 70.3403 56.4622 73.9726 56.4702C77.4629 56.4782 80.2546 59.3356 80.2191 62.8179C80.1853 66.2558 77.3466 69.0457 73.914 69.0155ZM78.7038 62.7513C78.7047 60.1141 76.5894 57.989 73.9558 57.9837C71.3141 57.9775 69.1668 60.1185 69.1722 62.7549C69.1775 65.377 71.3185 67.5118 73.9442 67.5127C76.5708 67.5118 78.703 65.3805 78.7038 62.7513Z" fill="#F2F2F2"/>
<path d="M7.30181 66.9771C8.27468 66.9558 9.14725 66.6682 9.92395 66.0877C10.034 66.0051 10.1379 65.9137 10.2453 65.8267C10.5116 65.6128 10.6066 65.6208 10.8409 65.8676C11.0309 66.0673 11.2279 66.2608 11.4161 66.4623C11.4898 66.5404 11.5564 66.6283 11.6096 66.7215C11.7037 66.8857 11.6895 66.9825 11.5661 67.1245C11.5209 67.176 11.4703 67.2248 11.4143 67.2647C10.4992 67.9189 9.51563 68.4222 8.40073 68.6397C6.9787 68.9167 5.63922 68.6601 4.36099 68.0166C3.23455 67.4503 2.30695 66.6656 1.69091 65.5462C1.22755 64.7038 1.01185 63.7895 0.902671 62.8415C0.81213 62.0586 0.846749 61.289 1.05091 60.5274C1.36159 59.3672 1.98739 58.4041 2.90523 57.639C4.0867 56.6545 5.44482 56.0616 6.98491 55.9364C8.10336 55.8459 9.16323 56.0953 10.145 56.6306C10.5666 56.8605 10.9554 57.1516 11.3557 57.4206C11.4445 57.4801 11.5253 57.5573 11.5963 57.6381C11.7348 57.7961 11.7357 57.9301 11.5919 58.0828C11.3557 58.3331 11.1187 58.5843 10.8675 58.8195C10.6039 59.0663 10.3784 59.0787 10.1476 58.8178C9.63546 58.2363 8.96084 57.9834 8.2374 57.8422C7.03018 57.6079 5.86646 57.7561 4.83678 58.4538C3.25941 59.5243 2.59011 61.0378 2.78362 62.9321C2.98423 64.9036 4.57137 66.4543 6.22241 66.8227C6.5757 66.9017 6.94142 66.9274 7.30181 66.9771Z" fill="#F2F2F2"/>
<path d="M15.039 68.5023C15.0922 68.3914 15.1206 68.3212 15.1579 68.2564C15.6452 67.4123 16.1219 66.5601 16.6288 65.7275C16.8675 65.3351 16.8658 64.9943 16.635 64.5984C15.1268 62.0109 13.6311 59.4162 12.1328 56.8234C12.0262 56.6388 11.9259 56.4497 11.8105 56.2402C11.8842 56.2269 11.9197 56.2145 11.9552 56.2145C12.5464 56.2145 13.1376 56.218 13.7297 56.2145C13.8921 56.2136 14.0102 56.2615 14.0945 56.4106C14.5836 57.277 15.0762 58.1407 15.5724 59.0035C16.2843 60.2418 16.9998 61.4783 17.7144 62.7157C17.7978 62.8595 17.8857 63.0006 17.9975 63.1852C18.089 63.0903 18.176 63.029 18.2239 62.9447C19.4133 60.8791 20.6019 58.8126 21.7816 56.7408C22.0062 56.3467 22.3018 56.1541 22.7678 56.1994C23.1193 56.2331 23.477 56.21 23.8312 56.2118C23.9377 56.2127 24.0434 56.2118 24.2067 56.2118C24.1526 56.3716 24.1313 56.4976 24.0718 56.6015C21.897 60.374 19.7187 64.1439 17.5413 67.9147C17.5067 67.9742 17.4711 68.0336 17.4383 68.094C17.2794 68.3967 17.0309 68.5254 16.6882 68.513C16.2551 68.4979 15.821 68.505 15.3878 68.5023C15.284 68.5023 15.1801 68.5023 15.039 68.5023Z" fill="#F2F2F2"/>
</svg>
