<svg width="140" height="49" viewBox="0 0 140 49" fill="none" xmlns="http://www.w3.org/2000/svg">
<path d="M86.4778 19.0501C83.9093 17.7639 81.3883 18.1557 79.1839 20.1701C76.7579 22.3864 75.7725 25.1923 75.7883 28.4296C75.816 34.184 75.7408 39.9384 75.8279 45.6888C75.8516 47.2204 75.44 47.6953 73.8649 47.6636C69.6975 47.5805 69.6975 47.6597 69.6975 43.6031C69.6975 35.9531 69.6659 28.303 69.7253 20.6529C69.7371 19.3034 69.3889 18.8799 67.9879 18.8878C63.7097 18.9235 63.7057 18.8601 63.7057 23.1898C63.7057 30.7725 63.6741 38.3593 63.7374 45.9421C63.7493 47.3154 63.3614 47.7032 61.9802 47.6913C57.7535 47.6636 57.7535 47.723 57.7535 43.5477C57.7535 36.3567 57.7535 29.1618 57.7535 21.9708C57.7535 18.8166 57.7535 18.8166 54.2312 18.9987C55.0465 20.7954 56.0121 22.4853 56.2377 24.4166C56.2892 24.8717 56.4079 25.315 56.4673 25.7701C57.1282 30.8834 56.6493 31.4374 51.5717 31.4374C45.5245 31.4374 39.4733 31.4849 33.43 31.4018C31.8865 31.382 31.4037 31.7619 31.5699 33.3489C32.4881 42.1467 41.555 46.3972 49.2565 41.4977C50.5981 40.6428 51.1166 40.5399 51.9279 42.0636C53.5742 45.1585 53.6771 45.2693 50.4042 46.5674C42.4929 49.7058 33.8416 49.2783 28.1347 41.8736C28.0239 41.7312 27.83 41.6481 27.5767 41.466C24.3117 46.227 19.7248 48.4195 14.006 48.3285C11.5167 48.2889 9.14609 47.6597 7.14354 46.2349C5.90481 45.3524 5.37845 45.665 4.79272 46.793C4.55527 47.2481 4.24261 47.7151 3.85081 48.0356C3.11865 48.6372 2.1807 48.4314 1.39313 48.2612C0.498713 48.0673 0.934051 47.161 0.934051 46.5911C0.910305 31.6828 0.934051 16.7784 0.882602 1.87011C0.878644 0.449323 1.17547 -0.0255906 2.7031 0.00211266C6.89421 0.0852225 6.89421 0.00607032 6.89421 4.18135C6.89421 8.07564 6.89421 11.9699 6.89421 15.975C15.2329 10.6204 24.0346 14.107 28.016 20.4313C30.9842 16.636 34.6015 13.8775 39.5406 13.4738C44.2778 13.086 48.6866 13.9923 52.3632 17.1861C52.5215 17.0634 52.6759 17.0001 52.6838 16.9288C52.8817 13.9329 52.8817 13.8775 55.9607 13.9329C57.2311 13.9567 57.8049 13.7548 57.8247 12.2826C57.8485 10.6046 58.2403 8.92257 58.8854 7.33161C61.8061 0.108968 68.5775 -0.880435 74.4071 0.872787C74.882 1.01526 75.0601 1.19731 74.8622 1.69597C74.4783 2.66559 74.134 3.65103 73.766 4.62856C73.4296 5.51111 72.7251 5.27365 72.1117 5.09952C66.9708 3.62729 63.3772 7.76695 63.591 12.4963C63.6385 13.5767 64.0184 13.9567 65.1265 13.9369C68.1501 13.8735 71.1737 13.9685 74.1973 13.8894C75.4519 13.8577 76.0139 14.1664 75.8596 15.516C75.7408 16.537 75.8358 17.5779 75.8358 19.0976C77.6088 16.6043 79.3897 14.7561 81.9582 13.9131C84.1349 13.1968 86.3433 13.3353 88.5833 13.5965C90.2336 13.7865 90.4236 14.3801 89.4104 15.5714C90.0951 16.0107 90.5819 15.5595 91.0607 15.2627C96.4747 11.8908 107.069 12.8169 111.126 18.6781C111.973 19.9049 112.372 18.9155 112.836 18.3971C118.032 12.5873 125.888 12.2311 131.828 14.7798C138.976 17.847 140.333 25.1092 139.478 30.2383C139.268 31.4889 138.493 31.3978 137.622 31.3978C130.589 31.3939 123.553 31.4533 116.52 31.3543C114.771 31.3306 114.442 31.8451 114.692 33.4637C116.065 42.4475 124.831 46.326 132.687 41.28C133.934 40.4806 134.313 40.6982 134.959 41.8459C136.787 45.0872 136.823 45.3366 133.316 46.6188C126.422 49.1438 119.706 49.5356 113.682 44.3669C110.243 41.4146 108.767 37.5005 108.379 33.1352C108.264 31.8569 107.952 31.386 106.551 31.4097C101.228 31.5047 95.9009 31.5007 90.5779 31.4137C89.1017 31.3899 88.8563 31.9123 88.9434 33.2183C89.5252 41.9488 98.9522 46.4012 106.701 41.4541C108.241 40.4726 108.644 40.8803 109.361 42.1863C110.979 45.1268 111.039 45.3207 107.794 46.5634C101.525 48.9617 95.2241 49.6504 89.3708 45.5344C83.2405 41.2246 81.9424 34.9399 82.7735 27.9824C83.1574 24.6739 84.4476 21.6977 86.4778 19.0501ZM6.89026 30.7923C6.89026 33.6695 6.89026 36.5467 6.89026 39.4199C6.89026 40.069 6.84276 40.6982 7.45224 41.189C12.0866 44.9527 21.4661 43.5635 23.2946 37.2353C24.3314 33.6576 24.6085 30.0285 23.7101 26.3994C22.0123 19.525 14.4849 16.3787 8.32291 19.8772C7.30976 20.4511 6.81902 21.1278 6.86255 22.3626C6.95754 25.1686 6.89026 27.9824 6.89026 30.7923ZM124.218 27.1276C126.909 27.1276 129.604 27.084 132.291 27.1474C133.494 27.1751 133.89 26.9178 133.657 25.5999C132.877 21.1516 129.394 18.2586 124.613 18.2586C120.066 18.2586 115.752 21.6384 115.016 25.7543C114.846 26.6962 114.957 27.1909 116.14 27.1513C118.835 27.0722 121.526 27.1276 124.218 27.1276ZM41.1909 27.1276C43.8187 27.1276 46.4466 27.0563 49.0705 27.1553C50.4952 27.2107 50.7129 26.7081 50.4636 25.4377C49.6008 21.0804 46.0666 18.223 41.456 18.2625C36.7702 18.3061 32.4881 21.7294 31.7915 25.9324C31.6214 26.9455 31.9934 27.1592 32.9195 27.1434C35.674 27.0999 38.4324 27.1276 41.1909 27.1276ZM98.5921 27.1276C100.951 27.1276 103.313 27.1276 105.672 27.1276C108.177 27.1276 108.395 26.807 107.608 24.3019C106.377 20.3917 102.692 17.9974 98.3229 18.2784C93.8746 18.5633 89.9843 21.7927 89.2877 25.687C89.0898 26.807 89.3431 27.1869 90.5225 27.1553C93.2097 27.0801 95.9009 27.1276 98.5921 27.1276Z" fill="#F2F2F2"/>
</svg>
