<svg width="130" height="30" viewBox="0 0 130 30" fill="none" xmlns="http://www.w3.org/2000/svg">
<path d="M52.6711 29.0987C50.2423 28.9491 48.0466 28.5951 45.9373 27.7405C45.2294 27.4527 44.9474 27.0872 45.1747 26.3448C45.4797 25.3462 45.4567 24.0024 46.1186 23.4326C46.7948 22.8513 47.8567 23.9362 48.7948 24.1664C50.7085 24.6326 52.602 25.0268 54.5847 24.6009C56.4927 24.1923 57.638 23.1908 57.9488 21.5477C58.2394 20.0254 57.4509 18.5175 55.7445 17.5966C54.6596 17.0096 53.4999 16.5491 52.3517 16.0858C51.1085 15.5851 49.9027 15.0182 48.7977 14.2556C44.1272 11.0441 44.2481 4.5492 49.1603 1.68878C53.0596 -0.584595 57.2006 -0.270927 61.3243 1.19669C61.8682 1.3895 62.0523 1.68014 61.8336 2.27582C61.4739 3.25424 61.4739 4.54632 60.8121 5.18517C60.0639 5.90746 59.0452 4.77078 58.0955 4.62977C56.5301 4.39668 54.9819 4.12618 53.4135 4.56071C51.9776 4.95783 50.8754 5.73768 50.625 7.283C50.3833 8.77364 51.1344 9.81536 52.3689 10.5952C53.9142 11.5736 55.6581 12.1031 57.3042 12.8513C59.8941 14.0283 62.1818 15.5276 62.9185 18.5146C64.1703 23.5851 60.8782 28.057 55.3387 28.8254C54.4006 28.9549 53.4481 29.021 52.6711 29.0987Z" fill="#F2F2F2"/>
<path d="M97.6308 18.4567C97.5991 24.7127 93.2049 29.1645 87.1503 29.0753C81.1129 28.9832 76.9949 24.6494 77.0553 18.448C77.1187 12.0452 81.3258 7.89267 87.6999 7.94159C93.7172 7.98188 97.6653 12.1632 97.6308 18.4567ZM92.2582 18.5919C92.3359 16.8365 92.0625 15.1732 91.0754 13.6912C89.2136 10.897 85.2683 10.8941 83.5963 13.8063C81.8381 16.8682 81.8381 20.1027 83.6222 23.1559C85.297 26.0221 89.0841 26.0336 90.9891 23.2998C91.9733 21.8811 92.3186 20.2811 92.2582 18.5919Z" fill="#F2F2F2"/>
<path d="M23.3295 19.959C21.5137 19.959 19.695 20.0252 17.882 19.936C16.636 19.8755 16.5755 20.3244 16.9007 21.3403C17.646 23.6626 19.623 25.0179 22.6906 25.1043C24.3683 25.1503 26.0431 24.9575 27.6316 24.4309C28.3597 24.1892 28.5813 24.3935 28.6906 25.0208C29.2546 28.2841 29.9654 27.6884 26.4805 28.5834C24.0489 29.2079 21.5655 29.3143 19.1022 28.7503C14.3108 27.651 11.3554 23.4698 11.6806 18.3244C11.8072 16.3158 12.236 14.3907 13.2374 12.6094C16.1612 7.40651 23.7467 6.1058 27.7064 10.2266C30.1179 12.736 30.5784 15.9043 30.3079 19.2396C30.2446 20.0252 29.7467 19.9647 29.2086 19.9619C27.2489 19.9561 25.2892 19.959 23.3295 19.959ZM21.128 16.287C22.3165 16.287 23.505 16.2698 24.6935 16.2957C25.2115 16.3072 25.4302 16.2065 25.4244 15.5964C25.4043 13.1072 23.4935 11.2655 21.0187 11.4324C18.8921 11.5763 16.8633 13.6338 16.7309 15.7201C16.6935 16.3216 17.0187 16.2957 17.4158 16.2928C18.6561 16.2842 19.8935 16.2899 21.128 16.287Z" fill="#F2F2F2"/>
<path d="M122.962 19.9384C121.143 19.9384 119.321 20.0132 117.511 19.9154C116.159 19.8406 116.104 20.4506 116.409 21.455C117.062 23.6103 119.152 24.9916 122.012 25.1211C123.698 25.196 125.365 24.9916 126.97 24.5139C127.744 24.2837 128.015 24.3672 128.222 25.1902C128.898 27.8751 128.901 27.9441 126.144 28.5427C123.114 29.1988 120.073 29.4089 117.117 28.2348C113.157 26.6607 110.916 22.8823 111.209 18.2521C111.434 14.7413 112.568 11.5903 115.621 9.52695C118.616 7.50106 121.92 7.29387 125.169 8.78739C128.317 10.2349 129.483 13.1183 129.77 16.3413C130.09 19.9327 130.015 19.9384 126.406 19.9384C125.258 19.9384 124.11 19.9384 122.962 19.9384ZM120.536 16.3039C121.635 16.3039 122.74 16.2435 123.834 16.3212C124.844 16.3931 125.051 15.9874 124.927 15.078C124.622 12.8219 123.014 11.3831 120.743 11.4147C118.544 11.4464 116.484 13.3744 116.288 15.5154C116.225 16.2061 116.527 16.3183 117.097 16.3097C118.242 16.2895 119.391 16.3039 120.536 16.3039Z" fill="#F2F2F2"/>
<path d="M66.1428 14.7248C66.1428 11.4874 66.1687 8.82558 66.1256 6.1666C66.114 5.3925 66.3615 4.93782 67.0723 4.62416C68.1601 4.14071 69.2219 3.59394 70.2809 3.05006C70.9486 2.70762 71.2392 2.84862 71.2219 3.62848C71.196 4.863 71.2478 6.10041 71.2047 7.33494C71.1788 8.05436 71.3975 8.41983 72.1687 8.32486C72.4047 8.29608 72.6464 8.32198 72.8852 8.32198C76.0219 8.32774 76.2665 8.73925 74.914 11.663C74.727 12.0687 74.4737 12.2414 74.0392 12.2328C73.4176 12.2184 72.796 12.25 72.1773 12.2212C71.5529 12.1925 71.2018 12.345 71.2104 13.0759C71.245 16.0687 71.1759 19.0644 71.268 22.0543C71.3342 24.1636 72.4593 25.0903 74.5572 24.7881C75.5586 24.6442 75.8924 24.768 75.8608 25.8442C75.7716 29.05 76.537 28.6269 72.891 29.0356C69.2421 29.4442 66.8133 27.4126 66.3385 23.8327C65.9155 20.6068 66.2752 17.3752 66.1428 14.7248Z" fill="#F2F2F2"/>
<path d="M0.606791 21.7694C0.606791 20.0141 0.59528 18.2558 0.609669 16.5004C0.644201 11.7983 3.46721 8.63568 8.14633 8.03137C8.33626 8.00835 8.52618 8.00835 8.71611 7.99108C12.7736 7.62849 12.7506 7.62274 11.5564 11.4069C11.3377 12.1004 11.0067 12.2299 10.342 12.2501C6.71036 12.3479 5.83555 13.2285 5.7895 16.8745C5.74634 20.4831 5.71756 24.0917 5.79238 27.7004C5.8154 28.8227 5.44418 29.1047 4.41685 29.0039C3.19095 28.8831 1.57369 29.5075 0.828373 28.7622C0.0859297 28.0198 0.647078 26.4169 0.609669 25.1939C0.580892 24.0486 0.606791 22.909 0.606791 21.7694Z" fill="#F2F2F2"/>
<path d="M111.939 8.08287C111.611 9.2656 111.283 10.3994 110.984 11.5418C110.854 12.0311 110.595 12.2411 110.071 12.221C109.502 12.198 108.923 12.221 108.353 12.2872C106.552 12.5001 105.559 13.5591 105.381 15.3692C104.987 19.4008 105.228 23.444 105.205 27.4813C105.2 28.5518 104.981 28.9605 103.798 28.9461C100.054 28.9029 100.04 28.9547 100.057 25.2598C100.071 22.1231 99.9736 18.9778 100.187 15.8555C100.489 11.349 103.312 8.55768 107.833 8.04546C109.151 7.89294 110.492 7.81524 111.939 8.08287Z" fill="#F2F2F2"/>
<path d="M40.7055 11.7812C40.7055 13.646 39.2868 15.0762 37.4595 15.0589C35.6609 15.0416 34.2451 13.551 34.2739 11.7064C34.3026 9.84165 35.7329 8.39706 37.5343 8.4172C39.3357 8.43734 40.7055 9.8877 40.7055 11.7812Z" fill="#F2F2F2"/>
<path d="M37.5258 22.0196C39.3531 22.0282 40.7027 23.4383 40.7085 25.3462C40.7142 27.2368 39.3531 28.6008 37.4682 28.5951C35.6322 28.5922 34.2423 27.1534 34.274 25.2886C34.3027 23.4152 35.7013 22.0109 37.5258 22.0196Z" fill="#F2F2F2"/>
</svg>
