<svg width="148" height="25" viewBox="0 0 148 25" fill="none" xmlns="http://www.w3.org/2000/svg">
<path d="M5.95112 0.203135H0.804688V24.4858H5.95112V14.6415H17.2401V24.4858H22.2205V0.203135H17.2401V10.0475H5.95112V0.203135ZM45.4624 14.1493C45.4624 18.087 43.4703 20.2199 39.818 20.2199C36.1657 20.2199 34.1735 18.087 34.1735 13.9852V0.203135H29.1931V14.1493C29.1931 21.0403 33.0114 24.978 39.818 24.978C46.6245 24.978 50.4429 21.0403 50.4429 13.9852V0.203135H45.4624V14.1493ZM93.6065 0.203135L87.962 16.9385L82.4835 0.203135H77.1711L85.8038 24.4858H89.9542L95.5986 8.57082L101.077 24.4858H105.393L113.86 0.203135H108.714L103.235 16.9385L97.5908 0.203135H93.6065ZM131.956 9.55525H122.825V4.63309H136.106V0.203135H117.845V24.4858H136.604V20.0559H122.825V13.9852H131.956V9.55525ZM142.581 0.203135H147.561V24.4858H142.581V0.203135ZM71.5266 19.3996L73.6848 24.4858H78.9972L68.2063 0.203135L68.0403 0.0390625H63.724L52.9331 24.4858H58.0795L60.2377 19.7277L60.4037 19.3996H71.5266ZM65.8821 6.27381L69.3684 14.4774L69.5345 14.9696H61.8978L62.0638 14.4774L65.8821 6.27381Z" fill="#F2F2F2"/>
</svg>
