<svg width="78" height="62" viewBox="0 0 78 62" fill="none" xmlns="http://www.w3.org/2000/svg">
<path d="M38.2976 28.6479C37.931 28.6223 37.5661 28.5763 37.1995 28.5763C31.7821 28.5711 26.3665 28.5728 20.9491 28.5728C20.649 28.5728 20.3488 28.5728 19.8066 28.5728C22.9629 25.5325 25.9333 22.6729 28.9566 19.7621C22.1274 13.1972 15.3748 6.70553 8.49609 0.0928189C8.9258 0.0672411 9.16794 0.0416628 9.41007 0.0416628C15.0253 0.0399576 20.6404 0.0314314 26.2556 0.0587144C26.6597 0.0604196 27.1645 0.229233 27.4492 0.502063C33.9903 6.74987 40.5093 13.0233 47.0299 19.2932C47.1288 19.3887 47.2141 19.4978 47.3556 19.6598C46.9566 20.0537 46.5814 20.4289 46.1978 20.7972C43.7253 23.1759 41.2476 25.5496 38.7819 27.9368C38.5722 28.1397 38.4409 28.4262 38.2738 28.6735L38.2976 28.6479Z" fill="#F2F2F2"/>
<path d="M38.2734 28.675C43.8903 28.6648 49.5055 28.6903 55.1207 28.6119C56.328 28.5948 57.1618 28.9598 58.0144 29.7902C63.6244 35.2502 69.2857 40.6573 74.9298 46.0849C75.1225 46.2708 75.3016 46.472 75.6273 46.8131C75.2129 46.8131 74.998 46.8131 74.7832 46.8131C69.11 46.8131 63.4369 46.8216 57.7637 46.7943C57.3869 46.7926 56.9179 46.6255 56.6502 46.3714C50.6599 40.6505 44.6918 34.9074 38.7219 29.1661C38.5633 29.0126 38.4371 28.8233 38.2973 28.6511C38.2956 28.6494 38.2734 28.675 38.2734 28.675Z" fill="#F2F2F2"/>
<path d="M18.6484 60.9478C18.6484 57.7881 18.6484 54.7682 18.6484 51.6989C19.3356 51.6989 19.9751 51.6989 20.71 51.6989C20.71 53.5337 20.71 55.3616 20.71 57.1879C20.7748 57.2135 20.8413 57.2408 20.9061 57.2663C21.0391 57.089 21.1892 56.9202 21.3034 56.7309C22.1372 55.348 23.0137 53.989 23.7725 52.5668C24.163 51.8353 24.6302 51.5216 25.4402 51.6409C25.8 51.6938 26.1734 51.6494 26.6168 51.6494C26.6168 54.7324 26.6168 57.7728 26.6168 60.8813C25.9756 60.8813 25.314 60.8813 24.5552 60.8813C24.5552 59.0517 24.5552 57.2271 24.5552 55.4009C24.4955 55.3804 24.4375 55.3599 24.3779 55.3412C24.2397 55.527 24.0863 55.7027 23.9669 55.9005C23.1501 57.2595 22.2941 58.5998 21.549 59.9963C21.1448 60.7517 20.6554 61.086 19.8114 60.9564C19.4567 60.9035 19.0867 60.9478 18.6484 60.9478Z" fill="#F2F2F2"/>
<path d="M68.1204 56.2573C68.1289 59.1169 66.301 60.9943 63.5045 61.0012C60.7114 61.0063 58.8067 59.1118 58.793 56.317C58.7794 53.5069 60.6517 51.6073 63.4533 51.5885C66.2925 51.5698 68.1102 53.3892 68.1204 56.2573ZM61.0678 56.3255C61.0797 57.8892 62.0261 58.8697 63.5113 58.8577C64.9743 58.8458 65.9071 57.8295 65.8969 56.259C65.8866 54.7244 64.8789 53.6706 63.4499 53.7012C62.0056 53.7302 61.0558 54.7789 61.0678 56.3255Z" fill="#F2F2F2"/>
<path d="M42.4156 61.001C39.6054 61.0147 37.7434 59.1663 37.7075 56.3322C37.6717 53.505 39.5167 51.614 42.3303 51.5884C45.1643 51.5628 46.9974 53.3788 47.0281 56.2419C47.0588 59.0691 45.1984 60.9891 42.4156 61.001ZM44.7858 56.2998C44.7943 54.7532 43.8206 53.6994 42.3849 53.6994C40.9423 53.6994 39.9635 54.7413 39.9584 56.2811C39.9533 57.8498 40.8843 58.8491 42.361 58.8576C43.8275 58.8644 44.7772 57.8635 44.7858 56.2998Z" fill="#F2F2F2"/>
<path d="M47.9453 60.9017C47.9453 60.2196 47.9453 59.5784 47.9453 58.8571C49.2106 58.7889 49.4169 57.8374 49.5311 56.8416C49.7255 55.1552 49.8943 53.4653 50.0819 51.7141C52.3362 51.7141 54.5836 51.7141 56.8856 51.7141C56.8856 54.7613 56.8856 57.7812 56.8856 60.8744C56.1728 60.8744 55.4874 60.8744 54.703 60.8744C54.703 58.5587 54.703 56.2499 54.703 53.8081C53.9152 53.8081 53.2143 53.7655 52.5271 53.8371C52.3498 53.8558 52.1077 54.2207 52.0685 54.4561C51.8536 55.7384 51.7803 57.0496 51.4938 58.3149C51.0794 60.1411 49.8176 61.0278 47.9453 60.9017Z" fill="#F2F2F2"/>
<path d="M31.5666 51.6992C31.5666 52.8093 31.5666 53.841 31.5666 54.8726C31.6348 54.8999 31.7047 54.9289 31.7729 54.9562C32.0287 54.685 32.2913 54.419 32.5386 54.1394C32.7636 53.8853 33.0245 53.6432 33.1797 53.3482C34.08 51.6498 35.5243 51.3377 37.3728 51.7692C36.174 53.1606 34.9855 54.5367 33.7561 55.9639C35.081 57.5924 36.3786 59.185 37.8076 60.9414C36.7725 60.9414 35.9353 60.9755 35.1049 60.9192C34.8781 60.9038 34.6257 60.6532 34.462 60.4486C33.7237 59.5158 33.0143 58.5592 32.2896 57.6162C32.1276 57.4048 31.94 57.2155 31.7644 57.0143C31.6894 57.0382 31.6126 57.0621 31.5376 57.0859C31.5376 58.0084 31.5393 58.9309 31.5376 59.8534C31.5359 60.9465 31.5342 60.9465 30.4156 60.9465C30.0814 60.9465 29.7455 60.9465 29.3516 60.9465C29.3516 57.8311 29.3516 54.7907 29.3516 51.6992C30.0524 51.6992 30.7174 51.6992 31.5666 51.6992Z" fill="#F2F2F2"/>
<path d="M9.49219 51.717C11.0746 51.717 12.6383 51.5823 14.1678 51.7528C15.9702 51.954 17.0615 53.4631 16.9592 55.2348C16.8569 57.0253 15.5763 58.2735 13.6852 58.3911C13.0714 58.4303 12.4524 58.3979 11.7345 58.3979C11.7345 59.2727 11.7345 60.0503 11.7345 60.8875C10.9433 60.8875 10.251 60.8875 9.49219 60.8875C9.49219 57.8318 9.49219 54.7898 9.49219 51.717ZM11.7533 56.2886C12.7644 56.0908 13.866 56.7098 14.5003 55.6765C14.7135 55.3269 14.6487 54.5084 14.3758 54.2168C13.6528 53.4444 12.6604 53.8928 11.7533 53.8315C11.7533 54.684 11.7533 55.4105 11.7533 56.2886Z" fill="#F2F2F2"/>
<path d="M70.0212 51.6604C71.4519 51.6604 72.7853 51.6263 74.1137 51.6689C76.0729 51.732 77.4064 53.0689 77.4337 54.9326C77.4627 56.9021 76.2383 58.2253 74.2296 58.3976C73.568 58.4538 72.6847 58.2901 72.3113 58.6516C71.9737 58.9773 72.1971 59.8794 72.1681 60.5291C72.1629 60.6365 72.1271 60.7439 72.0862 60.9502C71.7503 60.9502 71.4195 60.9502 71.087 60.9502C70.7528 60.9502 70.4185 60.9502 70.0195 60.9502C70.0212 57.8314 70.0212 54.7911 70.0212 51.6604ZM73.4214 53.8038C72.1817 53.8021 72.1732 53.8021 72.1817 54.8423C72.1953 56.4707 71.9873 56.232 73.6379 56.2559C73.8068 56.2576 73.9773 56.2661 74.1444 56.2439C74.9066 56.145 75.3261 55.5601 75.1897 54.7996C75.0515 54.0425 74.6304 53.8055 73.4214 53.8038Z" fill="#F2F2F2"/>
<path d="M5.12392 60.9119C4.32078 60.9119 3.67792 60.9119 2.93275 60.9119C2.91059 60.6049 2.86966 60.3082 2.86796 60.0115C2.86114 58.1989 2.8475 56.3846 2.87478 54.572C2.8833 53.9905 2.70596 53.7467 2.10062 53.7927C1.51233 53.8371 0.917224 53.803 0.253906 53.803C0.253906 53.0919 0.253906 52.432 0.253906 51.7107C2.72643 51.7107 5.20236 51.7107 7.74138 51.7107C7.74138 52.374 7.74138 53.0356 7.74138 53.7961C6.89049 53.7961 6.05495 53.7961 5.12392 53.7961C5.12392 56.2039 5.12392 58.5127 5.12392 60.9119Z" fill="#F2F2F2"/>
</svg>
