<svg width="114" height="56" viewBox="0 0 114 56" fill="none" xmlns="http://www.w3.org/2000/svg">
<path d="M74.8 55.4464C62.1686 55.4464 49.5383 55.4464 36.9069 55.4464C36.0872 55.4464 36.086 55.4452 36.086 54.6126C36.086 50.763 36.0966 46.9146 36.0743 43.0651C36.0707 42.4978 36.2434 42.3393 36.8047 42.3393C62.1251 42.3511 87.4455 42.3522 112.766 42.3381C113.365 42.3381 113.532 42.526 113.528 43.1097C113.507 46.978 113.505 50.8476 113.529 54.7159C113.533 55.3278 113.324 55.4593 112.751 55.4581C100.1 55.4428 87.4502 55.4464 74.8 55.4464ZM70.631 48.8605C70.5958 50.655 71.6574 51.9926 73.3497 52.0254C73.4718 52.0278 73.6797 52.3108 73.6903 52.4752C73.7173 52.8686 73.8617 53.053 74.261 53.0307C74.4747 53.019 74.6908 53.0201 74.9045 53.0307C75.2698 53.0483 75.4671 52.9097 75.4119 52.5198C75.352 52.0936 75.5634 52.002 75.9521 51.9914C76.6825 51.9702 77.3402 51.7013 77.797 51.1188C78.666 50.0091 78.7306 48.749 78.302 47.4666C77.925 46.338 77.0783 45.7379 75.8945 45.6451C75.5246 45.6158 75.3942 45.4737 75.3907 45.1014C75.3895 44.9722 75.1746 44.7785 75.0208 44.7315C74.8059 44.6657 74.5569 44.7162 74.3232 44.7056C73.9369 44.6892 73.6938 44.789 73.6832 45.2517C73.6809 45.3809 73.4389 45.6087 73.298 45.6158C71.6422 45.6898 70.5782 47.1178 70.631 48.8605ZM39.42 48.8511C39.42 49.8858 39.42 50.9204 39.42 51.955C39.42 53.08 39.42 53.0671 40.5415 53.0354C40.9573 53.0237 41.1487 52.8851 41.1358 52.4506C41.1158 51.787 41.1229 51.1235 41.1334 50.46C41.1546 49.1494 40.8986 49.2751 42.3595 49.2457C42.8621 49.2363 42.9971 49.4442 42.9819 49.9081C42.956 50.7266 42.9971 51.5487 42.9678 52.3672C42.949 52.8851 43.1604 53.0847 43.6583 53.0319C43.7746 53.0201 43.8943 53.019 44.0094 53.0319C44.5062 53.0882 44.6906 52.9074 44.6835 52.3778C44.6565 50.0936 44.6718 47.8107 44.6718 45.5265C44.6718 44.7033 44.6706 44.7033 43.8298 44.7045C43.7511 44.7045 43.6736 44.7115 43.5949 44.7045C43.1557 44.6681 42.9408 44.8395 42.969 45.3081C42.9948 45.7168 42.9819 46.1278 42.9713 46.5377C42.9337 48.0267 43.2895 47.8236 41.5491 47.8095C41.4082 47.8083 41.164 47.5617 41.1499 47.4126C41.1005 46.87 41.1287 46.3216 41.1287 45.7743C41.1287 44.6516 41.1287 44.6645 39.9814 44.6986C39.5703 44.7115 39.3977 44.8313 39.4083 45.2787C39.4388 46.4695 39.42 47.6603 39.42 48.8511ZM55.6861 44.7832C55.6556 44.8571 55.6274 44.8935 55.6274 44.9288C55.6203 47.4877 55.6203 50.0466 55.6086 52.6044C55.6074 52.9626 55.8059 53.0272 56.0913 53.0272C57.2645 53.026 58.4365 53.019 59.6097 53.0307C60.1593 53.0366 60.1111 52.6584 60.1111 52.3061C60.1111 51.9515 60.1546 51.5733 59.6038 51.5874C58.9978 51.6027 58.3918 51.5768 57.7859 51.5921C57.4289 51.6015 57.2938 51.4512 57.3056 51.1047C57.3196 50.6949 57.3326 50.2827 57.3009 49.8752C57.2621 49.3714 57.4923 49.2281 57.9573 49.2481C58.5551 49.2739 59.1552 49.2539 59.7318 49.2539C59.9725 47.8706 59.9396 47.8306 58.7136 47.8306C58.6349 47.8306 58.5574 47.8306 58.4787 47.8306C57.2116 47.8306 57.221 47.8306 57.3009 46.5788C57.322 46.2593 57.43 46.1231 57.7577 46.1301C58.3637 46.1431 58.9708 46.1114 59.5756 46.1384C60.117 46.1619 60.1088 45.8166 60.1111 45.4478C60.1135 45.065 60.1499 44.6927 59.5709 44.7033C58.4177 44.7233 57.2645 44.7068 56.1112 44.7127C55.9644 44.7115 55.8141 44.7597 55.6861 44.7832ZM106.365 53.026C106.774 53.026 107.185 53.0448 107.595 53.0225C108.642 52.9638 109.277 52.4588 109.545 51.4758C110.097 49.4571 109.054 47.5805 106.9 47.8283C106.861 47.833 106.807 47.8447 106.785 47.8248C106.64 47.6921 106.397 47.5617 106.382 47.4114C106.332 46.8888 106.361 46.3591 106.36 45.8319C106.36 44.6493 106.287 44.5929 105.091 44.7045C104.783 44.7338 104.648 44.836 104.649 45.1672C104.659 47.6263 104.659 50.0854 104.649 52.5445C104.648 52.905 104.796 53.0342 105.133 53.0284C105.545 53.0213 105.955 53.0272 106.365 53.026ZM88.6587 44.7573C88.4144 46.0667 88.4625 46.129 89.671 46.1313C89.7297 46.1313 89.7896 46.1384 89.8459 46.1301C90.3263 46.062 90.486 46.2546 90.4801 46.7467C90.4543 48.5987 90.4895 50.4518 90.459 52.3049C90.4496 52.871 90.6375 53.1012 91.1953 53.0319C91.2916 53.0201 91.3914 53.0213 91.4877 53.0319C92.0032 53.0871 92.2099 52.905 92.1994 52.3449C92.1653 50.5317 92.1864 48.7173 92.1876 46.9041C92.1876 46.1337 92.1888 46.1337 92.9439 46.1313C94.1476 46.129 94.1476 46.129 94.0525 44.9041C94.0502 44.8689 94.0184 44.836 93.9773 44.7573C92.2158 44.7573 90.4331 44.7573 88.6587 44.7573Z" fill="#F2F2F2"/>
<path d="M19.5076 17.0476C19.5076 17.4234 19.5076 17.6348 19.5076 17.8462C19.5076 22.1056 19.5076 26.3662 19.5076 30.6256C19.5076 31.4347 19.4912 31.4559 18.7149 31.5064C13.5736 31.8399 9.36702 36.0347 8.77162 41.1044C8.13277 46.5499 11.8109 52.1974 17.9763 53.1228C21.7683 53.6924 25.0553 52.5145 27.6507 49.669C29.4674 47.6773 29.377 44.523 27.5579 42.4902C25.7094 40.4233 22.6455 40.044 20.3767 41.6012C20.1688 41.7444 19.9703 41.9018 19.6779 42.1191C19.6779 41.5331 19.6779 41.0175 19.6779 40.502C19.6779 39.31 19.692 38.118 19.6697 36.926C19.6615 36.5138 19.8024 36.387 20.2087 36.3882C24.4916 36.3987 28.7734 36.3999 33.0563 36.3882C33.4825 36.387 33.5847 36.5561 33.5835 36.9448C33.5741 40.9893 33.5847 45.035 33.5612 49.0795C33.5601 49.3473 33.378 49.6749 33.1784 49.8722C30.0933 52.9208 26.4211 54.8515 22.0924 55.3154C14.0833 56.1738 7.80512 53.1815 3.35194 46.5018C0.986777 42.9529 0.0989593 38.9412 0.460663 34.7218C1.21695 25.8929 7.63719 19.0781 15.9846 17.4434C17.1049 17.2261 18.2593 17.1838 19.5076 17.0476Z" fill="#F2F2F2"/>
<path d="M106.201 30.3064C106.337 29.5747 106.479 28.8443 106.609 28.1115C107.242 24.5473 107.874 20.9831 108.501 17.4189C108.563 17.0643 108.752 16.9456 109.109 16.9515C110.263 16.9691 111.417 16.9879 112.569 16.9456C113.154 16.9245 113.341 17.0854 113.337 17.6937C113.311 21.9719 113.323 26.2501 113.323 30.5283C113.323 32.1889 113.309 33.8494 113.332 35.51C113.34 35.9727 113.195 36.1324 112.73 36.1136C111.949 36.0819 111.165 36.0748 110.385 36.1159C109.848 36.1441 109.728 35.928 109.73 35.4348C109.746 31.9188 109.739 28.4027 109.735 24.8867C109.735 24.626 109.697 24.3653 109.677 24.1045C109.614 24.0987 109.552 24.0916 109.49 24.0858C109.405 24.5003 109.306 24.9125 109.239 25.3306C108.688 28.7703 108.137 32.2112 107.607 35.6544C107.553 36.0067 107.423 36.1183 107.088 36.11C106.424 36.0936 105.759 36.0983 105.094 36.1077C104.784 36.1124 104.659 35.995 104.609 35.672C104.035 31.9599 103.444 28.25 102.852 24.5414C102.828 24.3899 102.756 24.2455 102.707 24.0975C102.647 24.1069 102.588 24.1163 102.528 24.1257C102.528 24.3476 102.528 24.5696 102.528 24.7927C102.528 28.3287 102.515 31.8647 102.541 35.3996C102.545 35.9703 102.374 36.1535 101.812 36.1183C101.111 36.0736 100.403 36.0725 99.7016 36.1183C99.118 36.157 98.9195 35.9809 98.9301 35.3726C98.9653 33.2634 98.943 31.1531 98.943 29.0439C98.943 25.2742 98.943 21.5033 98.943 17.7336C98.943 16.9633 98.9454 16.9621 99.7228 16.9609C100.837 16.9597 101.952 16.9726 103.065 16.955C103.469 16.948 103.649 17.0736 103.723 17.4964C104.45 21.656 105.199 25.8132 105.945 29.9693C105.966 30.0891 106.027 30.2007 106.068 30.3169C106.114 30.3111 106.157 30.3087 106.201 30.3064Z" fill="#F2F2F2"/>
<path d="M26.6202 35.0139C23.5422 30.5783 21.8358 25.7822 21.3367 20.5751C20.6251 13.1449 22.3972 6.31837 26.5803 0.0390625C30.2842 5.45874 32.0634 11.4022 32.0129 17.8623C31.9635 24.0595 30.1292 29.7328 26.6202 35.0139ZM26.5533 2.63323C24.7436 5.8545 23.4388 9.24019 22.7683 12.8654C21.9568 17.2505 22.4219 22.3367 22.9468 23.7823C22.9304 18.4307 24.0577 13.3563 26.572 8.45219C29.0746 13.3528 30.2772 18.4049 30.2607 23.7576C31.6394 16.2664 30.4674 9.22609 26.5533 2.63323ZM26.6085 21.1236C24.4923 23.2914 24.4946 31.7292 26.612 33.7714C28.6718 31.142 28.6706 23.4617 26.6085 21.1236Z" fill="#F2F2F2"/>
<path d="M65.7723 26.5157C65.7723 23.5469 65.7841 20.5782 65.7618 17.6106C65.7583 17.0915 65.9168 16.9435 66.43 16.9494C68.794 16.974 71.1591 16.9729 73.5243 16.9494C74.0328 16.9447 74.1996 17.0891 74.1972 17.6106C74.182 23.5669 74.1831 29.5233 74.196 35.4808C74.1972 35.9623 74.0504 36.1373 73.5607 36.1161C72.7997 36.0821 72.034 36.0703 71.2754 36.1197C70.6976 36.1572 70.6013 35.9118 70.6037 35.4033C70.6225 32.3758 70.6131 29.3495 70.6131 26.322C70.6131 24.1541 70.5978 21.9862 70.6236 19.8184C70.6295 19.304 70.4299 19.2042 69.9719 19.2018C69.5021 19.1995 69.3271 19.3239 69.3295 19.8254C69.3459 25.0008 69.3401 30.1762 69.3389 35.3516C69.3389 36.1056 69.3377 36.1056 68.5626 36.1068C67.8392 36.1079 67.1146 36.0809 66.3936 36.1161C65.9015 36.1408 65.7606 35.9635 65.7641 35.482C65.7806 32.4921 65.7723 29.5033 65.7723 26.5157Z" fill="#F2F2F2"/>
<path d="M96.3254 26.5509C96.3266 28.6988 96.3336 30.8467 96.3207 32.9946C96.3183 33.4209 96.2749 33.8531 96.1856 34.27C95.9449 35.3974 95.1017 36.0738 93.9215 36.0914C92.7107 36.109 91.4987 36.109 90.2868 36.0914C89.042 36.0726 88.18 35.3304 87.9804 34.1044C87.8993 33.6065 87.857 33.0956 87.8559 32.5906C87.8465 28.5285 87.8418 24.4664 87.8606 20.4055C87.8629 19.8277 87.9416 19.2358 88.0837 18.6745C88.3291 17.708 88.9833 17.1114 89.9944 17.0574C91.2404 16.9916 92.4911 16.9564 93.7383 16.9951C95.8145 17.0597 96.2796 18.3515 96.3125 19.8723C96.3606 22.0977 96.3242 24.3243 96.3254 26.5509ZM92.7718 26.5157C92.7718 26.3395 92.7718 26.1645 92.7718 25.9884C92.7718 24.0155 92.7718 22.0425 92.7694 20.0696C92.7694 19.628 92.5933 19.2675 92.1223 19.2475C91.6408 19.2264 91.4623 19.5893 91.4236 20.0226C91.4154 20.1201 91.4165 20.2176 91.4165 20.315C91.4165 24.437 91.4154 28.5591 91.4189 32.6811C91.4189 32.8748 91.3895 33.1144 91.487 33.2506C91.6408 33.4644 91.8945 33.7474 92.1024 33.7439C92.3149 33.7403 92.5662 33.4585 92.7189 33.2412C92.814 33.105 92.7694 32.8631 92.7706 32.6693C92.7729 30.6189 92.7718 28.5673 92.7718 26.5157Z" fill="#F2F2F2"/>
<path d="M48.1655 16.9567C48.9476 16.9567 49.7298 16.9672 50.5107 16.952C50.8724 16.9449 51.011 17.0612 51.0474 17.4499C51.294 20.0476 51.5782 22.6417 51.8377 25.2383C52.0515 27.3697 52.2417 29.5035 52.4531 31.6362C52.5858 32.9726 52.7256 34.3102 52.8864 35.6431C52.9275 35.986 52.8277 36.1082 52.4919 36.1046C51.6322 36.0964 50.7714 36.0905 49.9118 36.107C49.5336 36.114 49.3857 35.9484 49.3657 35.5914C49.2905 34.2679 49.1837 32.9456 49.1379 31.6221C49.1214 31.1347 48.9476 30.9844 48.4791 30.9774C47.2742 30.9586 47.2401 30.9386 47.1133 32.1059C47.0029 33.1124 46.9806 34.1294 46.9254 35.1417C46.8737 36.1035 46.8772 36.1035 45.9154 36.1035C45.2319 36.1035 44.5473 36.087 43.8638 36.1093C43.4692 36.1222 43.3412 35.9672 43.3823 35.5903C43.6489 33.1124 43.9155 30.6344 44.1668 28.1542C44.3852 26.0028 44.5767 23.8502 44.7916 21.6987C44.936 20.2449 45.1086 18.7945 45.2449 17.3407C45.2789 16.9708 45.4891 16.9543 45.7628 16.9555C46.5625 16.959 47.3634 16.9567 48.1655 16.9567ZM48.3076 19.2713C48.2172 19.2655 48.1267 19.2584 48.0363 19.2525C47.9882 19.4663 47.9107 19.6777 47.8966 19.8937C47.7005 22.7885 47.5079 25.6845 47.3341 28.5805C47.3258 28.7191 47.482 28.9833 47.583 28.9939C48.014 29.0408 48.4544 29.0138 48.9559 29.0138C48.7339 25.6916 48.5213 22.482 48.3076 19.2713Z" fill="#F2F2F2"/>
<path d="M60.6769 26.2292C60.8073 26.2621 60.9364 26.3079 61.0692 26.3255C62.4901 26.5146 63.1208 27.2192 63.1302 28.6707C63.1407 30.2138 63.1478 31.7569 63.1243 33.3C63.0984 35.0052 62.2858 36.1925 60.314 36.1091C59.2606 36.0645 58.2037 36.1091 57.148 36.0927C55.8139 36.0703 54.8908 35.2941 54.7851 33.9753C54.6771 32.6353 54.6982 31.2848 54.6571 29.939C54.6466 29.6161 54.7746 29.4857 55.1069 29.4904C55.9865 29.5045 56.8661 29.5115 57.7457 29.488C58.1556 29.4775 58.2425 29.6665 58.2366 30.0189C58.2237 30.7998 58.2331 31.5819 58.2342 32.3629C58.2342 32.539 58.2284 32.7152 58.2413 32.8902C58.2859 33.4879 58.5525 33.8344 58.9577 33.7733C59.4673 33.697 59.5824 33.3247 59.5801 32.8667C59.5718 31.441 59.5824 30.0153 59.5742 28.5885C59.5695 27.7089 59.1702 27.319 58.28 27.2908C58.1626 27.2873 58.0452 27.2849 57.9277 27.2838C56.5537 27.2697 56.3259 26.989 56.623 25.5986C56.6512 25.4647 56.899 25.3026 57.0587 25.2874C57.5038 25.2427 57.9571 25.285 58.4057 25.2639C59.1408 25.2286 59.5425 24.8681 59.5601 24.133C59.5918 22.7472 59.5765 21.3591 59.5718 19.9734C59.5707 19.5682 59.3605 19.277 58.9553 19.2476C58.5408 19.2183 58.293 19.4942 58.2765 19.897C58.2425 20.7156 58.2213 21.5364 58.2425 22.355C58.2554 22.8365 58.0945 23.0138 57.606 22.995C56.7863 22.9633 55.9642 22.9774 55.1433 22.9891C54.7969 22.995 54.643 22.8682 54.6571 22.51C54.7018 21.399 54.6924 20.2834 54.7781 19.176C54.8732 17.9335 55.6636 17.1291 56.9377 17.0504C58.2201 16.9705 59.5166 16.94 60.7955 17.041C62.3187 17.1608 63.0644 18.0016 63.1149 19.5295C63.163 20.9727 63.1536 22.4207 63.1184 23.8652C63.0926 24.935 62.4208 25.6784 61.371 25.9215C61.1396 25.9755 60.9106 26.0331 60.6804 26.0883C60.6793 26.1341 60.6781 26.181 60.6769 26.2292Z" fill="#F2F2F2"/>
<path d="M76.8162 26.5285C76.8162 23.5808 76.835 20.632 76.801 17.6843C76.7939 17.0702 76.99 16.9269 77.5678 16.9457C79.401 17.0044 81.2389 16.9692 83.0709 17.0549C84.2394 17.1101 84.9628 17.8382 85.1601 18.9902C85.2423 19.4682 85.2846 19.9579 85.2881 20.4441C85.3022 22.3959 85.3092 24.3488 85.2834 26.3018C85.2763 26.8408 85.1977 27.394 85.0532 27.913C84.7678 28.9347 84.0021 29.4949 82.9405 29.5278C82.2958 29.5477 81.6499 29.5618 81.0064 29.5384C80.5296 29.5207 80.3569 29.6863 80.3628 30.1772C80.3863 31.954 80.3581 33.7308 80.3816 35.5076C80.3875 35.9645 80.2583 36.1336 79.7874 36.1136C79.0076 36.0807 78.2231 36.0713 77.4433 36.116C76.8937 36.1477 76.8033 35.9198 76.8057 35.4337C76.8268 32.4637 76.8162 29.4961 76.8162 26.5285ZM81.7204 23.4082C81.7204 22.4523 81.7309 21.4951 81.7133 20.5392C81.7074 20.2527 81.7145 19.8827 81.5501 19.7007C81.334 19.4635 80.9535 19.3766 80.6435 19.2251C80.553 19.4494 80.3898 19.6725 80.3839 19.8992C80.3546 20.8939 80.371 21.8897 80.371 22.8844C80.371 24.2702 80.3675 25.6559 80.3734 27.0405C80.3757 27.5924 80.6458 27.7533 81.1637 27.5278C81.6687 27.3071 81.7039 26.8397 81.7121 26.3922C81.7333 25.3987 81.7204 24.4029 81.7204 23.4082Z" fill="#F2F2F2"/>
<path d="M36.181 26.4947C36.181 23.5635 36.1963 20.6335 36.1681 17.7023C36.1622 17.1069 36.336 16.9319 36.9314 16.9437C38.7494 16.9801 40.5684 16.973 42.3864 16.9472C42.9042 16.9401 43.1098 17.0599 43.1015 17.6248C43.0781 19.2102 43.1027 19.2114 41.4938 19.2114C41.1615 19.2114 40.8292 19.2102 40.4968 19.2114C39.7299 19.2137 39.7217 19.2137 39.7217 19.9994C39.7194 25.0597 39.7206 30.12 39.7194 35.1803C39.7194 36.1034 39.7182 36.1034 38.7916 36.1034C38.1657 36.1034 37.5362 36.0623 36.9162 36.1151C36.2949 36.168 36.1658 35.9143 36.1705 35.3447C36.1939 32.3959 36.181 29.4447 36.181 26.4947Z" fill="#F2F2F2"/>
<path d="M75.4117 48.803C75.4117 48.318 75.4176 47.8318 75.4105 47.3468C75.4047 47.0215 75.5855 46.8794 75.8427 47.0309C76.1257 47.1977 76.4546 47.422 76.5755 47.7015C76.8926 48.4343 76.8656 49.2187 76.5978 49.9715C76.5262 50.1747 76.3536 50.3766 76.1727 50.5C75.71 50.8135 75.4176 50.6421 75.4117 50.0842C75.4082 49.6568 75.4117 49.2305 75.4117 48.803Z" fill="#F2F2F2"/>
<path d="M73.7092 48.8481C73.7092 49.2955 73.7009 49.7441 73.7103 50.1916C73.7209 50.6778 73.4414 50.7177 73.1067 50.5533C72.9106 50.457 72.698 50.2808 72.6135 50.0871C72.233 49.2263 72.2365 48.3514 72.6687 47.5035C72.7438 47.3555 72.8859 47.2216 73.0292 47.1335C73.4919 46.847 73.6998 46.9644 73.708 47.5046C73.7162 47.9521 73.7103 48.3995 73.7092 48.8481Z" fill="#F2F2F2"/>
<path d="M106.36 50.5024C106.36 50.3462 106.339 50.1865 106.365 50.035C106.411 49.7625 106.185 49.3444 106.674 49.2845C107.143 49.227 107.68 49.1976 107.826 49.7942C107.929 50.2146 107.954 50.6832 107.883 51.1095C107.799 51.6133 107.006 51.9045 106.542 51.6485C106.45 51.598 106.384 51.436 106.373 51.3197C106.348 51.0496 106.365 50.7748 106.365 50.5024C106.364 50.5024 106.362 50.5024 106.36 50.5024Z" fill="#F2F2F2"/>
</svg>
