<svg width="163" height="29" viewBox="0 0 163 29" fill="none" xmlns="http://www.w3.org/2000/svg">
<path d="M36.5688 28.345C36.1648 28.1743 35.7084 28.2428 35.3061 28.0906C33.5447 27.4246 31.7098 27.5987 29.8892 27.5886C29.6357 27.5869 29.3813 27.5725 29.1294 27.5928C28.8463 27.6148 28.7694 27.5007 28.7736 27.2302C28.788 26.3884 28.7787 25.5466 28.7787 24.704C28.7787 22.3603 28.7787 20.0166 28.7787 17.6737C28.7787 17.5756 28.7761 17.4768 28.7804 17.3787C28.7846 17.268 28.7728 17.1395 28.9401 17.1395C29.1049 17.1395 29.1041 17.2655 29.1058 17.3779C29.1108 17.8968 29.137 18.4141 29.208 18.9296C29.5689 21.5396 30.4902 23.9036 32.3851 25.7943C34.3349 27.7399 36.7023 28.4279 39.423 27.9723C41.1962 27.6756 42.6981 26.9074 43.8078 25.4866C45.6148 23.1716 45.1246 20.0343 42.7226 18.3346C41.503 17.4708 40.1135 16.9663 38.7223 16.4693C37.0015 15.8548 35.2537 15.3105 33.6453 14.4197C31.6937 13.3387 30.3321 11.8039 29.8419 9.58017C28.7153 4.47523 32.4544 0.955021 36.0777 0.230695C36.1944 0.207029 36.4158 0.306762 36.4006 0.0405273C36.4572 0.0405273 36.513 0.0405273 36.5696 0.0405273C36.584 0.130962 36.6524 0.138569 36.7243 0.139414C37.2694 0.14026 37.8154 0.14195 38.3606 0.14195C38.4333 0.14195 38.5 0.130117 38.5136 0.0405273C38.5702 0.0405273 38.626 0.0405273 38.6826 0.0405273C38.6437 0.125046 38.6817 0.184209 38.7612 0.191816C39.5472 0.264502 40.3003 0.462276 41.017 0.788519C41.3804 0.953331 41.7363 0.840075 42.0887 0.773306C43.0547 0.589054 44.0208 0.399732 44.9784 0.179983C45.2911 0.108142 45.3342 0.202803 45.3342 0.475799C45.3283 3.59116 45.3308 6.70653 45.3275 9.82189C45.3275 9.96219 45.3976 10.1879 45.1796 10.1988C44.8981 10.2124 45.019 9.95459 45.0114 9.81766C44.9074 7.9143 44.6251 6.05235 43.7554 4.32394C42.3837 1.59652 40.1456 0.273799 37.108 0.382829C35.055 0.453824 33.3833 1.35818 32.2617 3.09419C30.8283 5.31197 31.4157 7.92782 33.6317 9.48973C34.9122 10.3915 36.3744 10.9054 37.8315 11.4261C39.6047 12.0599 41.4092 12.6169 43.0733 13.5221C44.0825 14.0715 44.9961 14.7426 45.7078 15.6562C46.6738 16.8944 47.0576 18.3228 47.0347 19.8661C47.0001 22.2098 46.2208 24.2577 44.5304 25.9236C43.1122 27.3215 41.3424 27.9622 39.4154 28.2563C39.2827 28.2766 39.1297 28.2149 39.0207 28.3442C38.2025 28.345 37.3852 28.345 36.5688 28.345Z" fill="#F2F2F2"/>
<path d="M76.3773 28.3451C76.4068 28.1202 76.2251 28.1904 76.1262 28.1819C71.9561 27.8379 68.4012 24.7099 67.6034 20.1569C67.0548 17.0238 67.6574 14.129 69.6276 11.5748C71.8394 8.70626 75.8701 7.3303 79.3498 8.35298C83.3247 9.52103 85.6321 12.2476 86.3386 16.2808C86.866 19.2906 86.2482 22.0847 84.3956 24.5595C83.5394 25.703 82.4651 26.6048 81.1712 27.2176C80.1088 27.7213 79.0083 28.127 77.8107 28.1819C77.7143 28.1862 77.5284 28.1177 77.5614 28.3451C77.1658 28.3451 76.7711 28.3451 76.3773 28.3451ZM70.8785 18.4614C70.859 19.0962 70.8987 20.0639 70.9816 21.0283C71.0821 22.2022 71.2478 23.3669 71.6383 24.4885C72.2857 26.3487 73.5146 27.5557 75.5067 27.887C76.7145 28.0881 77.9206 28.067 79.1013 27.7196C80.3192 27.3621 81.2337 26.6192 81.8355 25.4959C82.2919 24.644 82.5607 23.732 82.7145 22.7871C83.1134 20.3369 83.1151 17.8706 82.9528 15.4035C82.8844 14.3699 82.7508 13.3387 82.4626 12.3372C81.9935 10.7077 81.1931 9.34607 79.5112 8.68767C78.3237 8.22282 77.0931 8.19408 75.8515 8.32762C75.1213 8.40622 74.4147 8.60315 73.7749 8.98433C72.4945 9.74754 71.8479 10.9519 71.4701 12.3304C70.9495 14.2287 70.8869 16.176 70.8785 18.4614Z" fill="#F2F2F2"/>
<path d="M0.738281 10.0645C1.54036 10.0594 2.34329 10.0476 3.14538 10.0535C3.39724 10.0552 3.60178 9.99518 3.80716 9.84136C4.54923 9.28438 5.30314 8.74261 6.05705 8.20169C6.19989 8.09943 6.34019 7.90419 6.53205 7.98364C6.74757 8.07323 6.63769 8.30734 6.63854 8.47385C6.64361 14.6082 6.64699 20.7434 6.63431 26.8778C6.63347 27.2894 6.71123 27.4458 7.16002 27.4196C7.88097 27.3773 8.60698 27.4086 9.33046 27.4086C9.33046 27.4686 9.33046 27.5278 9.33046 27.5878C6.46612 27.5878 3.60262 27.5878 0.738281 27.5878C0.738281 27.5033 0.738281 27.4196 0.738281 27.3351C1.56657 27.4137 2.39739 27.3503 3.22652 27.3689C3.4919 27.3748 3.45894 27.1821 3.45979 27.0164C3.46063 21.5405 3.45894 16.0653 3.4657 10.5894C3.4657 10.3104 3.37949 10.2259 3.10481 10.231C2.31625 10.2454 1.52769 10.2344 0.738281 10.2335C0.738281 10.1769 0.738281 10.1203 0.738281 10.0645Z" fill="#F2F2F2"/>
<path d="M163.001 27.5857C158.053 27.5866 153.106 27.5882 148.158 27.5832C147.958 27.5832 147.658 27.6981 147.576 27.5071C147.483 27.2916 147.713 27.0837 147.872 26.9087C147.798 27.4167 147.798 27.4167 148.315 27.4167C148.861 27.4167 149.408 27.4226 149.954 27.415C150.388 27.4091 150.861 27.5333 151.18 27.0887C151.125 27.2434 151.068 27.3744 151.341 27.371C153.465 27.3448 155.595 27.4868 157.71 27.3119C159.887 27.1318 161.335 25.8624 162.157 23.8686C162.557 22.8991 162.757 21.8875 162.775 20.8386C162.779 20.6695 162.718 20.4498 163 20.4236C163.001 22.8121 163.001 25.1989 163.001 27.5857Z" fill="#F2F2F2"/>
<path d="M38.5142 0.0390625C38.5007 0.128652 38.434 0.140485 38.3613 0.140485C37.8161 0.13964 37.2701 0.138795 36.725 0.13795C36.6531 0.13795 36.5847 0.130343 36.5703 0.0390625C37.2186 0.0390625 37.8668 0.0390625 38.5142 0.0390625Z" fill="#F2F2F2"/>
<path d="M97.6149 27.5415C94.71 27.5415 91.86 27.5415 88.8984 27.5415C89.1165 27.3767 89.2576 27.4122 89.387 27.4113C89.9642 27.4071 90.5415 27.4096 91.1196 27.4096C91.6969 27.4096 91.6969 27.4096 91.6969 26.8535C91.6969 22.0232 91.6969 17.1938 91.6969 12.3636C91.6969 11.3105 91.6825 10.2574 91.7045 9.20426C91.7121 8.83322 91.6309 8.68024 91.2227 8.70475C90.6192 8.7411 90.0116 8.71743 89.4064 8.71152C89.2737 8.70983 89.1266 8.75969 88.9855 8.63207C89.0582 8.46979 89.2061 8.49599 89.332 8.49599C92.3181 8.4943 95.305 8.45627 98.2893 8.5129C99.6256 8.53825 100.97 8.63376 102.256 9.12819C105.076 10.2134 106.177 13.595 104.448 16.0131C103.567 17.2462 102.255 17.7635 100.832 18.0669C100.628 18.1109 100.425 18.159 100.223 18.2097C100.205 18.214 100.198 18.2562 100.18 18.2909C101.436 18.4887 102.584 18.9121 103.423 19.9145C104.178 20.8155 104.503 21.9041 104.686 23.0383C104.841 24.0069 104.965 24.9805 105.115 25.95C105.145 26.1418 105.211 26.332 105.287 26.5112C105.691 27.451 106.696 27.5727 107.324 26.7554C107.717 26.2449 107.923 25.6474 108.083 25.0321C108.12 24.8935 108.113 24.7278 108.296 24.6467C108.409 26.212 107.014 27.8026 105.443 27.9125C104.827 27.9556 104.205 27.9903 103.606 27.7587C102.548 27.3496 102.143 26.4613 101.914 25.4547C101.655 24.3162 101.628 23.1473 101.492 21.9928C101.398 21.1975 101.28 20.4089 100.913 19.6795C100.471 18.8022 99.7405 18.3568 98.7846 18.3272C97.5887 18.29 96.3902 18.3196 95.1934 18.3086C94.9584 18.3069 94.8739 18.3805 94.8748 18.6205C94.8807 21.4426 94.8815 24.2647 94.8748 27.0868C94.8739 27.3631 95.0058 27.4147 95.239 27.4122C95.8865 27.4054 96.5347 27.4062 97.183 27.413C97.3089 27.4147 97.4577 27.3572 97.6149 27.5415ZM94.8773 13.4251C94.8773 14.8839 94.8832 16.3427 94.8722 17.8015C94.8697 18.0754 94.9508 18.1658 95.2297 18.1616C96.3133 18.1464 97.3968 18.1692 98.4795 18.148C100.022 18.1176 101.163 17.2944 101.677 15.8491C102.18 14.4343 102.189 12.9873 101.849 11.5412C101.456 9.86604 100.337 8.70729 98.2479 8.7149C97.2489 8.71828 96.2499 8.72504 95.2509 8.70898C94.9534 8.70391 94.8689 8.79857 94.8714 9.09101C94.8849 10.5363 94.8773 11.9807 94.8773 13.4251Z" fill="#F2F2F2"/>
<path d="M65.0892 15.9532C65.019 15.3193 64.981 14.7252 64.8846 14.1403C64.6353 12.6308 64.1231 11.2328 62.9855 10.1442C61.9467 9.15029 60.6688 8.75559 59.2548 8.7108C58.9607 8.7015 58.9455 8.85279 58.9463 9.07507C58.9514 10.5626 58.9489 12.051 58.9489 13.5394C58.9489 18.0036 58.9539 22.4671 58.9396 26.9314C58.9379 27.3286 59.0562 27.4351 59.4382 27.4165C60.0425 27.3861 60.6485 27.4047 61.2545 27.4114C61.383 27.4131 61.5301 27.3573 61.6923 27.5391C58.7866 27.5391 55.9383 27.5391 53.0816 27.5391C53.1221 27.3404 53.2802 27.414 53.3841 27.4131C54.0603 27.4055 54.7364 27.3979 55.4117 27.414C55.6881 27.4207 55.7726 27.3328 55.7718 27.0556C55.765 21.0615 55.7642 15.0675 55.7726 9.07338C55.7735 8.75982 55.6543 8.70995 55.3771 8.71164C53.0089 8.73024 51.1292 10.0648 50.262 12.3561C49.8808 13.3636 49.6915 14.4065 49.6611 15.4799C49.6594 15.5501 49.6611 15.6202 49.6569 15.6904C49.6518 15.7876 49.6569 15.911 49.5208 15.9042C49.405 15.8983 49.4346 15.7825 49.4295 15.7039C49.4253 15.6481 49.4287 15.5915 49.4287 15.5357C49.4287 13.3314 49.4346 11.128 49.4219 8.92378C49.4202 8.59923 49.503 8.48598 49.8436 8.48682C54.8429 8.49612 59.8414 8.49358 64.8407 8.49189C65.0689 8.49189 65.2404 8.48513 65.2388 8.81053C65.2261 11.0985 65.232 13.3864 65.2303 15.6751C65.2311 15.7529 65.2531 15.8433 65.0892 15.9532Z" fill="#F2F2F2"/>
<path d="M151.179 27.0928C150.86 27.5373 150.387 27.4131 149.952 27.419C149.406 27.4266 148.86 27.4207 148.314 27.4207C147.797 27.4207 147.797 27.4207 147.871 26.9128L147.87 26.9144C148.157 26.7733 148.287 26.5375 148.288 26.2248C148.319 26.1741 148.348 26.1233 148.379 26.0735C148.554 26.0633 148.55 25.9399 148.543 25.814L148.541 25.8165C148.737 25.8081 148.718 25.672 148.707 25.5402C148.735 25.4928 148.763 25.4464 148.791 25.399C149.042 25.3568 149.046 25.1641 149.052 24.9722C149.052 24.9722 149.05 24.9747 149.051 24.9747C149.301 24.9325 149.298 24.7389 149.307 24.5513L149.305 24.5538C149.495 24.5454 149.48 24.4127 149.471 24.2834C149.502 24.2344 149.532 24.1845 149.562 24.1355C149.846 23.9969 149.973 23.7619 149.98 23.4542L149.977 23.4568C150.234 23.4196 150.228 23.2235 150.236 23.035L150.233 23.0376C150.486 22.997 150.483 22.8026 150.489 22.6133L150.487 22.6158C150.68 22.6091 150.663 22.4738 150.654 22.3428C150.683 22.2938 150.711 22.2448 150.741 22.1958C150.991 22.1543 150.99 21.9608 150.999 21.7732L150.997 21.7749C151.186 21.7656 151.171 21.6329 151.163 21.5044C151.193 21.4545 151.223 21.4047 151.253 21.3556C151.641 21.0877 151.855 20.715 151.927 20.2552L151.924 20.2577C152.176 20.2163 152.174 20.0219 152.179 19.8335L152.177 19.836C152.37 19.8292 152.354 19.6948 152.344 19.5638C152.373 19.5148 152.403 19.4658 152.431 19.4168C152.725 19.279 152.851 19.0398 152.853 18.7263C152.883 18.6764 152.913 18.6257 152.943 18.5758C153.12 18.5665 153.116 18.4431 153.108 18.3163L153.105 18.3189C153.416 18.1896 153.528 17.9411 153.526 17.6241C153.555 17.576 153.583 17.5269 153.612 17.4788C153.91 17.3427 154.035 17.1018 154.034 16.7849C154.063 16.7358 154.092 16.686 154.122 16.637C154.413 16.4983 154.54 16.26 154.543 15.9464C154.573 15.8966 154.603 15.8459 154.633 15.796C154.81 15.7859 154.805 15.6625 154.798 15.5365L154.794 15.5391C155.095 15.4038 155.22 15.163 155.215 14.8443C155.244 14.797 155.274 14.7497 155.302 14.7015C155.596 14.5612 155.725 14.3228 155.723 14.005C155.753 13.956 155.783 13.9062 155.811 13.8571C156.102 13.7185 156.229 13.4802 156.232 13.1675C156.263 13.1167 156.292 13.066 156.323 13.0162C156.499 13.006 156.495 12.8826 156.487 12.7567C156.487 12.7567 156.484 12.7592 156.485 12.7592C156.785 12.624 156.909 12.3831 156.906 12.0645C156.935 11.9428 156.988 11.8338 157.09 11.7543C157.383 11.6909 157.413 11.4669 157.414 11.2261C157.443 11.1762 157.473 11.1272 157.502 11.0773C157.792 10.9379 157.919 10.7004 157.922 10.3876C157.952 10.3369 157.983 10.2871 158.013 10.2363C158.188 10.2262 158.185 10.102 158.177 9.97688L158.174 9.97941C158.473 9.84334 158.597 9.6033 158.595 9.28636C158.624 9.23734 158.654 9.18831 158.682 9.13929C158.755 9.13507 158.824 9.11732 158.858 9.04548C159.037 8.66514 159.36 8.61866 159.738 8.63049C160.37 8.65077 161.003 8.63556 161.635 8.63641C162.244 8.63641 162.244 8.63641 162.155 9.22804L162.156 9.22719C161.87 9.36665 161.744 9.6033 161.736 9.91264C161.705 9.9642 161.673 10.0158 161.642 10.0673C161.471 10.0808 161.476 10.2034 161.482 10.3268L161.483 10.3242C161.191 10.4595 161.068 10.6995 161.061 11.0088C161.056 11.0756 161.032 11.1306 160.969 11.1627C160.669 11.2227 160.642 11.4492 160.641 11.6918C160.612 11.7408 160.583 11.7898 160.554 11.8388C160.263 11.9732 160.141 12.2116 160.131 12.5184L160.134 12.5158C159.879 12.553 159.884 12.7491 159.875 12.9367L159.877 12.9342C159.584 13.0703 159.461 13.3095 159.455 13.6205C159.424 13.6712 159.393 13.7219 159.362 13.7726C159.188 13.7853 159.193 13.9087 159.2 14.0329L159.202 14.0304C158.949 14.0693 158.953 14.2645 158.944 14.4521L158.946 14.4496C158.698 14.4893 158.7 14.6837 158.687 14.868C158.635 14.9525 158.583 15.0362 158.531 15.1207C158.338 15.13 158.345 15.2627 158.358 15.3988C158.329 15.4469 158.3 15.496 158.272 15.5441C158.007 15.6278 157.917 15.8197 157.938 16.08C157.878 16.1814 157.818 16.2828 157.758 16.3834C157.582 16.3935 157.585 16.5169 157.593 16.6429L157.595 16.6403C157.251 16.8153 157.136 17.1297 157.082 17.4805L157.083 17.4796C156.905 17.4881 156.91 17.6123 156.918 17.7391L156.921 17.7365C156.665 17.7746 156.67 17.9707 156.663 18.1591L156.666 18.1566C156.413 18.1955 156.417 18.3907 156.408 18.5784L156.41 18.5767C156.119 18.7127 155.996 18.9519 155.987 19.2604C155.956 19.312 155.925 19.3635 155.894 19.4151C155.598 19.4759 155.57 19.7016 155.568 19.9425C155.539 19.9924 155.51 20.0422 155.481 20.0921C155.302 20.098 155.303 20.2222 155.312 20.3499L155.315 20.3473C155.118 20.3541 155.138 20.4919 155.148 20.6229C155.12 20.6702 155.092 20.7167 155.064 20.764C154.874 20.7742 154.881 20.9052 154.893 21.0404C154.863 21.0886 154.833 21.1367 154.805 21.1849C154.515 21.3235 154.388 21.5619 154.382 21.8737C154.351 21.9245 154.32 21.976 154.289 22.0267C154.116 22.0394 154.121 22.162 154.127 22.2862L154.129 22.2837C153.835 22.418 153.713 22.6589 153.707 22.9691C153.676 23.0198 153.646 23.0714 153.615 23.1221C153.271 23.2235 153.242 23.5168 153.197 23.8016L153.2 23.7991C152.906 23.9352 152.782 24.1743 152.778 24.4871C152.747 24.5378 152.717 24.5885 152.687 24.6384C152.512 24.6485 152.515 24.7719 152.521 24.897L152.523 24.8944C152.228 25.0305 152.105 25.2697 152.102 25.5833C152.072 25.634 152.043 25.6839 152.012 25.7346C151.835 25.743 151.838 25.8673 151.846 25.9932L151.848 25.9907C151.653 25.9974 151.672 26.1335 151.681 26.2645C151.619 26.3685 151.557 26.4724 151.495 26.5764C151.324 26.589 151.333 26.7124 151.335 26.8325L151.337 26.8308C151.157 26.8384 151.162 26.9626 151.171 27.0902L151.179 27.0928Z" fill="#F2F2F2"/>
<path d="M134.606 8.71723C134.608 11.7193 134.61 14.7223 134.612 17.7244C134.607 17.7937 134.603 17.863 134.598 17.9323C134.596 20.8871 134.595 23.8419 134.593 26.7966C134.593 26.9784 134.582 27.1601 134.576 27.3418C134.387 27.4001 134.196 27.4246 133.997 27.4221C133.336 27.4145 132.675 27.4026 132.015 27.4263C131.673 27.439 131.559 27.3443 131.559 26.986C131.57 21.002 131.566 15.0181 131.565 9.03417C131.565 8.86514 131.559 8.69694 131.652 8.54565C132.524 8.54565 133.396 8.54565 134.268 8.54565C134.333 8.69948 134.46 8.72737 134.606 8.71723Z" fill="#F2F2F2"/>
<path d="M115.92 8.71373C115.934 11.7158 115.822 14.7171 115.921 17.7192C115.925 17.7818 115.928 17.8451 115.932 17.9077C115.825 18.0607 115.873 18.2339 115.873 18.3987C115.867 21.3704 115.865 24.343 115.861 27.3146C115.748 27.4701 115.581 27.4161 115.433 27.4169C114.786 27.422 114.138 27.4194 113.491 27.4194C112.891 27.4194 112.891 27.4194 112.891 26.8413C112.891 20.9766 112.891 15.1127 112.891 9.24789C112.891 9.13548 112.891 9.02307 112.893 8.91151C112.897 8.74669 112.975 8.63259 113.146 8.63851C114.07 8.66978 114.999 8.54131 115.92 8.71373Z" fill="#F2F2F2"/>
<path d="M115.917 8.71162C114.996 8.5392 114.067 8.66767 113.142 8.6364C112.971 8.63048 112.893 8.74458 112.889 8.90939C112.887 9.0218 112.887 9.13421 112.887 9.24578C112.887 15.1105 112.887 20.9745 112.887 26.8392C112.887 27.4165 112.887 27.4173 113.487 27.4173C114.134 27.4173 114.782 27.4199 115.429 27.4148C115.577 27.4139 115.744 27.468 115.858 27.3125C115.989 27.3827 116.132 27.3675 116.271 27.3683C117.355 27.3683 118.439 27.3725 119.523 27.3675C122.251 27.3531 124.095 26.0253 124.991 23.4483C125.284 22.6057 125.387 21.7309 125.474 20.8511C125.487 20.7201 125.378 20.4716 125.592 20.4826C125.762 20.491 125.695 20.7412 125.695 20.8857C125.699 22.4856 125.697 24.0856 125.697 25.6855C125.697 26.1631 125.676 26.6414 125.704 27.1164C125.725 27.479 125.617 27.599 125.235 27.5965C123.067 27.5788 120.898 27.588 118.731 27.588C115.999 27.588 113.267 27.588 110.536 27.588C110.438 27.588 110.339 27.5923 110.241 27.5855C110.162 27.5804 110.045 27.61 110.033 27.5001C110.016 27.3497 110.151 27.3717 110.241 27.3708C110.93 27.3666 111.621 27.3497 112.31 27.3759C112.654 27.3886 112.731 27.266 112.731 26.9432C112.722 21.0066 112.722 15.0691 112.731 9.13252C112.732 8.80459 112.649 8.69218 112.309 8.70486C111.634 8.73106 110.957 8.71415 110.282 8.70993C110.192 8.70908 110.045 8.75134 110.035 8.62203C110.022 8.44792 110.187 8.50455 110.285 8.49525C110.397 8.48426 110.51 8.49271 110.623 8.49271C115.383 8.49271 120.141 8.49778 124.9 8.48342C125.314 8.48173 125.411 8.59921 125.407 8.99898C125.386 10.964 125.398 12.9291 125.395 14.8942C125.395 15.0421 125.44 15.1993 125.327 15.3632C125.123 15.272 125.18 15.0877 125.173 14.9415C125.115 13.6585 124.805 12.444 124.135 11.341C123.159 9.73768 121.728 8.87558 119.842 8.75895C118.534 8.67781 117.225 8.73106 115.917 8.71162Z" fill="#F2F2F2"/>
<path d="M131.648 8.54103C131.555 8.69231 131.561 8.86051 131.562 9.02954C131.563 15.0135 131.565 20.9974 131.555 26.9813C131.554 27.3397 131.668 27.4344 132.011 27.4217C132.672 27.3972 133.332 27.4099 133.993 27.4175C134.193 27.42 134.384 27.3955 134.572 27.3372C136.091 27.3828 137.618 27.4597 139.128 27.3101C141.454 27.0802 143.148 25.4727 143.815 23.0123C144.018 22.2643 144.109 21.5003 144.16 20.7295C144.167 20.6289 144.109 20.4616 144.271 20.4607C144.43 20.4599 144.384 20.6264 144.384 20.7278C144.387 22.9168 144.384 25.1059 144.389 27.2958C144.39 27.5147 144.311 27.6051 144.093 27.5865C143.981 27.5772 143.868 27.5848 143.754 27.5848C138.94 27.5848 134.125 27.5848 129.311 27.5857C129.212 27.5857 129.112 27.5966 129.016 27.5831C128.906 27.5679 128.714 27.6516 128.719 27.4623C128.724 27.3245 128.899 27.3693 129.004 27.3684C129.666 27.3642 130.328 27.3498 130.989 27.3727C131.32 27.3845 131.419 27.2822 131.419 26.9475C131.41 20.9974 131.41 15.0473 131.419 9.09716C131.42 8.76923 131.309 8.69485 131.006 8.7033C130.316 8.72274 129.626 8.71091 128.937 8.70753C128.845 8.70753 128.716 8.73288 128.711 8.59005C128.708 8.50975 128.801 8.49116 128.872 8.49285C129.796 8.51905 130.724 8.42946 131.648 8.54103Z" fill="#F2F2F2"/>
<path d="M162.161 9.2244C162.25 8.63277 162.25 8.63277 161.641 8.63277C161.008 8.63277 160.375 8.64714 159.744 8.62685C159.366 8.61502 159.044 8.66151 158.864 9.04184C158.83 9.11368 158.761 9.13143 158.688 9.13566C158.735 9.01987 158.781 8.90407 158.83 8.78237C158.716 8.65474 158.566 8.71813 158.438 8.71813C156.959 8.71306 155.48 8.73166 154.002 8.71137C150.461 8.66235 148.548 10.9444 148.04 13.9642C147.98 14.3226 147.974 14.6894 147.935 15.052C147.923 15.1627 147.992 15.3596 147.806 15.3453C147.637 15.3317 147.712 15.139 147.711 15.0275C147.705 14.0166 147.708 13.0058 147.708 11.9949C147.708 10.9841 147.73 9.97239 147.697 8.96239C147.682 8.54825 147.836 8.48655 148.199 8.48824C151.439 8.50008 154.679 8.495 157.917 8.495C159.298 8.495 160.678 8.49247 162.058 8.49838C162.219 8.49923 162.439 8.41471 162.522 8.5922C162.587 8.73081 162.408 8.86182 162.337 8.9962C162.295 9.07987 162.221 9.14918 162.161 9.2244Z" fill="#F2F2F2"/>
<path d="M134.582 8.71331C134.436 8.72345 134.309 8.69556 134.246 8.54174C134.375 8.4606 134.52 8.49356 134.659 8.49356C137.642 8.49187 140.626 8.49948 143.608 8.48342C143.989 8.48173 144.076 8.59329 144.072 8.95672C144.055 10.9488 144.064 12.9409 144.061 14.9322C144.061 15.0683 144.087 15.2103 144.005 15.3582C143.809 15.2635 143.885 15.0928 143.874 14.9592C143.775 13.6864 143.493 12.4634 142.829 11.3579C141.74 9.54413 140.078 8.7412 138.002 8.715C136.863 8.70063 135.723 8.71331 134.582 8.71331Z" fill="#F2F2F2"/>
<path d="M119.481 18.7366C119.449 18.7104 119.417 18.6842 119.384 18.658C119.286 18.3715 119.101 18.2371 118.791 18.3241C118.679 18.2844 118.567 18.2447 118.455 18.205C118.356 18.0275 118.238 17.9074 118.03 18.0706C118.003 18.0663 117.976 18.063 117.948 18.0587C117.936 17.9024 117.724 17.8272 117.779 17.6446C117.804 17.6311 117.831 17.6277 117.859 17.6353C118.177 17.7773 118.407 17.6192 118.624 17.413C118.782 17.3454 118.94 17.2786 119.098 17.211C119.293 17.2355 119.455 17.2093 119.467 16.9634C119.69 16.7124 119.914 16.4605 120.138 16.2095C120.373 16.1156 120.487 15.9618 120.39 15.7032C120.433 15.5646 120.476 15.4251 120.52 15.2865C120.682 15.2654 120.779 15.0735 120.966 15.1183C120.966 16.9152 120.966 18.7121 120.966 20.5081C120.776 20.5537 120.678 20.3551 120.512 20.3399C120.489 20.2621 120.465 20.1835 120.443 20.1058C120.585 19.7102 120.301 19.5311 120.051 19.3324C120.028 19.3003 120.003 19.269 119.979 19.2369C119.96 18.9259 119.793 18.7602 119.481 18.7366Z" fill="#F2F2F2"/>
<path d="M138.843 19.5024C138.808 19.445 138.774 19.3883 138.739 19.3309C138.716 18.9936 138.517 18.8195 138.2 18.7553C138.155 18.7215 138.11 18.6877 138.064 18.6539C138.035 18.511 138.01 18.364 137.809 18.4916C137.499 18.369 137.188 18.2465 136.879 18.1239C136.861 18.0884 136.85 18.0394 136.82 18.0183C136.736 17.9574 136.566 17.9743 136.583 17.8264C136.601 17.6768 136.779 17.7656 136.861 17.6963C136.993 17.5822 137.231 17.6363 137.301 17.4224C137.407 17.3827 137.512 17.3438 137.619 17.3041C137.861 17.3016 138.088 17.2745 138.148 16.9779C138.316 16.808 138.484 16.6389 138.652 16.4691C138.822 16.464 138.824 16.3431 138.826 16.2214L138.827 16.2189C139.075 16.1547 139.074 15.962 139.066 15.7642C139.131 15.5503 139.196 15.3365 139.261 15.1218C139.487 15.1058 139.501 15.2495 139.501 15.421C139.498 17.0193 139.498 18.6175 139.501 20.2166C139.501 20.3907 139.481 20.5293 139.257 20.5133C139.218 20.3764 139.177 20.2403 139.137 20.1034C139.25 19.8008 139.102 19.6242 138.843 19.5024Z" fill="#F2F2F2"/>
<path d="M139.262 20.5084C139.484 20.5245 139.505 20.3867 139.505 20.2118C139.503 18.6135 139.503 17.0153 139.505 15.4162C139.505 15.2446 139.491 15.1009 139.265 15.117C139.386 14.369 139.47 13.6193 139.452 12.8595C139.449 12.7538 139.418 12.5899 139.56 12.5789C139.737 12.5653 139.673 12.7395 139.673 12.8341C139.677 16.1566 139.677 19.479 139.674 22.8006C139.674 22.8885 139.726 23.0322 139.594 23.0482C139.422 23.0685 139.45 22.9071 139.453 22.8065C139.47 22.034 139.389 21.2691 139.262 20.5084Z" fill="#F2F2F2"/>
<path d="M137.305 17.4187C137.234 17.6325 136.998 17.5784 136.864 17.6925C136.783 17.7618 136.605 17.6731 136.587 17.8227C136.569 17.9706 136.739 17.9537 136.824 18.0146C136.853 18.0357 136.863 18.0839 136.883 18.1202C136.126 17.974 135.359 17.9351 134.59 17.93C134.594 17.8607 134.599 17.7914 134.604 17.7213C135.515 17.7247 136.421 17.6748 137.305 17.4187Z" fill="#F2F2F2"/>
<path d="M120.527 20.3413C120.694 20.3565 120.792 20.5543 120.981 20.5095C120.988 21.2786 120.996 22.0477 120.999 22.8169C120.999 22.9039 121.045 23.051 120.906 23.0535C120.746 23.0561 120.775 22.8997 120.777 22.7957C120.79 21.9675 120.716 21.1485 120.527 20.3413Z" fill="#F2F2F2"/>
<path d="M120.978 15.1194C120.791 15.0746 120.694 15.2665 120.531 15.2876C120.7 14.5041 120.785 13.7122 120.774 12.9101C120.772 12.8019 120.707 12.6109 120.897 12.6143C121.049 12.6168 120.995 12.7909 120.994 12.8915C120.994 13.6336 120.984 14.3765 120.978 15.1194Z" fill="#F2F2F2"/>
<path d="M117.777 17.6479C117.722 17.8314 117.934 17.9066 117.946 18.0621C117.27 18.0105 116.594 17.9598 115.918 17.9083C115.914 17.8457 115.91 17.7823 115.906 17.7198C116.529 17.6961 117.153 17.6725 117.777 17.6479Z" fill="#F2F2F2"/>
<path d="M151.916 20.2524C151.844 20.7122 151.629 21.085 151.242 21.3529C151.413 20.9539 151.647 20.5931 151.916 20.2524Z" fill="#F2F2F2"/>
<path d="M120.059 19.335C120.308 19.5327 120.593 19.7128 120.45 20.1083C120.32 19.8505 120.189 19.5927 120.059 19.335Z" fill="#F2F2F2"/>
<path d="M157.082 17.4795C157.135 17.1279 157.25 16.8135 157.595 16.6394C157.471 16.9487 157.301 17.2285 157.082 17.4795Z" fill="#F2F2F2"/>
<path d="M138.211 18.7534C138.528 18.8178 138.727 18.9922 138.751 19.33C138.571 19.1378 138.39 18.9456 138.211 18.7534Z" fill="#F2F2F2"/>
<path d="M155.718 14.0015C155.719 14.3193 155.59 14.5576 155.297 14.6979C155.385 14.4342 155.535 14.2085 155.718 14.0015Z" fill="#F2F2F2"/>
<path d="M154.383 21.871C154.389 21.5591 154.516 21.3216 154.805 21.1821C154.718 21.4441 154.567 21.6681 154.383 21.871Z" fill="#F2F2F2"/>
<path d="M161.738 9.9081C161.746 9.59877 161.873 9.36296 162.158 9.22266C162.072 9.48382 161.922 9.7061 161.738 9.9081Z" fill="#F2F2F2"/>
<path d="M155.218 14.8408C155.221 15.1595 155.097 15.4003 154.797 15.5356C154.883 15.2719 155.036 15.047 155.218 14.8408Z" fill="#F2F2F2"/>
<path d="M156.229 13.1621C156.226 13.4748 156.099 13.7132 155.809 13.8518C155.899 13.5915 156.047 13.3666 156.229 13.1621Z" fill="#F2F2F2"/>
<path d="M159.453 13.6192C159.459 13.3081 159.582 13.0689 159.875 12.9329C159.786 13.1932 159.638 13.418 159.453 13.6192Z" fill="#F2F2F2"/>
<path d="M158.585 9.28223C158.587 9.59917 158.462 9.83921 158.164 9.97528C158.252 9.71243 158.402 9.48761 158.585 9.28223Z" fill="#F2F2F2"/>
<path d="M152.785 24.4841C152.789 24.1714 152.914 23.9322 153.207 23.7961C153.117 24.0565 152.969 24.2804 152.785 24.4841Z" fill="#F2F2F2"/>
<path d="M155.988 19.2609C155.997 18.9516 156.12 18.7132 156.411 18.5771C156.32 18.8358 156.174 19.0606 155.988 19.2609Z" fill="#F2F2F2"/>
<path d="M152.84 18.7227C152.837 19.0371 152.712 19.2763 152.418 19.4132C152.509 19.1529 152.655 18.9263 152.84 18.7227Z" fill="#F2F2F2"/>
<path d="M148.278 26.2212C148.275 26.5339 148.146 26.7697 147.859 26.9109C147.947 26.6497 148.093 26.424 148.278 26.2212Z" fill="#F2F2F2"/>
<path d="M154.546 15.9424C154.544 16.2559 154.417 16.4943 154.125 16.6329C154.215 16.3717 154.362 16.1469 154.546 15.9424Z" fill="#F2F2F2"/>
<path d="M149.977 23.4463C149.969 23.7539 149.843 23.9889 149.559 24.1275C149.646 23.8689 149.787 23.6424 149.977 23.4463Z" fill="#F2F2F2"/>
<path d="M153.199 23.7996C153.244 23.5148 153.273 23.2215 153.618 23.1201C153.517 23.3703 153.389 23.6036 153.199 23.7996Z" fill="#F2F2F2"/>
<path d="M152.098 25.5846C152.101 25.2719 152.224 25.0318 152.519 24.8958C152.432 25.1578 152.281 25.3809 152.098 25.5846Z" fill="#F2F2F2"/>
<path d="M154.023 16.7827C154.024 17.0997 153.899 17.3405 153.602 17.4766C153.692 17.2146 153.841 16.9889 154.023 16.7827Z" fill="#F2F2F2"/>
<path d="M161.055 11.0054C161.062 10.6952 161.185 10.456 161.477 10.3208C161.387 10.5803 161.241 10.8051 161.055 11.0054Z" fill="#F2F2F2"/>
<path d="M160.137 12.5142C160.147 12.2066 160.269 11.9683 160.559 11.8347C160.467 12.0917 160.324 12.3165 160.137 12.5142Z" fill="#F2F2F2"/>
<path d="M118.636 17.4158C118.42 17.622 118.19 17.78 117.871 17.6381C118.126 17.5637 118.382 17.4893 118.636 17.4158Z" fill="#F2F2F2"/>
<path d="M157.92 10.3838C157.918 10.6965 157.79 10.934 157.5 11.0735C157.59 10.8131 157.737 10.5883 157.92 10.3838Z" fill="#F2F2F2"/>
<path d="M153.707 22.9689C153.714 22.6579 153.835 22.4178 154.13 22.2834C154.039 22.5429 153.893 22.7686 153.707 22.9689Z" fill="#F2F2F2"/>
<path d="M156.901 12.0605C156.905 12.3783 156.78 12.6192 156.48 12.7553C156.568 12.4924 156.72 12.2676 156.901 12.0605Z" fill="#F2F2F2"/>
<path d="M153.534 17.6228C153.537 17.9406 153.423 18.1891 153.113 18.3175C153.199 18.053 153.352 17.829 153.534 17.6228Z" fill="#F2F2F2"/>
<path d="M138.852 19.499C139.112 19.6209 139.26 19.7971 139.147 20.101C139.048 19.9004 138.95 19.6997 138.852 19.499Z" fill="#F2F2F2"/>
<path d="M118.793 18.3245C119.104 18.2382 119.288 18.3719 119.387 18.659C119.189 18.5472 118.991 18.4354 118.793 18.3245Z" fill="#F2F2F2"/>
<path d="M119.492 18.7371C119.805 18.7608 119.972 18.9267 119.992 19.24C119.825 19.0715 119.659 18.9047 119.492 18.7371Z" fill="#F2F2F2"/>
<path d="M155.578 19.9414C155.58 19.6993 155.609 19.474 155.905 19.4131C155.843 19.618 155.726 19.7899 155.578 19.9414Z" fill="#F2F2F2"/>
<path d="M160.645 11.6892C160.645 11.4462 160.672 11.2193 160.972 11.1592C160.911 11.3649 160.791 11.5351 160.645 11.6892Z" fill="#F2F2F2"/>
<path d="M138.155 16.9761C138.096 17.2733 137.868 17.3004 137.625 17.3029C137.786 17.1674 137.956 17.048 138.155 16.9761Z" fill="#F2F2F2"/>
<path d="M120.398 15.7043C120.495 15.9634 120.381 16.1184 120.145 16.2115C120.201 16.0286 120.278 15.8568 120.398 15.7043Z" fill="#F2F2F2"/>
<path d="M157.418 11.2224C157.417 11.4637 157.388 11.6881 157.094 11.7516C157.155 11.5467 157.271 11.3748 157.418 11.2224Z" fill="#F2F2F2"/>
<path d="M157.936 16.0776C157.916 15.8168 158.006 15.6246 158.271 15.5408C158.21 15.7508 158.093 15.926 157.936 16.0776Z" fill="#F2F2F2"/>
<path d="M118.031 18.0744C118.24 17.9102 118.357 18.0313 118.456 18.2091C118.306 18.1913 118.158 18.165 118.031 18.0744Z" fill="#F2F2F2"/>
<path d="M150.491 22.6079C150.485 22.7976 150.488 22.9915 150.234 23.0329C150.277 22.8653 150.355 22.7197 150.491 22.6079Z" fill="#F2F2F2"/>
<path d="M156.414 18.5773C156.423 18.3902 156.419 18.1946 156.672 18.1548C156.626 18.3199 156.55 18.4672 156.414 18.5773Z" fill="#F2F2F2"/>
<path d="M156.672 18.1592C156.679 17.9704 156.674 17.7739 156.93 17.7358C156.887 17.9035 156.806 18.0474 156.672 18.1592Z" fill="#F2F2F2"/>
<path d="M150.226 23.0298C150.218 23.2186 150.224 23.4159 149.967 23.4523C150.013 23.2872 150.086 23.1382 150.226 23.0298Z" fill="#F2F2F2"/>
<path d="M152.174 19.8291C152.168 20.0179 152.17 20.2127 151.918 20.2541C151.96 20.0865 152.039 19.9409 152.174 19.8291Z" fill="#F2F2F2"/>
<path d="M150.989 21.7686C150.98 21.9565 150.981 22.1504 150.73 22.1919C150.777 22.0276 150.851 21.8795 150.989 21.7686Z" fill="#F2F2F2"/>
<path d="M159.871 12.9339C159.88 12.7459 159.874 12.5495 160.131 12.5122C160.084 12.6773 160.009 12.8246 159.871 12.9339Z" fill="#F2F2F2"/>
<path d="M149.051 24.9688C149.045 25.1601 149.041 25.354 148.789 25.3963C148.837 25.2295 148.912 25.0797 149.051 24.9688Z" fill="#F2F2F2"/>
<path d="M139.067 15.7603C139.075 15.9584 139.076 16.1514 138.828 16.2158C138.867 16.043 138.948 15.8923 139.067 15.7603Z" fill="#F2F2F2"/>
<path d="M149.315 24.5503C149.308 24.7383 149.309 24.9322 149.059 24.9745C149.103 24.8077 149.18 24.6612 149.315 24.5503Z" fill="#F2F2F2"/>
<path d="M158.688 14.8661C158.701 14.6816 158.699 14.4868 158.947 14.447C158.899 14.6113 158.826 14.7586 158.688 14.8661Z" fill="#F2F2F2"/>
<path d="M158.941 14.4508C158.95 14.2629 158.946 14.0673 159.2 14.0283C159.156 14.1943 159.075 14.3391 158.941 14.4508Z" fill="#F2F2F2"/>
<path d="M119.464 16.9639C119.451 17.2103 119.29 17.2365 119.094 17.2119C119.2 17.1044 119.311 17.0037 119.464 16.9639Z" fill="#F2F2F2"/>
<path d="M137.805 18.489C138.006 18.3614 138.031 18.5084 138.06 18.6512C137.95 18.6376 137.866 18.581 137.805 18.489Z" fill="#F2F2F2"/>
<path d="M154.9 21.0389C154.887 20.9038 154.881 20.7728 155.071 20.7627C155.054 20.8793 154.992 20.9688 154.9 21.0389Z" fill="#F2F2F2"/>
<path d="M155.146 20.624C155.136 20.4922 155.117 20.3554 155.314 20.3486C155.3 20.4669 155.236 20.5531 155.146 20.624Z" fill="#F2F2F2"/>
<path d="M151.154 21.5005C151.162 21.6289 151.177 21.7615 150.988 21.7708C151.002 21.6551 151.063 21.5689 151.154 21.5005Z" fill="#F2F2F2"/>
<path d="M155.311 20.3463C155.304 20.2187 155.301 20.0937 155.48 20.0886C155.462 20.1993 155.41 20.288 155.311 20.3463Z" fill="#F2F2F2"/>
<path d="M154.131 22.2877C154.125 22.1635 154.121 22.041 154.293 22.0283C154.28 22.1407 154.226 22.2268 154.131 22.2877Z" fill="#F2F2F2"/>
<path d="M152.324 19.5605C152.333 19.6906 152.349 19.8258 152.156 19.8326C152.171 19.716 152.234 19.6298 152.324 19.5605Z" fill="#F2F2F2"/>
<path d="M150.659 22.3384C150.669 22.4693 150.686 22.6036 150.492 22.6112C150.507 22.4947 150.569 22.4077 150.659 22.3384Z" fill="#F2F2F2"/>
<path d="M153.103 18.3118C153.111 18.4385 153.115 18.5618 152.938 18.5711C152.954 18.4596 153.006 18.3717 153.103 18.3118Z" fill="#F2F2F2"/>
<path d="M156.913 17.7388C156.905 17.6121 156.901 17.4879 157.079 17.4795C157.065 17.5927 157.01 17.6789 156.913 17.7388Z" fill="#F2F2F2"/>
<path d="M157.588 16.6412C157.582 16.5153 157.577 16.392 157.753 16.3818C157.738 16.4942 157.684 16.5804 157.588 16.6412Z" fill="#F2F2F2"/>
<path d="M138.841 16.2156C138.839 16.3372 138.838 16.458 138.668 16.4631C138.691 16.3567 138.746 16.2722 138.841 16.2156Z" fill="#F2F2F2"/>
<path d="M154.798 15.5339C154.805 15.6598 154.809 15.784 154.633 15.7933C154.648 15.6818 154.7 15.5939 154.798 15.5339Z" fill="#F2F2F2"/>
<path d="M149.463 24.2808C149.472 24.41 149.487 24.5435 149.297 24.5511C149.312 24.4362 149.375 24.35 149.463 24.2808Z" fill="#F2F2F2"/>
<path d="M158.353 15.3983C158.34 15.2614 158.334 15.1297 158.527 15.1204C158.507 15.2361 158.446 15.3273 158.353 15.3983Z" fill="#F2F2F2"/>
<path d="M159.194 14.0317C159.187 13.9075 159.182 13.7842 159.356 13.7715C159.343 13.883 159.289 13.97 159.194 14.0317Z" fill="#F2F2F2"/>
<path d="M152.518 24.8962C152.512 24.7712 152.508 24.6478 152.683 24.6377C152.667 24.7492 152.612 24.8354 152.518 24.8962Z" fill="#F2F2F2"/>
<path d="M156.493 12.7522C156.5 12.8781 156.505 13.0023 156.328 13.0115C156.343 12.9 156.396 12.8122 156.493 12.7522Z" fill="#F2F2F2"/>
<path d="M161.474 10.3228C161.469 10.2003 161.464 10.0778 161.636 10.0635C161.625 10.1767 161.569 10.2612 161.474 10.3228Z" fill="#F2F2F2"/>
<path d="M148.705 25.5391C148.716 25.67 148.735 25.8069 148.539 25.8153C148.552 25.6979 148.617 25.6117 148.705 25.5391Z" fill="#F2F2F2"/>
<path d="M151.839 25.9943C151.831 25.8676 151.828 25.7443 152.005 25.7358C151.99 25.8474 151.935 25.9344 151.839 25.9943Z" fill="#F2F2F2"/>
<path d="M148.551 25.8081C148.558 25.934 148.562 26.0573 148.387 26.0675C148.402 25.9559 148.454 25.8681 148.551 25.8081Z" fill="#F2F2F2"/>
<path d="M151.693 26.2649C151.683 26.134 151.665 25.998 151.86 25.9912C151.847 26.1078 151.783 26.1948 151.693 26.2649Z" fill="#F2F2F2"/>
<path d="M158.183 9.97363C158.19 10.0987 158.194 10.222 158.02 10.233C158.034 10.1215 158.086 10.0336 158.183 9.97363Z" fill="#F2F2F2"/>
<path d="M151.341 26.8299C151.338 26.71 151.331 26.5866 151.5 26.574C151.489 26.6855 151.434 26.7691 151.341 26.8299Z" fill="#F2F2F2"/>
<path d="M151.164 27.0904C151.154 26.9628 151.15 26.8387 151.329 26.8311C151.314 26.9434 151.26 27.0304 151.164 27.0904Z" fill="#F2F2F2"/>
<path d="M14.8864 24.9743C17.536 24.9743 20.0699 25.0073 22.6021 24.9616C24.0719 24.9354 24.792 24.1055 24.9086 22.4945C24.928 22.2291 24.9196 21.9612 24.9399 21.695C24.9509 21.5547 24.928 21.3924 25.0734 21.2732C25.2061 21.3848 25.1605 21.5183 25.1605 21.6333C25.1639 23.4859 25.1554 25.3386 25.1689 27.1912C25.1715 27.5006 25.092 27.5978 24.77 27.5969C20.8137 27.5859 16.8573 27.591 12.901 27.5868C12.7726 27.5868 12.5993 27.6612 12.5249 27.4896C12.4505 27.3163 12.59 27.2056 12.6889 27.0881C14.2364 25.2515 15.904 23.5138 17.3467 21.5919C19.1089 19.2448 20.4435 16.6796 21.0562 13.7832C21.2582 12.8281 21.2912 11.8629 21.1163 10.8994C20.7562 8.91573 19.283 7.88882 17.2825 8.22014C16.3578 8.37312 15.5591 8.78472 14.8712 9.40171C14.9244 9.53272 14.9903 9.50821 15.0841 9.48792C15.8761 9.31719 16.6604 9.69922 17.0568 10.4396C17.4321 11.1386 17.3028 11.9457 16.7238 12.5247C16.1195 13.1281 15.3462 13.2448 14.5956 12.8467C13.8814 12.4681 13.4994 11.6871 13.6507 10.9087C13.8544 9.86403 14.5846 9.24366 15.445 8.74923C17.7532 7.42313 21.0808 7.7088 23.1075 9.3941C24.5655 10.6061 24.9433 12.5602 24.1023 14.4517C23.5572 15.6789 22.7179 16.6948 21.8034 17.6524C20.2508 19.2786 18.6677 20.876 17.1151 22.5021C16.3731 23.2805 15.6724 24.0995 14.8864 24.9743Z" fill="#F2F2F2"/>
</svg>
