<svg width="88" height="60" viewBox="0 0 88 60" fill="none" xmlns="http://www.w3.org/2000/svg">
<path d="M40.1171 11.8218C37.5916 11.3246 35.1498 10.8434 32.649 10.3511C33.177 7.17206 34.2994 4.38812 36.9246 2.41277C39.5842 0.412812 42.618 -0.26656 45.8659 0.0928174C47.1914 0.239276 48.5576 0.537115 49.776 1.0651C55.8756 3.70874 56.3839 10.1492 54.0196 14.3288C53.1926 15.7922 52.011 16.9282 50.7126 17.93C48.7656 19.4315 46.7545 20.8493 44.7706 22.3016C44.5958 22.4296 44.4173 22.5539 44.1109 22.7717C47.9668 22.7717 51.6652 22.7717 55.4842 22.7717C55.382 25.232 55.2824 27.6332 55.1802 30.0787C47.6616 30.0787 40.1873 30.0787 32.6576 30.0787C32.6576 28.4504 32.7745 26.843 32.6244 25.2603C32.4804 23.7465 33.017 22.8653 34.2859 22.053C37.6039 19.9287 40.7153 17.5115 43.6284 14.8507C44.2623 14.271 44.869 13.6519 45.4229 12.9947C46.2868 11.9707 46.7262 10.7794 46.6068 9.41571C46.4948 8.13204 45.7589 7.1499 44.6672 6.8336C43.3909 6.46315 42.0777 6.86807 41.3048 7.88958C40.586 8.83849 40.3583 9.96216 40.1996 11.1067C40.1713 11.3086 40.1528 11.5092 40.1171 11.8218Z" fill="#F2F2F2"/>
<path d="M0.328125 56.0615C29.5017 56.0615 58.6149 56.0615 87.775 56.0615C87.775 57.2393 87.775 58.3926 87.775 59.5778C58.626 59.5778 29.4955 59.5778 0.328125 59.5778C0.328125 58.4086 0.328125 57.2701 0.328125 56.0615Z" fill="#F2F2F2"/>
<path d="M12.558 35.4756C12.558 36.5673 12.558 37.6405 12.558 38.7924C10.1445 38.7924 7.75936 38.7924 5.33356 38.7924C5.33356 39.7598 5.33356 40.6496 5.33356 41.6145C6.23816 41.6145 7.11691 41.569 7.98828 41.6268C9.06641 41.6982 10.1667 41.7438 11.2079 42.001C13.1796 42.4871 14.3906 44.0846 14.4595 46.0501C14.5457 48.487 13.5709 50.1461 11.5267 50.8414C10.7045 51.1208 9.81716 51.3239 8.95441 51.3436C6.22954 51.4076 3.50344 51.3694 0.777346 51.3694C0.638272 51.3694 0.500429 51.3497 0.328125 51.3362C0.328125 46.0477 0.328125 40.7899 0.328125 35.4768C4.39573 35.4756 8.45596 35.4756 12.558 35.4756ZM5.32741 47.7818C6.24677 47.7818 7.08491 47.8003 7.92059 47.7769C8.73534 47.7547 9.17102 47.3289 9.25225 46.5412C9.33348 45.7498 8.95072 45.1123 8.15812 45.0299C7.23506 44.9339 6.29354 45.0077 5.32741 45.0077C5.32741 45.9197 5.32741 46.8107 5.32741 47.7818Z" fill="#F2F2F2"/>
<path d="M21.6439 41.3897C23.6439 41.3897 25.6032 41.3897 27.6056 41.3897C27.6056 42.5884 27.6056 43.7281 27.6056 44.9416C25.6463 44.9416 23.6697 44.9416 21.6525 44.9416C21.6525 45.8228 21.6525 46.6314 21.6525 47.5089C24.1005 47.5089 26.5497 47.5089 29.053 47.5089C29.053 48.8111 29.053 50.0467 29.053 51.3267C24.9165 51.3267 20.7849 51.3267 16.6016 51.3267C16.6016 46.0567 16.6016 40.7804 16.6016 35.4624C20.7529 35.4624 24.8845 35.4624 29.1022 35.4624C29.1022 36.5971 29.117 37.7184 29.0776 38.8383C29.0739 38.9454 28.7342 39.1251 28.5484 39.1276C26.5177 39.1485 24.4882 39.1411 22.4574 39.1411C22.1965 39.1411 21.9356 39.1411 21.6439 39.1411C21.6439 39.9029 21.6439 40.5921 21.6439 41.3897Z" fill="#F2F2F2"/>
<path d="M47.0938 51.3357C47.0938 46.0263 47.0938 40.7808 47.0938 35.4775C51.2574 35.4775 55.4025 35.4775 59.5907 35.4775C59.5907 36.6714 59.5907 37.8504 59.5907 39.1082C57.1317 39.1082 54.6813 39.1082 52.1829 39.1082C52.1829 39.8885 52.1829 40.5937 52.1829 41.3814C54.157 41.3814 56.1323 41.3814 58.1409 41.3814C58.1409 42.6036 58.1409 43.742 58.1409 44.9567C56.1582 44.9567 54.1828 44.9567 52.1718 44.9567C52.1718 45.8392 52.1718 46.6478 52.1718 47.5253C54.6419 47.5253 57.0923 47.5253 59.587 47.5253C59.587 48.8299 59.587 50.0656 59.587 51.3369C55.4234 51.3357 51.2894 51.3357 47.0938 51.3357Z" fill="#F2F2F2"/>
<path d="M31.0898 35.465C31.2338 35.4478 31.352 35.4207 31.4701 35.4219C34.1765 35.433 36.883 35.4305 39.5881 35.4736C40.2158 35.4835 40.8558 35.6004 41.465 35.7591C43.6668 36.3327 45.1265 38.1345 45.2065 40.3141C45.2877 42.5479 43.9979 44.4654 41.7838 45.1608C40.8632 45.45 39.8577 45.5017 38.8841 45.5768C38.0337 45.6432 37.1746 45.5903 36.2516 45.5903C36.2516 46.5934 36.2516 47.5312 36.2516 48.4678C36.2516 49.4069 36.2516 50.3459 36.2516 51.3268C34.5113 51.3268 32.8227 51.3268 31.0898 51.3268C31.0898 46.0432 31.0898 40.7683 31.0898 35.465ZM36.2368 42.1996C37.219 42.1233 38.142 42.1245 39.0343 41.9609C39.7691 41.8267 40.0804 41.2667 40.0607 40.4975C40.0423 39.7738 39.7051 39.2914 38.9432 39.1818C38.0645 39.0551 37.166 39.0625 36.2368 39.0095C36.2368 40.0938 36.2368 41.0661 36.2368 42.1996Z" fill="#F2F2F2"/>
<path d="M87.7979 51.366C86.1254 51.366 84.5278 51.3759 82.9303 51.35C82.779 51.3476 82.5513 51.1408 82.4971 50.982C82.2461 50.2473 82.0233 49.5002 81.8301 48.747C81.739 48.3888 81.5901 48.2461 81.2036 48.2535C80.0147 48.2781 78.8246 48.2768 77.6369 48.2535C77.2775 48.2461 77.1323 48.3852 77.04 48.7088C76.8271 49.4571 76.5994 50.2005 76.3409 50.934C76.2806 51.1051 76.0776 51.3439 75.9336 51.3476C74.6659 51.3796 73.397 51.366 72.0469 51.366C72.5072 49.9359 72.9453 48.5772 73.3835 47.2184C74.581 43.4979 75.7896 39.781 76.9625 36.0519C77.1225 35.5423 77.3551 35.3934 77.8671 35.4057C79.2812 35.439 80.6965 35.4242 82.1107 35.4119C82.4319 35.4094 82.6362 35.4697 82.7494 35.8168C84.4011 40.8961 86.0638 45.9717 87.7229 51.0497C87.7487 51.1248 87.761 51.2036 87.7979 51.366ZM78.1551 44.6622C79.0338 44.6622 79.8375 44.6622 80.7125 44.6622C80.2929 43.2136 79.8904 41.8278 79.4892 40.4419C79.4436 40.4506 79.3969 40.4592 79.3513 40.4678C78.955 41.8548 78.56 43.2443 78.1551 44.6622Z" fill="#F2F2F2"/>
<path d="M29.9741 12.0544C24.3053 16.7497 21.3884 22.7422 21.2186 30.0897C14.2439 30.0897 7.30254 30.0897 0.324219 30.0897C0.324219 28.9255 0.324219 27.7895 0.324219 26.5821C0.588829 26.5821 0.827594 26.5821 1.06759 26.5821C6.41886 26.5821 11.7714 26.5772 17.1226 26.5907C17.6162 26.592 17.8512 26.5243 17.9534 25.9384C18.8605 20.7053 21.2949 16.2672 25.0388 12.5209C25.4597 12.0999 25.8769 11.887 26.4874 11.9153C27.5926 11.9683 28.7003 11.9375 29.8079 11.9461C29.8387 11.9473 29.8695 11.9855 29.9741 12.0544Z" fill="#F2F2F2"/>
<path d="M87.7838 30.0878C80.8326 30.0878 73.89 30.0878 66.8858 30.0878C66.828 26.5678 66.1018 23.2177 64.5634 20.056C63.0324 16.9114 60.8502 14.2887 58.1992 11.9294C58.9844 11.9294 59.782 12.0204 60.5512 11.9097C62.0121 11.7004 62.9757 12.3183 63.9234 13.3755C67.1787 17.0086 69.3399 21.1575 70.1694 25.9709C70.2654 26.5272 70.4919 26.5912 70.9633 26.59C76.3145 26.5764 81.6671 26.5814 87.0183 26.5814C87.2608 26.5814 87.5032 26.5814 87.7838 26.5814C87.7838 27.7715 87.7838 28.9087 87.7838 30.0878Z" fill="#F2F2F2"/>
<path d="M66.7263 39.1745C66.7263 43.2864 66.7263 47.2962 66.7263 51.3367C65.002 51.3367 63.3479 51.3367 61.6445 51.3367C61.6445 46.0667 61.6445 40.7929 61.6445 35.4688C65.1312 35.4688 68.6241 35.4688 72.1625 35.4688C72.1625 36.6736 72.1625 37.8909 72.1625 39.1745C70.389 39.1745 68.6167 39.1745 66.7263 39.1745Z" fill="#F2F2F2"/>
</svg>
