<svg width="109" height="39" viewBox="0 0 109 39" fill="none" xmlns="http://www.w3.org/2000/svg">
<path d="M0.519531 0.449939C3.51006 0.449939 6.40561 0.449939 9.30117 0.449939C11.306 0.449939 13.3134 0.426833 15.3182 0.46277C16.1653 0.478172 17.0278 0.537216 17.8569 0.706637C19.8951 1.11992 20.8808 2.05944 21.099 3.66123C21.3172 5.25533 20.6986 6.25645 18.7682 7.33201C19.0993 7.50143 19.374 7.65545 19.6589 7.7915C21.3634 8.59496 22.0822 9.94519 22.0154 11.8165C21.9487 13.6468 21.1144 14.9405 19.4279 15.5592C18.4833 15.9057 17.4436 16.1522 16.4425 16.165C11.3214 16.2317 6.20026 16.2061 1.07913 16.2112C0.917411 16.2112 0.753126 16.165 0.519531 16.1291C0.519531 10.9463 0.519531 5.79696 0.519531 0.449939ZM6.54166 9.80145C6.54166 10.7897 6.54166 11.6137 6.54166 12.5122C9.14458 12.5122 11.65 12.5327 14.1553 12.4993C14.9973 12.4891 15.675 12.1169 15.6955 11.1491C15.7186 10.1429 14.9947 9.82455 14.1707 9.81428C11.6654 9.77834 9.15998 9.80145 6.54166 9.80145ZM6.50829 6.21538C9.03933 6.21538 11.4215 6.26671 13.7959 6.16916C14.2246 6.15119 14.6302 5.53512 15.0486 5.19371C14.7201 4.8215 14.4018 4.14126 14.0578 4.12843C11.5652 4.03601 9.06757 4.07965 6.50829 4.07965C6.50829 4.81894 6.50829 5.43759 6.50829 6.21538Z" fill="#F2F2F2"/>
<path d="M12.3535 33.1322C14.2941 33.1322 16.2502 33.1142 18.2062 33.1553C18.4501 33.1604 18.6914 33.4916 18.9275 33.6764C19.5718 34.1744 20.17 35.0138 20.8682 35.1088C22.4058 35.3167 24.0025 35.2422 25.5529 35.0805C26.0098 35.0317 26.3974 34.3053 26.8159 33.8894C26.3949 33.4864 26.015 32.7985 25.5452 32.7317C23.8613 32.493 22.144 32.5135 20.4472 32.339C18.8428 32.1747 17.2077 32.0489 15.6623 31.6202C13.4368 31.0016 12.4664 29.6026 12.4587 27.5413C12.4485 25.4466 13.3957 24.1067 15.5879 23.3982C16.6737 23.0465 17.8366 22.7359 18.9609 22.741C22.1055 22.7564 25.2551 22.8745 28.392 23.1132C29.3212 23.1851 30.271 23.6831 31.1053 24.1683C32.3708 24.9024 33.0228 26.0678 32.9432 27.7338C30.9282 27.7338 28.9336 27.7415 26.9365 27.7235C26.7543 27.721 26.5335 27.608 26.3974 27.4771C25.0087 26.1346 21.3995 25.5288 19.6309 26.4067C19.3357 26.553 18.9481 26.9766 18.9866 27.2127C19.0379 27.5516 19.387 28.0162 19.7028 28.1112C20.4266 28.3294 21.207 28.391 21.9694 28.4526C24.5184 28.6579 27.0982 28.6528 29.6087 29.0712C32.5659 29.5641 33.6569 31.1402 33.5208 33.9716C33.4387 35.6658 32.6634 37.0032 31.1258 37.6167C29.6806 38.1943 28.1122 38.7256 26.5848 38.7693C23.4454 38.8591 20.2906 38.6974 17.1563 38.4484C16.1501 38.3688 15.1233 37.8041 14.2274 37.2599C12.7437 36.3614 12.1558 34.9368 12.3535 33.1322Z" fill="#F2F2F2"/>
<path d="M93.4363 30.725C96.0032 31.5002 96.645 33.2457 96.5166 35.479C96.4576 36.493 96.5064 37.5121 96.5064 38.6723C94.7685 38.6723 92.946 38.7032 91.126 38.6338C90.8924 38.6261 90.533 38.1179 90.4842 37.7996C90.3816 37.1322 90.474 36.4365 90.4355 35.7537C90.3533 34.2546 89.6474 33.4075 88.156 33.3407C85.9895 33.2458 83.8152 33.3151 81.4947 33.3151C81.4947 35.076 81.4947 36.8036 81.4947 38.603C79.4462 38.603 77.5492 38.603 75.5547 38.603C75.5547 33.369 75.5547 28.1862 75.5547 22.8546C76.2811 22.8546 76.9511 22.8546 77.6211 22.8546C81.6333 22.8546 85.6455 22.811 89.6551 22.8803C91.0053 22.9034 92.3838 23.0831 93.6904 23.4271C95.2408 23.8352 96.2882 24.8569 96.3986 26.5998C96.5141 28.4583 95.9237 29.4723 94.1576 30.3707C94.0036 30.4477 93.8495 30.5222 93.4363 30.725ZM81.5691 26.7077C81.5691 27.7088 81.5691 28.5276 81.5691 29.4235C84.0026 29.4235 86.3334 29.4543 88.6617 29.4081C89.4729 29.3927 90.1942 29.0641 90.1865 28.0553C90.1762 27.0542 89.4574 26.7385 88.6437 26.7231C86.3155 26.682 83.9846 26.7077 81.5691 26.7077Z" fill="#F2F2F2"/>
<path d="M85.5221 9.70072C85.5375 11.8493 84.6263 13.3458 83.0501 14.4804C79.1586 17.2784 69.4734 17.1963 65.4817 14.5446C61.5619 11.9417 61.182 3.58617 66.5778 1.47612C71.7066 -0.528694 76.9382 -0.479917 82.0516 1.56083C84.2053 2.42077 85.4759 4.15091 85.5375 6.78977C83.5507 6.78977 81.6486 6.8026 79.7439 6.7718C79.5411 6.76923 79.2587 6.57671 79.156 6.39189C78.4193 5.09556 77.1872 4.58729 75.8369 4.53852C74.3224 4.48205 72.7745 4.54366 71.2882 4.81062C69.9354 5.05192 69.0473 6.01454 68.8701 7.46232C68.6725 9.05128 69.0139 10.4426 70.4463 11.3821C72.2817 12.586 76.2425 12.5706 78.0625 11.3539C78.0984 11.3307 78.1395 11.3128 78.1677 11.282C78.6863 10.7558 79.1637 9.83164 79.7285 9.7726C81.6203 9.58264 83.5404 9.70072 85.5221 9.70072Z" fill="#F2F2F2"/>
<path d="M62.3127 26.7707C61.0318 29.484 59.8586 31.974 58.5983 34.6411C60.4439 34.6411 62.0611 34.5795 63.6655 34.6796C64.1301 34.7078 64.7282 35.1083 64.9798 35.5139C65.5548 36.438 65.9527 37.475 66.4866 38.5968C61.1447 38.5968 55.9774 38.5968 50.6406 38.5968C50.9256 38.0064 51.1566 37.5187 51.3927 37.0361C53.5644 32.6337 55.7489 28.2365 57.8923 23.8213C58.2312 23.1231 58.6162 22.8073 59.4351 22.833C61.481 22.8972 63.532 22.8202 65.5779 22.8818C65.9963 22.8946 66.6047 23.1616 66.7844 23.4953C69.3744 28.3546 71.9055 33.2446 74.4468 38.1296C74.5007 38.2323 74.4879 38.3658 74.5341 38.6661C72.501 38.6661 70.5193 38.7072 68.5402 38.6225C68.2347 38.6096 67.8676 38.0552 67.6777 37.6753C66.1015 34.5025 64.5613 31.3117 63.0083 28.1261C62.8261 27.7513 62.6259 27.3791 62.3127 26.7707Z" fill="#F2F2F2"/>
<path d="M63.6524 16.2058C61.6578 16.2058 59.6684 16.2468 57.6867 16.1621C57.3787 16.1493 57.0039 15.6076 56.8165 15.2329C55.2378 12.0601 53.6976 8.86934 52.142 5.68628C51.9598 5.31664 51.7544 4.95726 51.4387 4.36685C50.1706 7.03394 48.9975 9.50337 47.7063 12.2192C49.5237 12.2192 51.1229 12.2552 52.717 12.2038C53.4589 12.1807 53.8953 12.3989 54.1777 13.1126C54.5678 14.0957 55.0607 15.0378 55.569 16.121C50.3041 16.121 45.1727 16.121 39.8359 16.121C40.0208 15.6949 40.1645 15.3279 40.3391 14.9736C42.5672 10.4557 44.8184 5.94811 47.0158 1.41482C47.3598 0.70377 47.7448 0.403424 48.5534 0.426527C50.6018 0.485567 52.6503 0.41369 54.6988 0.47273C55.1197 0.485565 55.7384 0.737131 55.9155 1.06827C58.5236 5.96607 61.0751 10.8972 63.6344 15.8233C63.6652 15.89 63.6421 15.985 63.6524 16.2058Z" fill="#F2F2F2"/>
<path d="M107.873 0.731034C104.985 2.99254 102.095 5.25406 99.0917 7.60798C102.164 10.4086 105.186 13.1604 108.538 16.2151C107.383 16.2151 106.562 16.1098 105.779 16.233C102.152 16.808 99.274 15.658 96.9277 12.8138C95.865 11.5252 94.4737 10.5087 92.9977 9.15586C92.9977 11.6843 92.9977 13.8791 92.9977 16.1432C90.9723 16.1432 89.0753 16.1432 87.0859 16.1432C87.0859 10.9476 87.0859 5.79826 87.0859 0.548788C89.0035 0.548788 90.9338 0.548788 92.9566 0.548788C92.9566 2.49969 92.9566 4.40953 92.9566 6.54782C93.3802 6.28342 93.6574 6.14481 93.8936 5.95742C95.9292 4.33252 97.934 2.66654 100.003 1.08528C100.468 0.731035 101.135 0.500008 101.72 0.476905C103.751 0.40503 105.784 0.448672 107.817 0.448672C107.835 0.543651 107.855 0.638623 107.873 0.731034Z" fill="#F2F2F2"/>
<path d="M53.4518 27.1828C51.257 27.1828 49.1008 27.1828 46.8033 27.1828C46.8033 31.0435 46.8033 34.7836 46.8033 38.6033C44.76 38.6033 42.8579 38.6033 40.812 38.6033C40.812 34.8786 40.812 31.1411 40.812 27.2316C38.4889 27.2316 36.2992 27.2316 34.0352 27.2316C34.0352 25.717 34.0352 24.3719 34.0352 22.9421C40.4937 22.9421 46.9188 22.9421 53.4544 22.9421C53.4518 24.3078 53.4518 25.6811 53.4518 27.1828Z" fill="#F2F2F2"/>
<path d="M23.3672 16.0554C23.3672 10.9086 23.3672 5.76178 23.3672 0.530273C25.3207 0.530273 27.2202 0.530273 29.302 0.530273C29.302 4.20619 29.302 7.88979 29.302 11.7018C33.0832 11.7018 36.6873 11.7018 40.5352 11.7018C39.7317 13.2034 39.0566 14.5177 38.3147 15.7935C38.1838 16.0194 37.7603 16.1914 37.4727 16.194C32.9087 16.2145 28.3446 16.2017 23.7779 16.1914C23.6624 16.1914 23.5443 16.117 23.3672 16.0554Z" fill="#F2F2F2"/>
</svg>
