<svg width="99" height="68" viewBox="0 0 99 68" fill="none" xmlns="http://www.w3.org/2000/svg">
<path d="M12.9064 11.6256C13.2587 10.4115 13.5796 9.24066 13.9385 8.08288C14.4126 6.55576 15.4721 5.86555 17.0713 5.83935C18.6285 5.81316 19.7693 6.36586 20.4346 7.81439C20.7974 8.60546 21.2126 9.37163 21.5819 10.1601C21.9395 10.9249 22.2695 11.7029 22.6755 12.6223C22.8248 11.6715 22.9047 10.8529 23.0881 10.0592C23.663 7.55638 24.2576 5.05877 24.8811 2.5677C25.1627 1.44267 25.9197 0.710539 27.0447 0.425023C28.6989 0.00460692 30.3268 -0.0543303 31.7963 1.02225C32.4734 1.51863 32.7275 2.18527 32.5861 3.0261C31.7099 8.25053 30.5521 13.399 28.7067 18.3837C27.7323 21.0136 25.9812 22.7306 23.3199 23.5427C22.1608 23.8963 21.3828 23.6579 20.7031 22.6652C20.2421 21.9907 19.8832 21.2454 19.4667 20.5107C19.2284 21.5873 18.9599 22.6455 18.7647 23.7182C18.3535 25.9735 16.6718 26.9676 14.7937 27.7481C14.114 28.031 13.4106 27.8136 12.9064 27.3343C12.3485 26.8025 11.7696 26.2079 11.45 25.5243C9.77097 21.9396 8.20063 18.3038 6.5373 14.7113C4.85695 11.0795 3.10848 7.47911 1.40325 3.86039C1.16357 3.35222 0.943538 2.82179 0.811258 2.27826C0.567652 1.27633 1.01557 0.535038 2.01226 0.30584C3.94932 -0.139461 7.10964 0.201063 8.56604 2.73666C9.98183 5.20022 11.1147 7.82487 12.3655 10.3827C12.5659 10.7861 12.727 11.2105 12.9064 11.6256Z" fill="#F2F2F2"/>
<path d="M53.1672 44.0997C52.9196 45.1318 52.7585 46.1926 52.4115 47.1893C50.7324 52.009 47.8209 56.0704 44.4301 59.8057C41.8854 62.6098 39.0119 65.0419 35.735 66.9659C35.1954 67.2829 34.6125 67.554 34.0166 67.7413C32.6008 68.1866 31.6736 67.626 31.4863 66.167C31.3828 65.3563 31.3474 64.501 31.4837 63.7008C32.5131 57.6369 34.4253 51.8715 37.5934 46.5738C39.2227 43.8496 41.6915 42.0474 44.5008 40.667C45.7713 40.0422 47.026 39.3782 48.4679 39.2407C50.8464 39.0128 52.3669 40.1182 52.862 42.4469C52.9746 42.976 53.0061 43.5235 53.0755 44.0617C53.1056 44.0748 53.137 44.0866 53.1672 44.0997ZM46.3554 47.9568C46.3777 47.154 46.0502 46.8265 45.4753 47.0754C44.8348 47.353 44.1616 47.708 43.6941 48.2083C42.015 50.0052 41.182 52.2448 40.6359 54.5983C40.5756 54.859 40.7145 55.1654 40.7616 55.4496C41.0314 55.3475 41.3523 55.3082 41.5619 55.134C43.5867 53.4458 45.1046 51.3804 46.0777 48.926C46.2205 48.5658 46.2938 48.1768 46.3554 47.9568Z" fill="#F2F2F2"/>
<path d="M44.1177 27.1817C47.3487 27.217 48.2236 30.0224 47.7286 32.0237C47.1732 34.2646 45.9133 36.1047 44.3299 37.7392C41.4485 40.7136 37.8717 42.5694 34.0683 44.0481C33.5837 44.2367 33.086 44.4083 32.5805 44.5196C31.5209 44.7527 30.5452 44.3742 30.13 43.3775C29.7607 42.4922 29.4896 41.5112 29.4398 40.5577C29.2604 37.104 30.0488 33.7656 30.8779 30.4455C31.1306 29.4331 31.4306 28.4298 31.7462 27.4345C33.1057 23.1478 35.9255 20.4223 40.3811 19.5435C41.6725 19.2894 43.0097 19.127 44.3233 19.1466C46.9833 19.1872 48.331 21.3692 47.3199 23.8393C46.8065 25.0927 45.9159 26.0265 44.7961 26.7586C44.6167 26.8752 44.4346 26.9839 44.1177 27.1817ZM37.1003 34.4898C37.0662 35.408 37.5469 35.9318 38.2646 35.8127C39.5442 35.5992 41.6096 33.5927 41.8506 32.3026C41.9829 31.5954 41.8244 30.9484 41.2403 30.4861C40.6457 30.0159 40.0576 30.2516 39.4853 30.5778C37.9477 31.4526 37.3007 32.8619 37.1003 34.4898ZM38.4991 26.8503C38.5174 26.9905 38.4755 27.3009 38.6064 27.4908C38.7479 27.6951 39.0727 27.9308 39.2836 27.9007C40.5134 27.7291 41.992 25.8432 41.9331 24.6055C41.886 23.6219 41.1499 23.191 40.2606 23.6153C38.9404 24.2453 38.5816 25.4057 38.4991 26.8503Z" fill="#F2F2F2"/>
<path d="M51.6978 6.35158C51.7934 6.00582 51.8576 5.64696 51.9912 5.31822C52.4404 4.21414 52.8334 3.076 53.4031 2.03348C54.0763 0.802351 55.2196 0.193338 56.6367 0.157975C57.1593 0.144878 57.6832 0.142259 58.2045 0.169763C59.3439 0.230009 59.911 0.671381 60.2253 1.77415C60.3616 2.25351 60.4716 2.75251 60.5004 3.24758C60.651 5.83294 60.7898 8.41961 60.8867 11.0076C60.909 11.6074 60.8239 12.2335 60.6628 12.8137C60.2162 14.4102 57.9897 15.2759 56.5359 14.4574C55.8915 14.0946 55.5929 13.517 55.5143 12.8045C55.4135 11.8877 55.3139 10.9696 55.069 10.0306C55.0153 10.2467 54.9656 10.4641 54.9079 10.6789C54.6473 11.6454 54.4391 12.629 54.1129 13.5733C53.3834 15.6898 51.373 15.9452 49.9127 15.6322C49.2343 15.4868 48.8125 14.9695 48.6829 14.3159C48.472 13.2524 48.3463 12.1719 48.1891 11.098C48.1642 10.9316 48.1682 10.7614 48.0582 10.5649C48.0084 10.6828 47.9442 10.7954 47.9102 10.9172C47.5788 12.113 47.2409 13.3061 46.9266 14.5071C46.4511 16.325 45.1048 17.0912 43.4087 17.3636C41.5974 17.6544 40.6858 16.8436 40.9517 14.9629C41.3446 12.1863 41.896 9.42809 42.4618 6.68032C42.763 5.21214 43.19 3.7636 43.6418 2.33209C44.1474 0.731627 44.8847 0.232629 46.5782 0.160595C49.6259 0.0309339 50.6042 0.795803 51.174 3.79765C51.3337 4.63848 51.4293 5.4911 51.5538 6.33849C51.6022 6.34241 51.6507 6.34765 51.6978 6.35158Z" fill="#F2F2F2"/>
<path d="M73.2499 4.84096C73.783 3.78534 74.2191 2.91438 74.6631 2.04736C75.1883 1.02447 76.0304 0.407602 77.1646 0.274012C77.9596 0.179713 78.7729 0.136493 79.5706 0.182332C80.4978 0.234721 81.1985 0.766462 81.4814 1.64266C82.4257 4.56854 82.7531 7.54813 82.0263 10.5788C81.8036 11.5074 81.1933 12.0954 80.2451 12.2788C79.691 12.3862 79.1292 12.4949 78.5686 12.5106C77.4187 12.542 76.8241 11.9946 76.7154 10.8564C76.6407 10.0811 76.6014 9.30183 76.4521 8.48457C76.388 8.68757 76.3303 8.8932 76.2583 9.09358C75.9728 9.88988 75.7187 10.6993 75.3834 11.4733C75.0586 12.2225 74.4142 12.635 73.6271 12.7974C73.1595 12.893 72.6815 12.9585 72.2061 12.9873C70.971 13.062 70.1197 12.3168 70.0241 11.0765C69.9625 10.2776 69.935 9.47471 69.7857 8.63388C69.7084 8.81331 69.6443 8.99928 69.5539 9.17086C69.0065 10.2068 68.5258 11.2873 67.8814 12.2605C66.9568 13.6553 65.4768 14.0037 63.9195 13.933C62.8115 13.8832 62.2929 13.0109 62.5981 11.7863C62.9242 10.4793 63.2817 9.17348 63.7336 7.90568C64.3373 6.20568 64.9922 4.51877 65.7191 2.86723C66.7603 0.499282 68.8231 -0.442398 71.3521 0.19543C72.0921 0.381408 72.6055 0.847664 72.7863 1.57324C72.9683 2.30799 73.0456 3.06893 73.1582 3.81939C73.2014 4.0905 73.2106 4.36816 73.2499 4.84096Z" fill="#F2F2F2"/>
<path d="M61.8582 47.9869C60.9086 48.9351 60.0324 49.9278 59.0318 50.7739C58.2303 51.4523 57.2401 51.8204 56.1374 51.7916C54.8748 51.7588 54.0274 51.193 53.8519 49.9226C53.7 48.8172 53.6699 47.6568 53.827 46.5553C54.2789 43.3872 55.0778 40.3159 57.0777 37.7083C59.1549 34.9998 61.9132 33.5146 65.3158 33.2775C67.5672 33.1204 69.1572 34.4681 69.2122 36.7168C69.2921 39.9728 68.5128 43.0728 66.9935 45.949C66.3256 47.2141 65.1586 48.0301 63.8214 48.55C62.9295 48.8958 62.3925 48.6993 61.8582 47.9869ZM59.3776 44.0643C59.5164 44.3105 59.6461 44.8475 59.9669 45.0125C60.2367 45.1513 60.8182 44.9654 61.109 44.7322C62.5235 43.6046 63.4337 42.1482 63.5451 40.3067C63.5686 39.9073 63.3971 39.3009 63.1129 39.1319C62.8431 38.9721 62.2236 39.1424 61.9014 39.3703C60.369 40.4573 59.7089 42.0617 59.3776 44.0643Z" fill="#F2F2F2"/>
<path d="M80.7942 28.9737C81.1413 29.0025 81.491 29.013 81.8342 29.064C83.597 29.322 84.595 30.4445 84.354 32.1654C83.9598 34.9839 83.2146 37.7068 81.5486 40.0891C80.861 41.0727 80.0451 41.9018 78.8506 42.2502C78.5612 42.334 78.256 42.4008 77.9561 42.4073C77.1179 42.4257 76.6529 42.0275 76.8219 41.2129C77.1664 39.56 77.6365 37.9334 78.0923 36.3054C78.256 35.7213 78.5782 35.1817 78.7236 34.5949C78.7996 34.2871 78.6476 33.923 78.5992 33.5838C78.256 33.703 77.8343 33.7384 77.5907 33.965C77.3261 34.2112 77.1808 34.6198 77.0603 34.9839C76.2587 37.42 75.5541 39.8914 74.6648 42.2947C74.0637 43.9227 72.7985 44.8971 70.9858 44.9599C70.1188 44.9901 69.5845 44.5212 69.6499 43.6489C69.7377 42.4846 69.8883 41.3046 70.1974 40.1834C70.7239 38.2778 71.3866 36.4102 72.0087 34.5321C72.8404 32.0227 74.7382 30.599 77.1048 29.7516C78.2796 29.3312 79.5317 29.1295 80.7497 28.8296C80.7667 28.878 80.7811 28.9252 80.7942 28.9737Z" fill="#F2F2F2"/>
<path d="M98.3679 30.0555C98.2658 32.5793 97.3097 35.0232 95.7119 37.1659C94.7139 38.5044 93.1082 38.7428 91.5156 38.6681C90.9118 38.6393 90.7415 38.1102 90.8555 37.5968C91.0388 36.773 91.2588 35.9505 91.5496 35.1581C91.9085 34.1811 92.3603 33.2368 92.7624 32.2755C92.8711 32.0161 92.9981 31.7477 93.0243 31.4752C93.044 31.2644 92.9798 30.9553 92.8357 30.8479C92.6969 30.7444 92.3053 30.7549 92.2018 30.8715C91.8246 31.2971 91.4055 31.745 91.213 32.2624C90.5464 34.0527 89.995 35.8863 89.3506 37.6859C88.7953 39.2366 87.6532 40.0407 86.0043 40.1678C84.7496 40.2647 84.0908 39.6688 84.3357 38.4363C84.6186 37.014 85.0142 35.6113 85.4176 34.2165C85.6153 33.5315 85.9807 32.8963 86.206 32.2165C87.0783 29.5762 89.0009 28.0228 91.5195 27.1362C92.4952 26.793 93.5273 26.5416 94.5528 26.4237C96.8984 26.1526 98.3548 27.5134 98.3679 30.0555Z" fill="#F2F2F2"/>
<path d="M56.2031 31.5597C56.6799 27.1905 57.4618 23.006 58.8029 18.9407C59.0845 18.0854 59.5363 17.2682 60.0144 16.4981C60.6326 15.5014 61.6633 15.3481 62.7242 15.4922C63.3856 15.5813 63.7392 16.1078 63.8217 16.7233C63.9199 17.4515 63.9946 18.2033 63.9186 18.9289C63.4943 23.0374 62.5185 27.0294 61.2586 30.9559C61.1656 31.2454 61.0373 31.5243 60.9115 31.802C60.1768 33.43 59.1735 34.0075 57.3779 33.8635C56.8842 33.8242 56.5266 33.6015 56.4232 33.1248C56.304 32.576 56.2634 32.0116 56.2031 31.5597Z" fill="#F2F2F2"/>
<path d="M71.6343 17.0508C71.1078 19.3349 70.6428 21.6361 70.0351 23.8979C69.5728 25.6163 68.9612 27.2966 68.3548 28.9717C67.768 30.5945 66.5421 31.4589 64.8513 31.7208C63.9594 31.8583 63.4539 31.5375 63.4945 30.6364C63.5416 29.5781 63.6451 28.5042 63.8861 27.4761C64.5841 24.4938 65.3176 21.5182 66.1374 18.5674C66.4059 17.6009 66.9062 16.6723 67.4354 15.8092C68.0732 14.7693 69.5244 14.3528 70.6049 14.8767C70.9559 15.0469 71.2152 15.5224 71.3815 15.914C71.5177 16.2348 71.4549 16.6408 71.4797 17.0102C71.5321 17.0233 71.5832 17.0377 71.6343 17.0508Z" fill="#F2F2F2"/>
<path d="M32.8906 14.2287C33.1133 12.4462 33.3254 10.6611 33.5638 8.88119C33.721 7.71555 34.4701 7.13666 35.5899 7.01486C37.7536 6.78042 38.8537 6.88127 39.2414 9.49021C39.6396 12.1712 39.1707 14.7369 38.3312 17.2502C37.9094 18.5089 36.1073 19.4702 34.7714 19.3183C34.0235 19.2331 33.4852 18.7328 33.366 17.8278C33.2102 16.6438 33.1513 15.4481 33.0504 14.2562C32.9967 14.2471 32.943 14.2379 32.8906 14.2287Z" fill="#F2F2F2"/>
<path d="M55.4263 26.2811C55.2534 28.6648 54.8815 31.0078 54.1677 33.2841C53.6163 35.0444 52.431 36.1746 50.5843 36.5152C49.8116 36.6579 49.2733 36.3436 49.1214 35.5735C48.9839 34.878 48.9655 34.1485 48.9813 33.436C49.0428 30.6293 49.4593 27.8829 50.4992 25.2556C51.1004 23.739 52.7323 22.9741 54.2974 23.4705C55.0308 23.7036 55.4276 24.255 55.4276 25.0408C55.4263 25.4547 55.4263 25.8686 55.4263 26.2811Z" fill="#F2F2F2"/>
<path d="M37.6377 0.123291C39.3508 0.156034 39.9821 0.738854 40.0319 2.43885C40.0463 2.93261 39.9965 3.4434 39.8799 3.92406C39.394 5.92399 36.5546 6.87745 34.9332 5.56906C34.6215 5.31759 34.336 4.88408 34.2731 4.49771C34.0963 3.40804 34.1788 2.28169 34.797 1.35442C35.1126 0.882921 35.7452 0.57383 36.294 0.323676C36.6908 0.142936 37.1872 0.182228 37.6377 0.123291Z" fill="#F2F2F2"/>
<path d="M54.5613 16.6012C56.4604 16.4898 57.0589 17.0988 56.9018 18.7045C56.8664 19.0713 56.7996 19.4393 56.7145 19.7982C56.226 21.8793 54.7604 22.8432 52.6413 22.4883C51.7651 22.3416 51.2006 21.768 51.2111 20.8918C51.2255 19.7667 51.4848 18.677 52.1239 17.7327C52.7657 16.7832 53.7847 16.6182 54.5613 16.6012Z" fill="#F2F2F2"/>
<path d="M27.6386 29.3244C25.9321 29.3781 25.1541 28.4862 25.4292 26.7888C25.4645 26.574 25.5091 26.3605 25.5405 26.1457C25.9124 23.5957 28.0289 23.2513 29.8547 23.58C30.3956 23.677 30.6981 24.0843 30.8068 24.6239C31.0491 25.8275 30.8566 26.9774 30.2607 28.0304C29.6988 29.0258 28.7218 29.3113 27.6386 29.3244Z" fill="#F2F2F2"/>
<path d="M31.1169 52.3085C29.3396 52.3046 28.7463 51.6183 28.9834 50.2405C29.0606 49.7925 29.1693 49.3459 29.3056 48.9124C29.8779 47.0906 31.0658 46.2825 32.9871 46.3834C33.9995 46.4371 34.4868 46.8444 34.3898 47.8424C34.2995 48.7762 34.0952 49.7402 33.7232 50.5967C33.1849 51.837 32.0559 52.2928 31.1169 52.3085Z" fill="#F2F2F2"/>
<path d="M88.6752 4.08458C90.5009 4.07541 90.9475 4.66216 90.4761 6.40669C89.7675 9.02872 87.579 9.48319 85.5123 9.07325C84.7055 8.91347 84.3558 8.31624 84.5405 7.50291C85.1377 4.89398 86.154 4.11863 88.6752 4.08458Z" fill="#F2F2F2"/>
<path d="M73.7898 25.6338C72.1854 25.66 71.6197 24.9108 72.0728 23.3601C72.7945 20.8952 74.243 19.9405 76.7445 20.2862C77.3994 20.3766 77.7399 20.7053 77.736 21.3589C77.7242 23.3117 76.8598 25.6167 73.7898 25.6338Z" fill="#F2F2F2"/>
</svg>
